<svg width="149" height="69" viewBox="0 0 149 69" fill="none" xmlns="http://www.w3.org/2000/svg">
<rect width="149" height="69" fill="#D93125"/>
<path d="M21.707 47V21.0898H27.0684V30.9688H37.1934V21.0898H42.5723V47H37.1934V35.4336H27.0684V47H21.707ZM47.7578 21.0898H53.2598V37.0156C53.2598 38.7969 53.4707 40.0977 53.8926 40.918C54.5488 42.3711 55.9785 43.0977 58.1816 43.0977C60.373 43.0977 61.7969 42.3711 62.4531 40.918C62.875 40.0977 63.0859 38.7969 63.0859 37.0156V21.0898H68.5879V37.0156C68.5879 39.7695 68.1602 41.9141 67.3047 43.4492C65.7109 46.2617 62.6699 47.668 58.1816 47.668C53.6934 47.668 50.6465 46.2617 49.041 43.4492C48.1855 41.9141 47.7578 39.7695 47.7578 37.0156V21.0898ZM90.9473 21.0898H98.7344V47H93.6895V29.4746C93.6895 28.9707 93.6953 28.2676 93.707 27.3652C93.7188 26.4512 93.7246 25.748 93.7246 25.2559L88.8203 47H83.5645L78.6953 25.2559C78.6953 25.748 78.7012 26.4512 78.7129 27.3652C78.7246 28.2676 78.7305 28.9707 78.7305 29.4746V47H73.6855V21.0898H81.5605L86.2715 41.4629L90.9473 21.0898ZM115.223 43.1328C117.367 43.1328 119.066 42.3418 120.32 40.7598C121.586 39.1777 122.219 36.9277 122.219 34.0098C122.219 31.1035 121.586 28.8594 120.32 27.2773C119.066 25.6836 117.367 24.8867 115.223 24.8867C113.078 24.8867 111.367 25.6777 110.09 27.2598C108.812 28.8418 108.174 31.0918 108.174 34.0098C108.174 36.9277 108.812 39.1777 110.09 40.7598C111.367 42.3418 113.078 43.1328 115.223 43.1328ZM127.633 34.0098C127.633 38.6621 126.326 42.2246 123.713 44.6973C121.756 46.7129 118.926 47.7207 115.223 47.7207C111.52 47.7207 108.689 46.7129 106.732 44.6973C104.107 42.2246 102.795 38.6621 102.795 34.0098C102.795 29.2637 104.107 25.7012 106.732 23.3223C108.689 21.3066 111.52 20.2988 115.223 20.2988C118.926 20.2988 121.756 21.3066 123.713 23.3223C126.326 25.7012 127.633 29.2637 127.633 34.0098Z" fill="white"/>
</svg>
