<svg width="128" height="46" viewBox="0 0 128 46" fill="none" xmlns="http://www.w3.org/2000/svg">
<rect width="128" height="46" fill="#D93125"/>
<path d="M28.8047 31V13.7266H32.3789V20.3125H39.1289V13.7266H42.7148V31H39.1289V23.2891H32.3789V31H28.8047ZM46.1719 13.7266H49.8398V24.3438C49.8398 25.5312 49.9805 26.3984 50.2617 26.9453C50.6992 27.9141 51.6523 28.3984 53.1211 28.3984C54.582 28.3984 55.5312 27.9141 55.9688 26.9453C56.25 26.3984 56.3906 25.5312 56.3906 24.3438V13.7266H60.0586V24.3438C60.0586 26.1797 59.7734 27.6094 59.2031 28.6328C58.1406 30.5078 56.1133 31.4453 53.1211 31.4453C50.1289 31.4453 48.0977 30.5078 47.0273 28.6328C46.457 27.6094 46.1719 26.1797 46.1719 24.3438V13.7266ZM74.9648 13.7266H80.1562V31H76.793V19.3164C76.793 18.9805 76.7969 18.5117 76.8047 17.9102C76.8125 17.3008 76.8164 16.832 76.8164 16.5039L73.5469 31H70.043L66.7969 16.5039C66.7969 16.832 66.8008 17.3008 66.8086 17.9102C66.8164 18.5117 66.8203 18.9805 66.8203 19.3164V31H63.457V13.7266H68.707L71.8477 27.3086L74.9648 13.7266ZM91.1484 28.4219C92.5781 28.4219 93.7109 27.8945 94.5469 26.8398C95.3906 25.7852 95.8125 24.2852 95.8125 22.3398C95.8125 20.4023 95.3906 18.9062 94.5469 17.8516C93.7109 16.7891 92.5781 16.2578 91.1484 16.2578C89.7188 16.2578 88.5781 16.7852 87.7266 17.8398C86.875 18.8945 86.4492 20.3945 86.4492 22.3398C86.4492 24.2852 86.875 25.7852 87.7266 26.8398C88.5781 27.8945 89.7188 28.4219 91.1484 28.4219ZM99.4219 22.3398C99.4219 25.4414 98.5508 27.8164 96.8086 29.4648C95.5039 30.8086 93.6172 31.4805 91.1484 31.4805C88.6797 31.4805 86.793 30.8086 85.4883 29.4648C83.7383 27.8164 82.8633 25.4414 82.8633 22.3398C82.8633 19.1758 83.7383 16.8008 85.4883 15.2148C86.793 13.8711 88.6797 13.1992 91.1484 13.1992C93.6172 13.1992 95.5039 13.8711 96.8086 15.2148C98.5508 16.8008 99.4219 19.1758 99.4219 22.3398Z" fill="white"/>
</svg>
