<svg width="466" height="449" viewBox="0 0 466 449" fill="none" xmlns="http://www.w3.org/2000/svg">
<path d="M410.748 56.9883L396.067 13.9217L382.195 18.6505C378.389 19.9478 375.263 21.9817 372.818 24.7521C370.366 27.5029 368.83 30.7448 368.21 34.4779C367.563 38.1981 367.895 42.0137 369.206 45.9248L369.882 47.9066C371.226 51.8504 373.271 55.1043 376.016 57.6683C378.734 60.2193 381.914 61.8646 385.556 62.6041C389.171 63.3307 392.846 63.0686 396.579 61.8179L410.748 56.9883ZM388.417 25.4765L397.643 52.5411L394.035 53.7712C391.057 54.7862 388.41 54.5109 386.093 52.9454C383.77 51.3602 381.896 48.4774 380.471 44.297L379.836 42.4335C378.418 38.2728 378.147 34.8652 379.025 32.2108C379.903 29.5564 381.871 27.7082 384.927 26.6663L388.417 25.4765ZM328.077 62.124C329.509 66.3242 331.555 69.7757 334.215 72.4786C336.875 75.1815 339.944 76.9198 343.421 77.6934C346.872 78.454 350.431 78.2092 354.099 76.9589C357.767 75.7087 360.735 73.7615 363.003 71.1174C365.264 68.4536 366.659 65.2818 367.188 61.602C367.697 57.9289 367.298 54.0479 365.992 49.9588L365.166 47.5334C363.727 43.3135 361.691 39.8586 359.057 37.1687C356.397 34.4658 353.328 32.7275 349.851 31.9539C346.354 31.187 342.762 31.432 339.074 32.689C335.426 33.9326 332.468 35.9093 330.201 38.6193C327.933 41.3292 326.558 44.5602 326.076 48.3122C325.568 52.0511 326.01 55.9945 327.402 60.1422L328.077 62.124ZM338.022 56.7201C336.563 52.4411 336.177 48.9519 336.864 46.2527C337.524 43.5405 339.185 41.7306 341.847 40.8232C347.053 39.0486 351.135 42.0153 354.092 49.7232L355.201 52.8781C356.639 57.098 357.045 60.5804 356.418 63.3254C355.791 66.0703 354.097 67.9133 351.336 68.8544C348.714 69.7484 346.313 69.3232 344.133 67.579C341.954 65.8347 340.142 62.8756 338.697 58.7019L338.022 56.7201ZM293.793 96.8556L304.116 93.3367L310.244 61.3357L319.379 88.134L329.761 84.5949L315.081 41.5283L304.699 45.0674L298.6 77.0583L289.465 50.26L279.113 53.789L293.793 96.8556ZM267.121 88.0533L272.973 91.2748L276.845 102.633L287.227 99.094L272.546 56.0274L262.164 59.5664L268.637 78.556L263.164 74.314L249.268 63.9625L236.431 68.3384L257.477 82.4264L251.111 111.405L263.416 107.211L267.121 88.0533ZM215.548 103.157L231.876 97.5914L235.374 107.855L216.089 114.429L218.811 122.415L248.479 112.302L233.798 69.2358L204.072 79.369L206.804 87.3848L226.149 80.7907L229.244 89.8714L212.917 95.4371L215.548 103.157ZM193.397 114.109L199.017 112.193L204.2 127.396L214.582 123.857L199.901 80.7907L182.953 86.5681C177.845 88.3091 174.239 90.8041 172.133 94.0532C170.027 97.3023 169.68 100.997 171.091 105.138C172.113 108.136 173.571 110.412 175.466 111.967C177.341 113.529 179.778 114.481 182.778 114.823L179.705 135.251L179.856 135.694L190.978 131.903L193.397 114.109ZM196.285 104.177L189.718 106.415C187.746 107.088 186.092 107.079 184.757 106.39C183.395 105.687 182.398 104.41 181.766 102.556C181.134 100.702 181.143 99.0815 181.793 97.6936C182.435 96.286 183.733 95.2494 185.685 94.584L192.251 92.3456L196.285 104.177Z" fill="#EE4540" fill-opacity="0.7"/>
<path d="M411.359 52.6927L388.379 13.4223L375.729 20.8246C372.259 22.8554 369.602 25.4721 367.759 28.6748C365.905 31.8596 365.047 35.3429 365.184 39.1247C365.293 42.8991 366.38 46.5717 368.445 50.1424L369.503 51.9495C371.607 55.5457 374.26 58.3261 377.462 60.2907C380.634 62.2478 384.079 63.2253 387.795 63.2232C391.483 63.2136 395.031 62.2235 398.44 60.2528L411.359 52.6927ZM383.189 26.2714L397.631 50.9503L394.34 52.8758C391.625 54.4646 388.976 54.7232 386.394 53.6516C383.801 52.5619 381.389 50.1111 379.159 46.2991L378.164 44.5999C375.944 40.806 374.999 37.5209 375.33 34.7446C375.661 31.9684 377.219 29.7648 380.006 28.1339L383.189 26.2714ZM331.376 74.2241C333.618 78.054 336.311 81.0278 339.457 83.1454C342.604 85.263 345.957 86.3539 349.519 86.418C353.052 86.4746 356.491 85.5243 359.836 83.5672C363.18 81.6101 365.7 79.1098 367.395 76.0662C369.079 73.0047 369.813 69.6183 369.596 65.9071C369.362 62.2063 368.197 58.4829 366.101 54.7367L364.807 52.5251C362.555 48.6771 359.87 45.6981 356.753 43.5879C353.607 41.4703 350.253 40.3795 346.691 40.3154C343.111 40.2618 339.64 41.2188 336.278 43.1865C332.952 45.1331 330.448 47.6604 328.766 50.7684C327.085 53.8764 326.383 57.3167 326.659 61.0894C326.907 64.8546 328.127 68.6305 330.319 72.417L331.376 74.2241ZM340.043 66.9442C337.759 63.0424 336.685 59.7005 336.819 56.9185C336.924 54.129 338.191 52.0241 340.618 50.6036C345.365 47.8258 349.957 49.9182 354.393 56.8808L356.109 59.7509C358.361 63.5989 359.454 66.9303 359.387 69.7451C359.32 72.56 358.028 74.704 355.511 76.1771C353.12 77.5765 350.682 77.6391 348.198 76.3649C345.715 75.0906 343.349 72.5528 341.1 68.7513L340.043 66.9442ZM304.714 115.099L314.127 109.591L313.745 77.0106L328.044 101.447L337.511 95.9068L314.531 56.6365L305.064 62.1764L305.473 94.7407L291.174 70.3047L281.734 75.8288L304.714 115.099ZM276.821 111.797L283.199 113.786L289.259 124.143L298.726 118.603L275.746 79.3326L266.279 84.8725L276.412 102.188L270.202 99.1239L254.52 91.7539L242.814 98.6038L266.248 108.208L265.794 137.874L277.014 131.308L276.821 111.797ZM229.301 136.89L244.189 128.177L249.665 137.536L232.08 147.827L236.342 155.109L263.394 139.279L240.414 100.008L213.307 115.871L217.585 123.18L235.224 112.858L240.069 121.138L225.181 129.85L229.301 136.89ZM209.781 152.042L214.905 149.043L223.018 162.906L232.485 157.366L209.504 118.096L194.05 127.14C189.393 129.865 186.357 133.029 184.942 136.634C183.526 140.238 183.924 143.928 186.133 147.704C187.733 150.437 189.616 152.376 191.783 153.522C193.932 154.678 196.51 155.124 199.518 154.861L200.584 175.491L200.82 175.896L210.962 169.961L209.781 152.042ZM210.628 141.734L204.64 145.237C202.842 146.29 201.22 146.611 199.774 146.202C198.299 145.786 197.067 144.733 196.078 143.043C195.089 141.352 194.774 139.762 195.134 138.273C195.483 136.765 196.547 135.491 198.327 134.449L204.315 130.945L210.628 141.734Z" fill="#EE4540" fill-opacity="0.6"/>
<path d="M414.093 52.6039L386.273 16.5995L374.676 25.5606C371.494 28.019 369.194 30.9544 367.776 34.3667C366.346 37.7626 365.941 41.3271 366.561 45.0603C367.152 48.7897 368.7 52.2928 371.206 55.5697L372.486 57.2265C375.034 60.5236 378.021 62.9414 381.447 64.4799C384.845 66.0146 388.386 66.543 392.071 66.0651C395.727 65.5834 399.119 64.1471 402.248 61.7561L414.093 52.6039ZM382.772 30.0073L400.254 52.6338L397.237 54.9648C394.748 56.8882 392.154 57.4839 389.456 56.7517C386.745 56.003 384.039 53.8812 381.339 50.3863L380.135 48.8284C377.447 45.3499 376.09 42.2128 376.062 39.4171C376.035 36.6214 377.298 34.2363 379.854 32.262L382.772 30.0073ZM337.526 84.1998C340.239 87.7112 343.291 90.3156 346.683 92.0129C350.074 93.7102 353.54 94.3627 357.081 93.9701C360.592 93.5739 363.881 92.1911 366.947 89.8219C370.013 87.4526 372.192 84.6502 373.483 81.4147C374.762 78.1627 375.056 74.7102 374.366 71.0572C373.66 67.417 372.027 63.8734 369.469 60.4264L367.902 58.3987C365.177 54.8708 362.133 52.26 358.77 50.5664C355.379 48.8691 351.913 48.2167 348.372 48.6092C344.815 49.0144 341.495 50.4081 338.413 52.7901C335.363 55.1466 333.203 57.9737 331.934 61.2714C330.664 64.5691 330.408 68.0711 331.166 71.7773C331.894 75.4797 333.587 79.0683 336.246 82.543L337.526 84.1998ZM345.188 75.8702C342.424 72.2928 340.931 69.116 340.707 66.3398C340.455 63.5598 341.442 61.31 343.667 59.5903C348.019 56.2275 352.841 57.7147 358.133 64.052L360.202 66.6788C362.928 70.2067 364.438 73.3708 364.732 76.171C365.027 78.9712 364.02 81.263 361.712 83.0463C359.519 84.7404 357.11 85.1146 354.483 84.1689C351.857 83.2232 349.185 81.0092 346.469 77.527L345.188 75.8702ZM316.317 128.152L324.947 121.484L320.396 89.2211L337.707 111.625L346.387 104.918L318.567 68.914L309.887 75.6205L314.463 107.864L297.152 85.4606L288.497 92.148L316.317 128.152ZM288.231 128.449L294.811 129.605L302.148 139.101L310.827 132.394L283.008 96.3897L274.328 103.096L286.595 118.972L280.043 116.728L263.547 111.427L252.814 119.719L277.286 126.244L280.634 155.724L290.921 147.775L288.231 128.449ZM244.315 159.42L257.965 148.873L264.595 157.454L248.472 169.912L253.631 176.588L278.433 157.424L250.614 121.42L225.762 140.622L230.94 147.323L247.112 134.828L252.978 142.419L239.328 152.966L244.315 159.42ZM226.896 176.947L231.594 173.317L241.415 186.027L250.095 179.321L222.275 143.316L208.106 154.264C203.836 157.563 201.23 161.091 200.288 164.846C199.346 168.602 200.212 172.211 202.887 175.673C204.823 178.179 206.939 179.861 209.235 180.72C211.515 181.591 214.129 181.704 217.079 181.057L220.777 201.381L221.063 201.752L230.361 194.568L226.896 176.947ZM226.416 166.615L220.926 170.857C219.278 172.131 217.71 172.658 216.223 172.437C214.708 172.213 213.351 171.326 212.154 169.777C210.956 168.227 210.44 166.69 210.606 165.167C210.759 163.627 211.651 162.227 213.284 160.966L218.773 156.724L226.416 166.615Z" fill="#EE4540" fill-opacity="0.5"/>
<path d="M411.343 43.7852L376.094 15.0145L366.827 26.3687C364.284 29.4837 362.709 32.8636 362.101 36.5083C361.476 40.1399 361.889 43.7036 363.338 47.1994C364.758 50.6981 367.059 53.7597 370.242 56.3842L371.864 57.7081C375.092 60.3428 378.549 62.0215 382.235 62.7442C385.891 63.4698 389.46 63.1827 392.942 61.8828C396.394 60.5859 399.372 58.4188 401.878 55.3816L411.343 43.7852ZM375.719 28.867L397.871 46.9475L395.46 49.9011C393.471 52.3382 391.08 53.5056 388.286 53.4034C385.475 53.2879 382.36 51.8339 378.938 49.0411L377.413 47.7962C374.007 45.0166 371.975 42.2684 371.315 39.5515C370.655 36.8346 371.346 34.2254 373.388 31.7237L375.719 28.867ZM343.919 91.8963C347.356 94.7023 350.919 96.548 354.607 97.4334C358.294 98.3188 361.818 98.1695 365.178 96.9855C368.508 95.8046 371.398 93.7131 373.849 90.7111C376.299 87.7091 377.787 84.4862 378.312 81.0423C378.821 77.5853 378.326 74.1559 376.826 70.754C375.314 67.3682 372.922 64.2862 369.65 61.5079L367.665 59.8876C364.211 57.0685 360.655 55.2147 356.996 54.3264C353.309 53.441 349.785 53.5902 346.425 54.7742C343.052 55.9743 340.134 58.0834 337.671 61.1015C335.234 64.0873 333.77 67.33 333.28 70.8295C332.791 74.329 333.334 77.798 334.911 81.2365C336.459 84.6779 338.92 87.7899 342.297 90.5724L343.919 91.8963ZM349.496 82.0482C345.994 79.1896 343.82 76.4334 342.974 73.7798C342.098 71.1292 342.55 68.7144 344.328 66.5355C347.806 62.2747 352.84 62.6315 359.428 67.6061L362.039 69.6962C365.493 72.5153 367.68 75.2553 368.601 77.9162C369.521 80.5771 369.06 83.0373 367.215 85.2968C365.463 87.4434 363.201 88.3534 360.429 88.0269C357.657 87.7003 354.553 86.1487 351.118 83.3721L349.496 82.0482ZM333.212 139.51L340.108 131.06L328.371 100.666L350.304 118.568L357.24 110.071L321.991 81.3001L315.055 89.7976L326.813 120.168L304.879 102.266L297.963 110.739L333.212 139.51ZM305.922 146.158L312.593 145.794L321.889 153.382L328.825 144.884L293.576 116.113L286.64 124.611L302.183 137.297L295.293 136.595L278.025 135.166L269.449 145.673L294.762 146.488L304.698 174.444L312.918 164.373L305.922 146.158ZM270.159 186.268L281.066 172.904L289.467 179.761L276.583 195.545L283.12 200.881L302.939 176.599L267.69 147.828L247.831 172.158L254.392 177.513L267.315 161.68L274.748 167.747L263.84 181.11L270.159 186.268ZM257.16 207.283L260.915 202.683L273.358 212.84L280.294 204.343L245.045 175.572L233.723 189.444C230.311 193.624 228.571 197.65 228.504 201.521C228.437 205.392 230.098 208.711 233.487 211.478C235.94 213.48 238.382 214.64 240.813 214.956C243.231 215.289 245.802 214.807 248.529 213.509L256.733 232.468L257.096 232.765L264.526 223.662L257.16 207.283ZM254.354 197.328L249.967 202.703C248.65 204.317 247.242 205.185 245.744 205.307C244.217 205.432 242.695 204.875 241.178 203.637C239.661 202.398 238.81 201.019 238.627 199.497C238.427 197.963 238.979 196.397 240.283 194.799L244.67 189.424L254.354 197.328Z" fill="#EE4540" fill-opacity="0.4"/>
<path d="M413.523 38.8856L373.186 17.8342L366.405 30.8275C364.545 34.3921 363.685 38.0206 363.826 41.7131C363.948 45.396 365.073 48.8027 367.199 51.9333C369.297 55.0728 372.169 57.606 375.817 59.5329L377.673 60.5016C381.367 62.4294 385.092 63.3747 388.848 63.3373C392.576 63.3089 396.013 62.3062 399.159 60.3294C402.278 58.3615 404.757 55.637 406.598 52.1559L413.523 38.8856ZM375.619 31.4766L400.968 44.706L399.204 48.0859C397.749 50.8748 395.642 52.5016 392.885 52.9662C390.11 53.4212 386.765 52.627 382.849 50.5836L381.104 49.6727C377.207 47.6389 374.66 45.3583 373.465 42.8309C372.269 40.3035 372.419 37.6084 373.913 34.7457L375.619 31.4766ZM357.216 99.6331C361.15 101.686 365.012 102.774 368.802 102.895C372.593 103.017 376.013 102.158 379.065 100.32C382.087 98.49 384.495 95.8574 386.288 92.4221C388.081 88.9868 388.886 85.5297 388.705 82.0508C388.504 78.5622 387.326 75.3037 385.17 72.275C383.005 69.2649 380.039 66.7301 376.273 64.6706L374.001 63.485C370.049 61.4223 366.191 60.3257 362.429 60.1951C358.638 60.0734 355.218 60.9319 352.166 62.7706C349.106 64.6277 346.674 67.2832 344.872 70.737C343.089 74.1538 342.311 77.6254 342.538 81.1517C342.766 84.678 344 87.9655 346.239 91.0142C348.45 94.0717 351.49 96.6218 355.359 98.6644L357.216 99.6331ZM360.687 88.8608C356.679 86.7691 353.993 84.5094 352.628 82.0816C351.235 79.6626 351.189 77.2064 352.49 74.713C355.035 69.8371 360.037 69.1691 367.495 72.7091L370.474 74.2284C374.426 76.2912 377.122 78.5324 378.562 80.9522C380.002 83.372 380.047 85.8748 378.697 88.4605C377.415 90.9169 375.384 92.2655 372.603 92.5061C369.822 92.7467 366.469 91.8545 362.543 89.8295L360.687 88.8608ZM356.355 148.428L361.401 138.759L343.761 111.364L368.861 124.464L373.936 114.739L333.599 93.6881L328.524 103.412L346.178 130.779L321.078 117.68L316.018 127.376L356.355 148.428ZM330.972 160.455L337.432 158.75L348.07 164.302L353.145 154.578L312.808 133.527L307.733 143.251L325.519 152.533L318.63 153.238L301.429 155.33L295.154 167.353L320.109 163.034L335.491 188.405L341.506 176.88L330.972 160.455ZM304.055 206.966L312.036 191.674L321.65 196.691L312.223 214.754L319.703 218.658L334.205 190.87L293.867 169.819L279.337 197.662L286.844 201.58L296.3 183.461L304.805 187.9L296.824 203.193L304.055 206.966ZM295.573 230.176L298.32 224.912L312.56 232.343L317.635 222.619L277.298 201.568L269.013 217.442C266.517 222.226 265.627 226.52 266.344 230.325C267.06 234.13 269.358 237.045 273.237 239.069C276.044 240.534 278.67 241.176 281.115 240.995C283.549 240.832 285.971 239.84 288.379 238.018L300.246 254.927L300.661 255.144L306.097 244.727L295.573 230.176ZM290.813 220.994L287.603 227.144C286.639 228.991 285.436 230.126 283.993 230.548C282.523 230.979 280.92 230.741 279.184 229.835C277.447 228.929 276.336 227.75 275.848 226.297C275.343 224.835 275.567 223.189 276.521 221.361L279.731 215.21L290.813 220.994Z" fill="#EE4540" fill-opacity="0.3"/>
<path d="M418.109 45.8255L374.319 33.4719L370.339 47.5776C369.248 51.4474 369.148 55.1751 370.042 58.7607C370.915 62.3406 372.713 65.4453 375.434 68.0746C378.13 70.7184 381.461 72.6103 385.425 73.7503L387.44 74.3188C391.45 75.4501 395.29 75.6133 398.959 74.8083C402.602 74.0178 405.761 72.3331 408.437 69.7544C411.087 67.19 412.956 64.0159 414.045 60.232L418.109 45.8255ZM379.491 46.3279L407.011 54.0914L405.976 57.7607C405.122 60.7883 403.393 62.8116 400.789 63.8305C398.165 64.8437 394.728 64.7507 390.478 63.5516L388.583 63.017C384.352 61.8235 381.393 60.1121 379.706 57.8828C378.018 55.6534 377.613 52.9848 378.49 49.8769L379.491 46.3279ZM375.421 116.808C379.692 118.013 383.695 118.287 387.43 117.631C391.165 116.974 394.338 115.434 396.948 113.01C399.533 110.6 401.351 107.531 402.404 103.802C403.456 100.072 403.537 96.5233 402.647 93.1552C401.737 89.7814 399.917 86.8328 397.187 84.3093C394.452 81.8059 391.03 79.9315 386.922 78.6861L384.456 77.9903C380.165 76.7799 376.165 76.4956 372.456 77.1376C368.72 77.7939 365.548 79.3341 362.937 81.7581C360.321 84.2021 358.484 87.2989 357.427 91.0484C356.38 94.7578 356.329 98.315 357.273 101.72C358.218 105.125 360.098 108.091 362.913 110.617C365.704 113.157 369.201 115.032 373.406 116.239L375.421 116.808ZM376.616 105.553C372.265 104.326 369.173 102.663 367.34 100.566C365.481 98.4833 364.934 96.0885 365.698 93.3817C367.191 88.0883 371.95 86.4111 379.975 88.3503L383.202 89.2281C387.492 90.4386 390.59 92.0808 392.494 94.1549C394.398 96.229 394.955 98.6696 394.163 101.477C393.41 104.143 391.698 105.879 389.025 106.684C386.352 107.488 382.887 107.301 378.631 106.122L376.616 105.553ZM384.561 164.747L387.522 154.25L364.652 131.044L391.901 138.731L394.879 128.174L351.088 115.82L348.11 126.377L370.989 149.553L343.74 141.866L340.77 152.393L384.561 164.747ZM362.177 181.712L368.15 178.722L379.7 181.98L382.678 171.423L338.887 159.07L335.909 169.627L355.218 175.074L348.618 177.173L332.209 182.74L328.527 195.793L352.071 186.459L372.318 208.146L375.848 195.635L362.177 181.712ZM345.344 232.747L350.028 216.145L360.464 219.089L354.932 238.699L363.053 240.99L371.563 210.823L327.772 198.47L319.245 228.696L327.396 230.995L332.945 211.326L342.178 213.93L337.494 230.532L345.344 232.747ZM341.79 257.201L343.402 251.486L358.861 255.847L361.84 245.29L318.049 232.937L313.187 250.17C311.722 255.364 311.729 259.749 313.209 263.327C314.689 266.905 317.535 269.288 321.745 270.476C324.793 271.335 327.495 271.427 329.851 270.749C332.201 270.092 334.368 268.625 336.352 266.349L351.427 280.473L351.879 280.6L355.069 269.291L341.79 257.201ZM335.252 249.187L333.368 255.864C332.802 257.869 331.857 259.225 330.531 259.934C329.18 260.657 327.562 260.752 325.678 260.221C323.793 259.689 322.463 258.762 321.689 257.439C320.895 256.111 320.778 254.455 321.338 252.47L323.221 245.793L335.252 249.187Z" fill="#EE4540" fill-opacity="0.2"/>
<path d="M406.961 41.2485L361.554 38.3498L360.62 52.9763C360.364 56.9889 361.049 60.6546 362.674 63.9732C364.278 67.2905 366.687 69.9493 369.899 71.9497C373.089 73.9695 376.742 75.1213 380.857 75.4049L382.947 75.5382C387.105 75.8037 390.893 75.1583 394.312 73.6021C397.709 72.0654 400.445 69.7558 402.52 66.6735C404.574 63.6106 405.736 60.115 406.008 56.1869L406.961 41.2485ZM369.307 49.8358L397.842 51.6574L397.599 55.4622C397.399 58.6016 396.133 60.9424 393.801 62.4844C391.448 64.0252 388.067 64.6549 383.66 64.3735L381.695 64.248C377.308 63.968 374.056 62.9149 371.939 61.0888C369.822 59.2627 368.866 56.7384 369.072 53.5158L369.307 49.8358ZM380.103 119.603C384.531 119.886 388.503 119.314 392.017 117.89C395.532 116.465 398.311 114.294 400.355 111.376C402.377 108.478 403.512 105.096 403.759 101.229C404.006 97.3617 403.341 93.8748 401.765 90.768C400.168 87.66 397.77 85.1584 394.572 83.2633C391.372 81.389 387.634 80.2736 383.356 79.917L380.799 79.7537C376.35 79.4697 372.379 80.0303 368.886 81.4357C365.372 82.8605 362.592 85.0316 360.548 87.949C358.503 90.8871 357.356 94.3002 357.108 98.1881C356.862 102.034 357.558 105.523 359.195 108.655C360.832 111.786 363.292 114.292 366.575 116.172C369.836 118.071 373.648 119.17 378.013 119.469L380.103 119.603ZM378.911 108.348C374.399 108.06 371.028 107.083 368.796 105.416C366.542 103.769 365.505 101.542 365.684 98.7356C366.034 93.2468 370.336 90.6092 378.589 90.8229L381.928 91.0048C386.377 91.2888 389.75 92.2452 392.047 93.874C394.344 95.5028 395.399 97.7726 395.214 100.683C395.037 103.449 393.726 105.505 391.281 106.852C388.836 108.199 385.409 108.742 381 108.481L378.911 108.348ZM399.089 164.56L399.784 153.676L372.557 135.78L400.812 137.584L401.51 126.637L356.103 123.738L355.404 134.685L382.634 152.55L354.379 150.746L353.682 161.661L399.089 164.56ZM380.759 185.842L385.973 181.665L397.949 182.43L398.647 171.483L353.24 168.585L352.541 179.531L372.563 180.809L366.55 184.246L351.673 193.128L350.809 206.663L371.873 192.602L396.217 209.562L397.045 196.589L380.759 185.842ZM375 239.271L376.099 222.056L386.92 222.747L385.622 243.08L394.043 243.618L396.039 212.338L350.632 209.439L348.631 240.781L357.083 241.321L358.385 220.925L367.959 221.536L366.86 238.751L375 239.271ZM376.651 263.926L377.029 258.001L393.059 259.024L393.758 248.078L348.35 245.179L347.21 263.049C346.866 268.434 347.792 272.72 349.99 275.908C352.187 279.096 355.469 280.83 359.835 281.108C362.995 281.31 365.656 280.833 367.817 279.677C369.977 278.541 371.789 276.653 373.252 274.011L390.953 284.661L391.421 284.69L392.169 272.964L376.651 263.926ZM368.578 257.461L368.136 264.385C368.003 266.464 367.363 267.988 366.215 268.959C365.046 269.949 363.484 270.382 361.529 270.257C359.575 270.132 358.081 269.504 357.047 268.374C355.991 267.242 355.53 265.646 355.661 263.588L356.103 256.665L368.578 257.461Z" fill="#EE4540" fill-opacity="0.1"/>
<path d="M408.952 58.7351L401.051 13.9264L386.617 16.4714C382.658 17.1696 379.257 18.7 376.416 21.0626C373.571 23.4047 371.556 26.3726 370.37 29.9665C369.16 33.5434 368.903 37.3648 369.599 41.4308L369.963 43.4927C370.686 47.5961 372.208 51.1251 374.527 54.0798C376.822 57.0175 379.712 59.1311 383.197 60.4205C386.658 61.693 390.329 61.9976 394.211 61.3344L408.952 58.7351ZM391.719 24.1712L396.685 52.3305L392.93 52.9925C389.832 53.5388 387.259 52.8608 385.21 50.9585C383.157 49.0358 381.747 45.8996 380.98 41.55L380.638 39.6112C379.875 35.2821 380.131 31.8734 381.406 29.3851C382.68 26.8968 384.908 25.3722 388.088 24.8115L391.719 24.1712ZM326.472 51.1296C327.243 55.4997 328.735 59.2242 330.949 62.3031C333.163 65.3821 335.929 67.5705 339.246 68.8683C342.54 70.1492 346.094 70.4533 349.91 69.7804C353.727 69.1075 356.958 67.6386 359.605 65.3737C362.248 63.0883 364.113 60.168 365.2 56.6128C366.266 53.0612 366.468 49.165 365.804 44.924L365.359 42.4005C364.585 38.0099 363.103 34.2835 360.913 31.2215C358.699 28.1425 355.933 25.9541 352.616 24.6563C349.278 23.3621 345.691 23.0532 341.854 23.7298C338.058 24.399 334.832 25.8987 332.176 28.2287C329.519 30.5588 327.665 33.5406 326.613 37.1743C325.537 40.791 325.369 44.7555 326.108 49.0676L326.472 51.1296ZM337.128 47.315C336.343 42.8629 336.496 39.3558 337.589 36.7938C338.657 34.215 340.576 32.6813 343.346 32.1929C348.763 31.2379 352.341 34.7955 354.081 42.8659L354.693 46.1535C355.467 50.5441 355.334 54.0475 354.293 56.6638C353.252 59.2801 351.296 60.8415 348.424 61.3479C345.695 61.8291 343.387 61.0407 341.501 58.9828C339.615 56.9249 338.279 53.7229 337.491 49.377L337.128 47.315ZM287.267 80.1915L298.007 78.2977L308.971 47.6152L313.887 75.4976L324.689 73.5929L316.788 28.7841L305.986 30.6888L295.053 61.3659L290.137 33.4835L279.366 35.3828L287.267 80.1915ZM262.26 67.4021L267.549 71.4832L269.632 83.3009L280.435 81.3962L272.534 36.5875L261.731 38.4922L265.215 58.2499L260.457 53.2185L248.313 40.8581L234.957 43.2132L253.593 60.3626L242.858 88.022L255.66 85.7645L262.26 67.4021ZM208.981 74.4167L225.969 71.4213L227.852 82.1003L207.786 85.6384L209.251 93.9477L240.119 88.5049L232.218 43.6962L201.289 49.1498L202.759 57.4899L222.886 53.941L224.552 63.389L207.564 66.3844L208.981 74.4167ZM185.412 81.841L191.259 80.8099L194.048 96.6284L204.851 94.7237L196.95 49.915L179.315 53.0243C174.001 53.9613 170.055 55.8736 167.475 58.7612C164.896 61.6488 163.986 65.2469 164.746 69.5554C165.296 72.674 166.388 75.147 168.021 76.9744C169.635 78.8054 171.897 80.1199 174.809 80.9181L168.639 100.633L168.72 101.094L180.292 99.0541L185.412 81.841ZM189.789 72.4698L182.957 73.6745C180.905 74.0363 179.272 73.7742 178.058 72.8882C176.82 71.9853 176.031 70.5696 175.691 68.641C175.351 66.7124 175.608 65.1122 176.463 63.8403C177.314 62.5479 178.755 61.7226 180.786 61.3644L187.618 60.1597L189.789 72.4698Z" fill="#EE4540" fill-opacity="0.9"/>
<path d="M408.562 59V13.5H393.906C389.885 13.5 386.271 14.4167 383.062 16.25C379.854 18.0625 377.354 20.6354 375.562 23.9688C373.75 27.2812 372.833 31 372.812 35.125V37.2188C372.812 41.3854 373.698 45.125 375.469 48.4375C377.219 51.7292 379.698 54.3125 382.906 56.1875C386.094 58.0417 389.656 58.9792 393.594 59H408.562ZM397.594 21.9688V50.5625H393.781C390.635 50.5625 388.219 49.4479 386.531 47.2188C384.844 44.9688 384 41.6354 384 37.2188V35.25C384 30.8542 384.844 27.5417 386.531 25.3125C388.219 23.0833 390.677 21.9688 393.906 21.9688H397.594ZM328.656 37.1875C328.656 41.625 329.479 45.5521 331.125 48.9688C332.771 52.3854 335.115 55.0208 338.156 56.875C341.177 58.7083 344.625 59.625 348.5 59.625C352.375 59.625 355.812 58.7396 358.812 56.9688C361.812 55.1771 364.156 52.625 365.844 49.3125C367.51 46 368.385 42.1979 368.469 37.9062V35.3438C368.469 30.8854 367.656 26.9583 366.031 23.5625C364.385 20.1458 362.042 17.5104 359 15.6562C355.937 13.8021 352.458 12.875 348.562 12.875C344.708 12.875 341.271 13.7917 338.25 15.625C335.229 17.4583 332.885 20.0729 331.219 23.4688C329.531 26.8438 328.677 30.7188 328.656 35.0938V37.1875ZM339.812 35.2812C339.812 30.7604 340.573 27.3333 342.094 25C343.594 22.6458 345.75 21.4688 348.562 21.4688C354.062 21.4688 356.969 25.5938 357.281 33.8438L357.312 37.1875C357.312 41.6458 356.573 45.0729 355.094 47.4688C353.615 49.8646 351.417 51.0625 348.5 51.0625C345.729 51.0625 343.594 49.8854 342.094 47.5312C340.594 45.1771 339.833 41.7917 339.812 37.375V35.2812ZM285 59H295.906L312.031 30.6875V59H323V13.5H312.031L295.937 41.8125V13.5H285V59ZM262.594 42.0625L267.094 47V59H278.062V13.5H267.094V33.5625L263.281 27.7812L253.469 13.5H239.906L255.281 33.625L239.906 59H252.906L262.594 42.0625ZM208.906 39.7188H226.156V50.5625H205.781V59H237.125V13.5H205.719V21.9688H226.156V31.5625H208.906V39.7188ZM184.406 42.9375H190.344V59H201.312V13.5H183.406C178.01 13.5 173.792 14.6979 170.75 17.0938C167.708 19.4896 166.187 22.875 166.187 27.25C166.187 30.4167 166.833 33.0417 168.125 35.125C169.396 37.2083 171.396 38.8958 174.125 40.1875L164.625 58.5312V59H176.375L184.406 42.9375ZM190.344 34.4688H183.406C181.323 34.4688 179.76 33.9271 178.719 32.8438C177.656 31.7396 177.125 30.2083 177.125 28.25C177.125 26.2917 177.656 24.7604 178.719 23.6562C179.781 22.5312 181.344 21.9688 183.406 21.9688H190.344V34.4688Z" fill="#EE4540"/>
</svg>
