<svg width="403" height="449" viewBox="0 0 403 449" fill="none" xmlns="http://www.w3.org/2000/svg">
<path d="M418.8 85.9384L396.78 21.3385L375.971 28.4317C370.262 30.3777 365.574 33.4285 361.906 37.5842C358.228 41.7103 355.924 46.5732 354.993 52.1729C354.023 57.7531 354.522 63.4766 356.488 69.3432L357.502 72.3159C359.518 78.2316 362.585 83.1125 366.703 86.9585C370.78 90.7849 375.55 93.2529 381.013 94.3622C386.436 95.452 391.948 95.0589 397.548 93.1828L418.8 85.9384ZM385.305 38.6708L399.144 79.2676L393.731 81.1127C389.264 82.6352 385.294 82.2224 381.819 79.8742C378.334 77.4964 375.523 73.1721 373.386 66.9014L372.433 64.1062C370.305 57.8651 369.9 52.7538 371.217 48.7721C372.534 44.7905 375.485 42.0183 380.07 40.4555L385.305 38.6708ZM294.795 93.642C296.942 99.9422 300.011 105.12 304.001 109.174C307.992 113.228 312.595 115.836 317.811 116.996C322.987 118.137 328.326 117.77 333.827 115.894C339.329 114.019 343.781 111.098 347.183 107.132C350.576 103.136 352.668 98.3787 353.461 92.859C354.224 87.3494 353.626 81.5278 351.667 75.3942L350.427 71.7561C348.269 65.4262 345.215 60.2439 341.265 56.209C337.274 52.1546 332.671 49.5472 327.455 48.3868C322.21 47.2365 316.822 47.604 311.29 49.4895C305.818 51.3548 301.382 54.32 297.98 58.3849C294.578 62.4498 292.516 67.2963 291.793 72.9242C291.031 78.5327 291.693 84.4477 293.781 90.6693L294.795 93.642ZM309.711 85.5362C307.523 79.1176 306.944 73.8839 307.974 69.835C308.965 65.7667 311.456 63.0519 315.45 61.6907C323.258 59.0289 329.381 63.4789 333.817 75.0409L335.48 79.7731C337.638 86.103 338.246 91.3266 337.306 95.444C336.365 99.5614 333.824 102.326 329.683 103.738C325.749 105.079 322.148 104.441 318.879 101.824C315.61 99.208 312.892 94.7695 310.725 88.5089L309.711 85.5362ZM243.369 145.739L258.854 140.461L268.045 92.4595L281.747 132.657L297.321 127.348L275.3 62.7485L259.727 68.0571L250.58 116.043L236.877 75.846L221.348 81.1395L243.369 145.739ZM203.36 132.536L212.138 137.368L217.946 154.406L233.519 149.097L211.499 84.497L195.925 89.8056L205.635 118.29L197.424 111.927L176.581 96.3998L157.325 102.964L188.894 124.096L179.346 167.564L197.803 161.272L203.36 132.536ZM126.001 155.192L150.492 146.843L155.74 162.239L126.812 172.1L130.896 184.079L175.397 168.91L153.376 104.31L108.786 119.51L112.885 131.533L141.902 121.642L146.545 135.263L122.054 143.612L126.001 155.192ZM92.7744 171.619L101.204 168.745L108.978 191.55L124.551 186.242L102.531 121.642L77.1077 130.308C69.4468 132.92 64.0369 136.662 60.8779 141.536C57.7189 146.409 57.1981 151.952 59.3155 158.164C60.8481 162.659 63.0355 166.074 65.8776 168.407C68.6902 170.749 72.3465 172.177 76.8464 172.69L72.2364 203.332L72.4633 203.998L89.1457 198.311L92.7744 171.619ZM97.1057 156.722L87.256 160.079C84.2981 161.087 81.8176 161.075 79.8143 160.041C77.7714 158.987 76.2761 157.07 75.3283 154.29C74.3805 151.509 74.3937 149.078 75.3678 146.996C76.3319 144.885 78.278 143.33 81.2063 142.332L91.056 138.974L97.1057 156.722Z" fill="#EE4540" fill-opacity="0.7"/>
<path d="M425.027 79.4533L390.557 20.5478L371.583 31.6512C366.377 34.6973 362.392 38.6224 359.627 43.4265C356.847 48.2036 355.56 53.4286 355.765 59.1013C355.928 64.7629 357.559 70.2718 360.657 75.6279L362.243 78.3385C365.4 83.7328 369.379 87.9034 374.181 90.8503C378.941 93.786 384.107 95.2522 389.681 95.249C395.213 95.2347 400.535 93.7495 405.648 90.7934L425.027 79.4533ZM382.772 39.8214L404.435 76.8397L399.499 79.728C395.426 82.1112 391.453 82.4991 387.58 80.8916C383.691 79.2571 380.073 75.5809 376.727 69.863L375.235 67.3142C371.905 61.6232 370.488 56.6956 370.984 52.5312C371.48 48.3668 373.818 45.0614 377.999 42.6151L382.772 39.8214ZM305.054 111.75C308.415 117.495 312.456 121.956 317.175 125.132C321.894 128.309 326.925 129.945 332.268 130.041C337.567 130.126 342.726 128.701 347.742 125.765C352.759 122.829 356.539 119.079 359.081 114.514C361.607 109.921 362.708 104.842 362.383 99.2749C362.032 93.7238 360.284 88.1386 357.141 82.5193L355.199 79.2019C351.822 73.43 347.795 68.9614 343.118 65.7962C338.399 62.6197 333.368 60.9834 328.026 60.8873C322.656 60.807 317.45 62.2425 312.406 65.194C307.416 68.1139 303.66 71.9048 301.138 76.5668C298.617 81.2289 297.563 86.3894 297.978 92.0484C298.35 97.6962 300.18 103.36 303.467 109.04L305.054 111.75ZM318.053 100.831C314.628 94.9778 313.016 89.965 313.217 85.792C313.376 81.6078 315.275 78.4504 318.916 76.3197C326.037 72.1529 332.924 75.2915 339.579 85.7355L342.153 90.0407C345.53 95.8126 347.169 100.81 347.069 105.032C346.969 109.254 345.031 112.47 341.255 114.68C337.668 116.779 334.012 116.873 330.287 114.962C326.561 113.05 323.012 109.243 319.639 103.541L318.053 100.831ZM265.06 173.063L279.18 164.8L278.606 115.93L300.055 152.584L314.256 144.275L279.786 85.369L265.585 93.6788L266.199 142.525L244.75 105.871L230.59 114.157L265.06 173.063ZM223.221 168.11L232.787 171.093L241.878 186.629L256.079 178.319L221.608 119.413L207.408 127.723L222.607 153.696L213.291 149.1L189.769 138.045L172.21 148.32L207.362 162.726L206.68 207.225L223.511 197.377L223.221 168.11ZM151.94 205.749L174.272 192.68L182.487 206.719L156.109 222.155L162.501 233.078L203.08 209.333L168.609 150.427L127.95 174.22L134.366 185.184L160.825 169.701L168.093 182.121L145.761 195.189L151.94 205.749ZM122.66 228.477L130.347 223.979L142.516 244.773L156.716 236.464L122.246 177.558L99.0637 191.124C92.0782 195.212 87.524 199.959 85.4012 205.365C83.2785 210.771 83.8743 216.306 87.1887 221.97C89.5878 226.069 92.4126 228.978 95.6631 230.697C98.8867 232.431 102.754 233.101 107.266 232.705L108.864 263.651L109.219 264.258L124.431 255.356L122.66 228.477ZM123.931 213.015L114.949 218.27C112.252 219.849 109.819 220.331 107.65 219.718C105.438 219.093 103.59 217.513 102.106 214.978C100.623 212.443 100.15 210.058 100.689 207.824C101.213 205.562 102.809 203.65 105.48 202.088L114.461 196.832L123.931 213.015Z" fill="#EE4540" fill-opacity="0.6"/>
<path d="M431.075 77.394L389.346 23.3873L371.95 36.829C367.177 40.5166 363.727 44.9197 361.601 50.0382C359.455 55.1321 358.847 60.4788 359.778 66.0786C360.664 71.6727 362.987 76.9274 366.745 81.8427L368.665 84.3279C372.487 89.2736 376.967 92.9002 382.107 95.208C387.203 97.5101 392.515 98.3027 398.043 97.5858C403.527 96.8632 408.615 94.7087 413.308 91.1223L431.075 77.394ZM384.094 43.4991L410.318 77.4388L405.792 80.9353C402.058 83.8205 398.168 84.7139 394.12 83.6156C390.054 82.4926 385.995 79.3099 381.944 74.0675L380.139 71.7307C376.107 66.513 374.071 61.8074 374.029 57.6138C373.988 53.4202 375.884 49.8426 379.717 46.8811L384.094 43.4991ZM316.225 124.788C320.295 130.055 324.873 133.961 329.96 136.507C335.047 139.053 340.246 140.032 345.557 139.443C350.824 138.849 355.757 136.775 360.357 133.221C364.956 129.667 368.224 125.463 370.161 120.61C372.079 115.732 372.52 110.553 371.485 105.074C370.426 99.6136 367.977 94.2982 364.14 89.1277L361.79 86.0861C357.701 80.7942 353.135 76.8781 348.092 74.3377C343.005 71.7917 337.806 70.8131 332.495 71.4019C327.159 72.0098 322.179 74.1002 317.555 77.6732C312.98 81.208 309.741 85.4486 307.837 90.3952C305.933 95.3418 305.549 100.595 306.685 106.154C307.777 111.708 310.317 117.091 314.305 122.303L316.225 124.788ZM327.719 112.293C323.573 106.927 321.332 102.162 320.997 97.9978C320.619 93.8278 322.098 90.4531 325.437 87.8736C331.965 82.8294 339.198 85.0602 347.135 94.5661L350.239 98.5063C354.328 103.798 356.593 108.544 357.034 112.745C357.476 116.945 355.966 120.383 352.504 123.058C349.215 125.599 345.601 126.16 341.661 124.741C337.722 123.323 333.714 120.002 329.639 114.779L327.719 112.293ZM284.412 190.717L297.357 180.714L290.53 132.32L316.497 165.926L329.516 155.866L287.787 101.859L274.767 111.919L281.631 160.285L255.665 126.679L242.682 136.71L284.412 190.717ZM242.282 191.162L252.152 192.896L263.158 207.139L276.177 197.079L234.448 143.073L221.428 153.132L239.828 176.946L230.001 173.58L205.256 165.628L189.158 178.067L225.865 187.854L230.887 232.074L246.318 220.151L242.282 191.162ZM176.408 237.618L196.883 221.798L206.828 234.669L182.644 253.356L190.382 263.371L227.586 234.624L185.857 180.618L148.579 209.421L156.346 219.473L180.604 200.729L189.403 212.117L168.928 227.937L176.408 237.618ZM150.279 263.909L157.327 258.463L172.058 277.529L185.078 267.469L143.349 213.462L122.095 229.885C115.69 234.833 111.781 240.124 110.368 245.758C108.955 251.391 110.255 256.804 114.267 261.997C117.171 265.756 120.345 268.279 123.789 269.568C127.208 270.875 131.13 271.044 135.554 270.074L141.101 300.56L141.531 301.116L155.478 290.34L150.279 263.909ZM149.56 248.411L141.326 254.774C138.853 256.684 136.501 257.474 134.271 257.144C131.998 256.808 129.963 255.477 128.167 253.153C126.371 250.829 125.597 248.524 125.845 246.239C126.075 243.929 127.413 241.828 129.861 239.937L138.096 233.574L149.56 248.411Z" fill="#EE4540" fill-opacity="0.5"/>
<path d="M433.498 64.0865L380.624 20.9304L366.723 37.9617C362.909 42.6342 360.546 47.704 359.634 53.1711C358.697 58.6185 359.315 63.964 361.489 69.2077C363.62 74.4558 367.072 79.0482 371.845 82.9849L374.278 84.9708C379.12 88.9228 384.306 91.4408 389.835 92.5249C395.32 93.6134 400.673 93.1827 405.895 91.2329C411.073 89.2875 415.541 86.0368 419.3 81.481L433.498 64.0865ZM380.062 41.7092L413.289 68.8299L409.673 73.2603C406.689 76.9159 403.102 78.667 398.911 78.5137C394.696 78.3405 390.022 76.1594 384.89 71.9703L382.602 70.1029C377.494 65.9335 374.445 61.8112 373.455 57.7359C372.465 53.6606 373.501 49.7467 376.564 45.9942L380.062 41.7092ZM332.36 136.253C337.517 140.462 342.861 143.231 348.392 144.559C353.924 145.887 359.209 145.663 364.249 143.887C369.245 142.115 373.58 138.978 377.256 134.475C380.931 129.972 383.163 125.138 383.95 119.972C384.714 114.787 383.971 109.642 381.722 104.54C379.454 99.461 375.865 94.838 370.957 90.6705L367.98 88.24C362.799 84.0114 357.465 81.2307 351.977 79.8982C346.446 78.5701 341.16 78.794 336.121 80.5699C331.061 82.3701 326.684 85.5337 322.989 90.0609C319.333 94.5397 317.138 99.4037 316.403 104.653C315.668 109.902 316.484 115.106 318.849 120.263C321.17 125.425 324.863 130.093 329.927 134.267L332.36 136.253ZM340.727 121.481C335.473 117.193 332.212 113.059 330.943 109.078C329.63 105.102 330.308 101.48 332.975 98.212C338.192 91.8206 345.742 92.3559 355.625 99.8178L359.541 102.953C364.721 107.182 368.002 111.292 369.383 115.283C370.765 119.274 370.072 122.965 367.306 126.354C364.677 129.574 361.284 130.939 357.126 130.449C352.967 129.959 348.312 127.632 343.16 123.467L340.727 121.481ZM316.3 207.673L326.645 194.999L309.039 149.407L341.939 176.261L352.343 163.515L299.469 120.359L289.066 133.105L306.702 178.661L273.801 151.807L263.427 164.517L316.3 207.673ZM275.366 217.645L285.372 217.099L299.317 228.481L309.72 215.735L256.847 172.579L246.443 185.325L269.757 204.354L259.423 203.301L233.52 201.158L220.656 216.918L258.625 218.14L273.53 260.074L285.86 244.968L275.366 217.645ZM221.721 277.81L238.082 257.765L250.683 268.05L231.358 291.727L241.163 299.73L270.892 263.306L218.018 220.15L188.23 256.646L198.071 264.679L217.456 240.929L228.604 250.029L212.243 270.074L221.721 277.81ZM202.223 309.333L207.855 302.434L226.52 317.669L236.924 304.923L184.05 261.766L167.067 282.574C161.949 288.845 159.339 294.883 159.238 300.69C159.138 306.497 161.629 311.476 166.713 315.625C170.393 318.629 174.056 320.368 177.702 320.843C181.328 321.342 185.186 320.619 189.276 318.673L201.582 347.111L202.126 347.555L213.271 333.901L202.223 309.333ZM198.014 294.401L191.433 302.463C189.457 304.884 187.346 306.186 185.099 306.369C182.808 306.556 180.525 305.721 178.249 303.864C175.974 302.006 174.698 299.937 174.423 297.655C174.123 295.353 174.952 293.004 176.908 290.607L183.488 282.545L198.014 294.401Z" fill="#EE4540" fill-opacity="0.4"/>
<path d="M439.324 54.2894L378.818 22.7123L368.647 42.2022C365.856 47.549 364.567 52.9919 364.778 58.5307C364.962 64.055 366.648 69.1651 369.837 73.861C372.984 78.5701 377.293 82.3699 382.764 85.2604L385.549 86.7134C391.089 89.6051 396.677 91.0229 402.311 90.967C407.902 90.9242 413.058 89.4203 417.778 86.4551C422.456 83.5032 426.175 79.4164 428.935 74.1948L439.324 54.2894ZM382.467 43.1758L420.491 63.0199L417.845 68.0898C415.662 72.2731 412.503 74.7133 408.367 75.4103C404.204 76.0928 399.186 74.9015 393.313 71.8363L390.695 70.47C384.849 67.4193 381.03 63.9984 379.237 60.2073C377.443 56.4162 377.667 52.3736 379.908 48.0795L382.467 43.1758ZM354.863 145.411C360.764 148.49 366.557 150.121 372.243 150.304C377.928 150.486 383.059 149.199 387.636 146.441C392.17 143.696 395.782 139.747 398.471 134.594C401.161 129.441 402.369 124.255 402.096 119.037C401.796 113.804 400.028 108.916 396.795 104.374C393.546 99.8583 389.097 96.0561 383.448 92.9669L380.041 91.1885C374.112 88.0944 368.326 86.4494 362.682 86.2537C356.997 86.0711 351.866 87.3588 347.289 90.1168C342.698 92.9026 339.051 96.8858 336.347 102.066C333.672 107.192 332.505 112.399 332.847 117.688C333.188 122.978 335.039 127.909 338.398 132.482C341.715 137.068 346.275 140.894 352.078 143.958L354.863 145.411ZM360.07 129.252C354.058 126.115 350.029 122.725 347.981 119.083C345.892 115.455 345.823 111.771 347.775 108.03C351.592 100.717 359.094 99.7146 370.282 105.025L374.75 107.304C380.679 110.398 384.723 113.76 386.882 117.389C389.042 121.019 389.109 124.773 387.085 128.652C385.162 132.336 382.115 134.359 377.943 134.72C373.772 135.081 368.742 133.743 362.854 130.705L360.07 129.252ZM353.571 218.603L361.14 204.099L334.681 163.007L372.331 182.656L379.943 168.07L319.438 136.493L311.825 151.079L338.306 192.13L300.656 172.481L293.065 187.025L353.571 218.603ZM315.498 236.644L325.187 234.086L341.144 242.414L348.757 227.828L288.251 196.251L280.639 210.837L307.318 224.761L296.984 225.818L271.183 228.956L261.77 246.991L299.203 240.512L322.276 278.568L331.298 261.281L315.498 236.644ZM275.122 306.411L287.093 283.472L301.513 290.997L287.373 318.092L298.593 323.947L320.346 282.267L259.84 250.69L238.044 292.453L249.306 298.331L263.49 271.153L276.247 277.811L264.276 300.75L275.122 306.411ZM262.399 341.224L266.52 333.329L287.88 344.476L295.492 329.89L234.986 298.313L222.559 322.125C218.815 329.3 217.48 335.741 218.555 341.449C219.63 347.156 223.076 351.528 228.894 354.565C233.105 356.762 237.044 357.725 240.711 357.453C244.363 357.209 247.995 355.721 251.607 352.988L269.408 378.352L270.031 378.677L278.185 363.052L262.399 341.224ZM255.258 327.451L250.443 336.677C248.998 339.447 247.193 341.149 245.029 341.783C242.824 342.429 240.419 342.073 237.815 340.714C235.21 339.355 233.543 337.586 232.812 335.406C232.053 333.213 232.39 330.745 233.821 328.002L238.636 318.776L255.258 327.451Z" fill="#EE4540" fill-opacity="0.3"/>
<path d="M446.516 55.6249L380.83 37.0945L374.861 58.2531C373.223 64.0578 373.074 69.6493 374.415 75.0277C375.725 80.3976 378.421 85.0545 382.503 88.9986C386.547 92.9643 391.542 95.8022 397.489 97.5122L400.512 98.3649C406.527 100.062 412.286 100.307 417.79 99.0991C423.254 97.9133 427.993 95.3864 432.007 91.5182C435.982 87.6717 438.786 82.9105 440.42 77.2346L446.516 55.6249ZM388.588 56.3786L429.868 68.0237L428.315 73.5277C427.034 78.0692 424.441 81.1041 420.535 82.6324C416.6 84.1522 411.444 84.0127 405.068 82.214L402.226 81.4122C395.88 79.622 391.441 77.0548 388.91 73.7108C386.379 70.3668 385.772 66.3639 387.087 61.7021L388.588 56.3786ZM382.483 162.099C388.89 163.906 394.894 164.317 400.497 163.333C406.1 162.348 410.859 160.038 414.774 156.402C418.651 152.787 421.379 148.183 422.957 142.589C424.535 136.995 424.657 131.672 423.322 126.619C421.957 121.559 419.228 117.136 415.133 113.351C411.029 109.596 405.897 106.784 399.735 104.916L396.036 103.872C389.6 102.056 383.599 101.63 378.035 102.593C372.432 103.578 367.673 105.888 363.758 109.524C359.834 113.19 357.078 117.835 355.492 123.459C353.922 129.023 353.845 134.359 355.262 139.467C356.678 144.575 359.498 149.023 363.722 152.812C367.907 156.623 373.153 159.434 379.461 161.246L382.483 162.099ZM384.275 145.216C377.748 143.375 373.111 140.882 370.362 137.736C367.574 134.612 366.753 131.019 367.898 126.959C370.138 119.019 377.277 116.503 389.314 119.412L394.154 120.729C400.59 122.545 405.237 125.008 408.093 128.119C410.949 131.23 411.784 134.891 410.596 139.102C409.467 143.102 406.898 145.705 402.889 146.912C398.879 148.119 393.682 147.838 387.298 146.069L384.275 145.216ZM396.194 234.006L400.635 218.262L366.329 183.452L407.202 194.983L411.67 179.148L345.983 160.617L341.516 176.452L375.835 211.217L334.962 199.686L330.507 215.476L396.194 234.006ZM362.617 259.455L371.577 254.97L388.901 259.857L393.368 244.022L327.682 225.491L323.215 241.327L352.178 249.497L342.279 252.647L317.666 260.996L312.142 280.576L347.458 266.576L377.829 299.106L383.123 280.339L362.617 259.455ZM337.368 336.007L344.393 311.104L360.048 315.52L351.75 344.935L363.931 348.371L376.696 303.121L311.01 284.591L298.219 329.931L310.445 333.38L318.769 303.875L332.619 307.782L325.593 332.685L337.368 336.007ZM332.037 372.687L334.455 364.116L357.644 370.657L362.111 354.822L296.425 336.292L289.132 362.142C286.935 369.932 286.946 376.51 289.166 381.877C291.386 387.244 295.654 390.818 301.97 392.6C306.541 393.89 310.594 394.026 314.128 393.01C317.653 392.024 320.904 389.824 323.88 386.41L346.493 407.595L347.17 407.786L351.955 390.823L332.037 372.687ZM322.229 360.667L319.404 370.682C318.555 373.69 317.137 375.725 315.149 376.787C313.122 377.872 310.695 378.015 307.868 377.217C305.041 376.42 303.047 375.029 301.885 373.046C300.694 371.054 300.518 368.569 301.358 365.591L304.184 355.576L322.229 360.667Z" fill="#EE4540" fill-opacity="0.2"/>
<path d="M436.791 44.875L368.68 40.5269L367.279 62.4666C366.895 68.4856 367.922 73.9841 370.359 78.962C372.766 83.938 376.379 87.9262 381.197 90.9268C385.983 93.9566 391.462 95.6842 397.635 96.1095L400.769 96.3096C407.006 96.7078 412.689 95.7397 417.817 93.4054C422.912 91.1003 427.016 87.636 430.129 83.0125C433.209 78.4181 434.953 73.1748 435.361 67.2825L436.791 44.875ZM380.309 57.7559L423.112 60.4884L422.748 66.1956C422.447 70.9047 420.548 74.4158 417.05 76.7289C413.52 79.04 408.45 79.9845 401.838 79.5625L398.891 79.3743C392.311 78.9542 387.433 77.3746 384.257 74.6355C381.081 71.8964 379.648 68.1099 379.956 63.2759L380.309 57.7559ZM396.503 162.406C403.145 162.831 409.103 161.974 414.375 159.837C419.646 157.699 423.816 154.443 426.882 150.067C429.915 145.72 431.617 140.646 431.987 134.845C432.357 129.045 431.36 123.814 428.996 119.154C426.601 114.492 423.004 110.74 418.207 107.897C413.408 105.086 407.8 103.413 401.383 102.878L397.547 102.633C390.873 102.207 384.917 103.048 379.678 105.156C374.406 107.293 370.237 110.55 367.171 114.926C364.103 119.333 362.383 124.452 362.01 130.284C361.642 136.054 362.686 141.287 365.141 145.985C367.597 150.682 371.287 154.44 376.211 157.26C381.102 160.108 386.821 161.757 393.368 162.206L396.503 162.406ZM394.715 145.524C387.948 145.092 382.89 143.626 379.543 141.126C376.162 138.656 374.606 135.316 374.875 131.106C375.4 122.872 381.853 118.916 394.233 119.237L399.241 119.509C405.915 119.935 410.975 121.37 414.42 123.813C417.865 126.256 419.448 129.661 419.169 134.027C418.904 138.175 416.938 141.259 413.271 143.28C409.603 145.3 404.463 146.115 397.849 145.724L394.715 145.524ZM424.983 229.842L426.025 213.516L385.184 186.672L427.566 189.378L428.614 172.958L360.503 168.61L359.455 185.03L400.299 211.827L357.917 209.121L356.872 225.494L424.983 229.842ZM397.487 261.765L405.308 255.5L423.272 256.647L424.32 240.227L356.209 235.879L355.161 252.299L385.193 254.216L376.175 259.371L353.858 272.695L352.562 292.997L384.158 271.905L420.674 297.345L421.916 277.885L397.487 261.765ZM388.848 341.908L390.497 316.086L406.729 317.122L404.782 347.623L417.413 348.429L420.408 301.509L352.297 297.161L349.295 344.174L361.973 344.984L363.926 314.39L378.287 315.307L376.639 341.129L388.848 341.908ZM391.325 378.891L391.893 370.003L415.937 371.538L416.986 355.119L348.874 350.77L347.163 377.575C346.647 385.653 348.038 392.082 351.333 396.864C354.629 401.647 359.552 404.247 366.101 404.665C370.841 404.967 374.832 404.252 378.074 402.517C381.315 400.814 384.032 397.981 386.226 394.019L412.778 409.993L413.48 410.038L414.603 392.449L391.325 378.891ZM379.215 369.194L378.552 379.579C378.353 382.698 377.393 384.985 375.672 386.441C373.917 387.926 371.574 388.575 368.643 388.388C365.711 388.2 363.47 387.259 361.919 385.563C360.336 383.865 359.643 381.472 359.84 378.385L360.503 367.999L379.215 369.194Z" fill="#EE4540" fill-opacity="0.1"/>
<path d="M412.469 88.5778L400.617 21.3647L378.967 25.1822C373.027 26.2295 367.927 28.5252 363.665 32.0691C359.397 35.5822 356.375 40.0341 354.596 45.4248C352.782 50.7902 352.396 56.5223 353.44 62.6213L353.985 65.7142C355.07 71.8692 357.352 77.1628 360.831 81.5948C364.274 86.0014 368.609 89.1718 373.837 91.1059C379.028 93.0146 384.535 93.4716 390.357 92.4768L412.469 88.5778ZM386.62 36.7319L394.068 78.9709L388.436 79.9639C383.789 80.7833 379.929 79.7663 376.855 76.9129C373.776 74.0288 371.662 69.3245 370.511 62.8001L369.999 59.8919C368.854 53.3983 369.237 48.2853 371.149 44.5528C373.061 40.8203 376.403 38.5335 381.173 37.6924L386.62 36.7319ZM288.749 77.1695C289.905 83.7246 292.143 89.3114 295.464 93.9298C298.786 98.5483 302.934 101.831 307.91 103.778C312.85 105.699 318.182 106.155 323.907 105.146C329.631 104.136 334.478 101.933 338.448 98.5357C342.413 95.1076 345.211 90.7272 346.841 85.3944C348.44 80.067 348.742 74.2226 347.748 67.8612L347.08 64.0758C345.919 57.4899 343.696 51.9004 340.411 47.3073C337.089 42.6889 332.941 39.4063 327.965 37.4596C322.958 35.5183 317.577 35.055 311.822 36.0698C306.128 37.0737 301.289 39.3231 297.304 42.8182C293.32 46.3133 290.538 50.786 288.961 56.2365C287.347 61.6617 287.095 67.6084 288.203 74.0766L288.749 77.1695ZM304.732 71.4477C303.555 64.7694 303.786 59.5088 305.424 55.6659C307.027 51.7976 309.906 49.4971 314.06 48.7645C322.185 47.3319 327.553 52.6684 330.163 64.774L331.08 69.7053C332.241 76.2912 332.042 81.5464 330.481 85.4708C328.92 89.3953 325.985 91.7373 321.676 92.4971C317.583 93.2188 314.122 92.0362 311.293 88.9493C308.464 85.8624 306.459 81.0595 305.278 74.5406L304.732 71.4477ZM229.941 120.762L246.052 117.922L262.497 71.898L269.872 113.722L286.075 110.864L274.223 43.6513L258.02 46.5084L241.621 92.5239L234.246 50.7004L218.089 53.5493L229.941 120.762ZM192.43 101.578L200.364 107.7L203.49 125.426L219.693 122.569L207.841 55.3563L191.638 58.2134L196.864 87.8499L189.726 80.3028L171.511 61.7623L151.476 65.295L179.43 91.0191L163.328 132.508L182.532 129.122L192.43 101.578ZM112.512 112.1L137.994 107.607L140.818 123.626L110.72 128.933L112.918 141.397L159.219 133.233L147.368 66.0194L100.974 74.1999L103.18 86.71L133.371 81.3866L135.869 95.5586L110.388 100.052L112.512 112.1ZM77.1588 123.237L85.9297 121.69L90.1135 145.418L106.317 142.561L94.4652 75.3476L68.0139 80.0116C60.0431 81.4171 54.1232 84.2855 50.254 88.617C46.3849 92.9484 45.0201 98.3455 46.1597 104.808C46.9845 109.486 48.6223 113.196 51.073 115.937C53.4929 118.683 56.8869 120.655 61.2549 121.852L51.9994 151.424L52.1215 152.117L69.4787 149.056L77.1588 123.237ZM83.7238 109.18L73.4757 110.987C70.3982 111.53 67.9489 111.136 66.128 109.807C64.2708 108.453 63.0872 106.329 62.5771 103.437C62.067 100.544 62.453 98.1434 63.7349 96.2355C65.0114 94.2969 67.173 93.059 70.2198 92.5218L80.4679 90.7147L83.7238 109.18Z" fill="#EE4540" fill-opacity="0.9"/>
<path d="M406.844 89V20.75H384.859C378.828 20.75 373.406 22.125 368.594 24.875C363.781 27.5938 360.031 31.4531 357.344 36.4531C354.625 41.4219 353.25 47 353.219 53.1875V56.3281C353.219 62.5781 354.547 68.1875 357.203 73.1562C359.828 78.0938 363.547 81.9688 368.359 84.7812C373.141 87.5625 378.484 88.9688 384.391 89H406.844ZM390.391 33.4531V76.3438H384.672C379.953 76.3438 376.328 74.6719 373.797 71.3281C371.266 67.9531 370 62.9531 370 56.3281V53.375C370 46.7812 371.266 41.8125 373.797 38.4688C376.328 35.125 380.016 33.4531 384.859 33.4531H390.391ZM286.984 56.2812C286.984 62.9375 288.219 68.8281 290.688 73.9531C293.156 79.0781 296.672 83.0312 301.234 85.8125C305.766 88.5625 310.938 89.9375 316.75 89.9375C322.562 89.9375 327.719 88.6094 332.219 85.9531C336.719 83.2656 340.234 79.4375 342.766 74.4688C345.266 69.5 346.578 63.7969 346.703 57.3594V53.5156C346.703 46.8281 345.484 40.9375 343.047 35.8438C340.578 30.7188 337.062 26.7656 332.5 23.9844C327.906 21.2031 322.688 19.8125 316.844 19.8125C311.062 19.8125 305.906 21.1875 301.375 23.9375C296.844 26.6875 293.328 30.6094 290.828 35.7031C288.297 40.7656 287.016 46.5781 286.984 53.1406V56.2812ZM303.719 53.4219C303.719 46.6406 304.859 41.5 307.141 38C309.391 34.4688 312.625 32.7031 316.844 32.7031C325.094 32.7031 329.453 38.8906 329.922 51.2656L329.969 56.2812C329.969 62.9688 328.859 68.1094 326.641 71.7031C324.422 75.2969 321.125 77.0938 316.75 77.0938C312.594 77.0938 309.391 75.3281 307.141 71.7969C304.891 68.2656 303.75 63.1875 303.719 56.5625V53.4219ZM221.5 89H237.859L262.047 46.5312V89H278.5V20.75H262.047L237.906 63.2188V20.75H221.5V89ZM187.891 63.5938L194.641 71V89H211.094V20.75H194.641V50.8438L188.922 42.1719L174.203 20.75H153.859L176.922 50.9375L153.859 89H173.359L187.891 63.5938ZM107.359 60.0781H133.234V76.3438H102.672V89H149.688V20.75H102.578V33.4531H133.234V47.8438H107.359V60.0781ZM70.6094 64.9062H79.5156V89H95.9688V20.75H69.1094C61.0156 20.75 54.6875 22.5469 50.125 26.1406C45.5625 29.7344 43.2812 34.8125 43.2812 41.375C43.2812 46.125 44.25 50.0625 46.1875 53.1875C48.0938 56.3125 51.0938 58.8438 55.1875 60.7812L40.9375 88.2969V89H58.5625L70.6094 64.9062ZM79.5156 52.2031H69.1094C65.9844 52.2031 63.6406 51.3906 62.0781 49.7656C60.4844 48.1094 59.6875 45.8125 59.6875 42.875C59.6875 39.9375 60.4844 37.6406 62.0781 35.9844C63.6719 34.2969 66.0156 33.4531 69.1094 33.4531H79.5156V52.2031Z" fill="#EE4540"/>
</svg>
