<svg width="447" height="207" viewBox="0 0 447 207" fill="none" xmlns="http://www.w3.org/2000/svg">
<path d="M191.148 101.727V101.891C191.148 101.938 191.14 101.984 191.125 102.031C190.953 102.359 190.742 102.609 190.492 102.781C190.242 102.953 189.929 103.039 189.554 103.039C189.304 103.039 189.117 103.016 188.992 102.969C188.883 102.922 188.734 102.836 188.547 102.711C188.265 102.742 187.945 102.773 187.586 102.805C187.226 102.82 186.867 102.859 186.508 102.922C186.148 102.969 185.804 103.039 185.476 103.133C185.164 103.227 184.898 103.367 184.679 103.555C184.539 104.633 184.461 105.711 184.445 106.789C184.445 107.852 184.429 108.922 184.398 110C184.523 110.328 184.609 110.688 184.656 111.078C184.703 111.484 184.734 111.852 184.75 112.18C184.859 112.367 184.945 112.555 185.008 112.742C185.07 112.945 185.133 113.148 185.195 113.352C185.258 113.555 185.328 113.75 185.406 113.938C185.5 114.125 185.617 114.297 185.758 114.453C185.883 114.453 185.992 114.461 186.086 114.477C186.195 114.508 186.304 114.539 186.414 114.57V114.711C186.414 114.945 186.484 115.117 186.625 115.227C186.765 115.336 186.922 115.453 187.094 115.578C187.14 115.75 187.164 115.914 187.164 116.07C187.164 116.336 187.101 116.586 186.976 116.82C186.867 117.055 186.679 117.219 186.414 117.312C186.258 117.312 186.109 117.289 185.969 117.242C185.828 117.211 185.679 117.195 185.523 117.195C185.414 117.195 185.297 117.211 185.172 117.242C185.094 117.211 185.023 117.164 184.961 117.102C184.914 117.055 184.859 117.008 184.797 116.961C184.734 116.914 184.664 116.875 184.586 116.844C184.523 116.812 184.437 116.805 184.328 116.82C184.25 116.602 184.125 116.398 183.953 116.211C183.781 116.023 183.57 115.945 183.32 115.977C183.336 115.914 183.344 115.82 183.344 115.695C183.344 115.477 183.297 115.273 183.203 115.086C183.125 114.898 183 114.75 182.828 114.641C182.75 114.281 182.679 113.883 182.617 113.445C182.554 113.023 182.422 112.656 182.219 112.344C182.219 111.891 182.172 111.453 182.078 111.031C181.984 110.625 181.898 110.203 181.82 109.766C181.883 109.516 181.914 109.234 181.914 108.922C181.914 108.703 181.906 108.492 181.89 108.289C181.875 108.07 181.867 107.859 181.867 107.656C181.867 107.438 181.883 107.227 181.914 107.023C181.945 106.805 182.023 106.594 182.148 106.391C182.054 106.234 181.992 106.078 181.961 105.922C181.929 105.75 181.914 105.578 181.914 105.406C181.914 105.141 181.929 104.883 181.961 104.633L182.054 103.883C182.023 103.867 181.969 103.859 181.89 103.859C181.734 103.859 181.601 103.891 181.492 103.953L181.14 104.117C181.062 104.102 180.992 104.094 180.929 104.094H180.719C180.484 104.094 180.25 104.133 180.015 104.211C179.797 104.273 179.601 104.391 179.429 104.562C178.898 104.562 178.367 104.617 177.836 104.727C177.304 104.82 176.773 104.938 176.242 105.078C175.726 105.219 175.211 105.375 174.695 105.547C174.179 105.703 173.664 105.844 173.148 105.969C173.023 106.578 172.929 107.195 172.867 107.82C172.804 108.43 172.773 109.055 172.773 109.695V110.258C172.773 110.461 172.789 110.656 172.82 110.844C172.836 110.969 172.875 111.078 172.937 111.172C173.015 111.281 173.054 111.398 173.054 111.523C173.054 111.633 173.031 111.719 172.984 111.781C173.094 111.969 173.258 112.133 173.476 112.273C173.711 112.195 173.914 112.156 174.086 112.156C174.367 112.156 174.633 112.219 174.883 112.344C175.133 112.484 175.398 112.578 175.679 112.625C175.617 112.844 175.523 113.055 175.398 113.258C175.273 113.477 175.195 113.711 175.164 113.961C175.101 113.992 175.039 114.008 174.976 114.008C174.929 114.008 174.883 114.008 174.836 114.008C174.789 114.023 174.75 114.055 174.719 114.102C174.703 114.148 174.711 114.242 174.742 114.383C174.523 114.492 174.304 114.562 174.086 114.594C173.867 114.641 173.64 114.672 173.406 114.688C173.187 114.703 172.961 114.711 172.726 114.711C172.508 114.711 172.281 114.719 172.047 114.734C172.047 114.641 172.023 114.562 171.976 114.5C171.945 114.453 171.898 114.414 171.836 114.383C171.773 114.367 171.703 114.344 171.625 114.312C171.562 114.281 171.508 114.242 171.461 114.195C171.336 114.086 171.234 113.938 171.156 113.75C171.094 113.578 171.023 113.391 170.945 113.188C170.883 113 170.812 112.812 170.734 112.625C170.656 112.438 170.562 112.266 170.453 112.109C170.422 111.766 170.398 111.43 170.383 111.102C170.367 110.773 170.359 110.438 170.359 110.094C170.359 109.453 170.383 108.828 170.429 108.219C170.476 107.594 170.515 106.953 170.547 106.297C170.406 106.156 170.242 106.094 170.054 106.109C169.883 106.125 169.711 106.109 169.539 106.062C169.351 105.828 169.195 105.57 169.07 105.289C168.945 104.992 168.883 104.688 168.883 104.375C168.883 104.219 168.906 104.055 168.953 103.883C169.094 103.836 169.25 103.789 169.422 103.742C169.594 103.695 169.687 103.57 169.703 103.367C169.812 103.43 169.945 103.461 170.101 103.461C170.258 103.461 170.414 103.438 170.57 103.391C170.726 103.344 170.883 103.305 171.039 103.273C171.101 103.023 171.148 102.781 171.179 102.547C171.226 102.297 171.234 102.039 171.203 101.773C171.422 101.445 171.562 101.086 171.625 100.695C171.703 100.305 171.758 99.9297 171.789 99.5703V99.2422C171.789 99.1328 171.797 99.0234 171.812 98.9141C171.844 98.7422 171.89 98.5469 171.953 98.3281C172.015 98.1094 172.07 97.9062 172.117 97.7188C172.195 97.4219 172.242 97.1406 172.258 96.875C172.289 96.6094 172.304 96.3359 172.304 96.0547V95.9609C172.304 95.8828 172.273 95.8281 172.211 95.7969C172.148 95.75 172.117 95.6875 172.117 95.6094L172.14 95.5625C172.203 95.0625 172.273 94.5703 172.351 94.0859C172.445 93.5859 172.57 93.0938 172.726 92.6094C172.601 92.25 172.539 91.8438 172.539 91.3906C172.539 90.7969 172.633 90.2266 172.82 89.6797C172.726 89.4297 172.679 89.1875 172.679 88.9531C172.679 88.7656 172.687 88.5781 172.703 88.3906C172.734 88.2031 172.742 88.0156 172.726 87.8281C172.883 87.75 173.008 87.6406 173.101 87.5C173.211 87.3594 173.336 87.2422 173.476 87.1484C173.945 87.1328 174.336 87.2891 174.648 87.6172C174.976 87.9453 175.14 88.3438 175.14 88.8125C175.14 89.1719 175.039 89.5156 174.836 89.8438C174.898 90.1406 174.929 90.4844 174.929 90.875C174.929 91.4531 174.89 92.0312 174.812 92.6094C174.734 93.1875 174.711 93.7734 174.742 94.3672C174.648 94.5859 174.601 94.8516 174.601 95.1641C174.617 95.4766 174.609 95.7422 174.578 95.9609C174.547 96.1797 174.5 96.4062 174.437 96.6406C174.375 96.8594 174.336 97.0781 174.32 97.2969C174.304 97.6562 174.289 98.0156 174.273 98.375C174.273 98.7344 174.234 99.0781 174.156 99.4062C174.125 99.5312 174.078 99.6406 174.015 99.7344C173.969 99.8125 173.929 99.9062 173.898 100.016C173.836 100.344 173.812 100.68 173.828 101.023C173.859 101.352 173.859 101.688 173.828 102.031C173.812 102.141 173.781 102.25 173.734 102.359C173.703 102.469 173.687 102.586 173.687 102.711C173.687 102.773 173.703 102.852 173.734 102.945C175.156 102.82 176.57 102.609 177.976 102.312C179.383 102.016 180.797 101.758 182.219 101.539C182.328 101.336 182.383 101.125 182.383 100.906C182.383 100.781 182.359 100.656 182.312 100.531C182.469 100.016 182.586 99.5 182.664 98.9844C182.758 98.4531 182.836 97.9297 182.898 97.4141C182.961 96.8984 183.015 96.3828 183.062 95.8672C183.109 95.3359 183.172 94.8125 183.25 94.2969L183.39 93.5C183.437 93.2344 183.5 92.9766 183.578 92.7266C183.609 92.6328 183.64 92.5391 183.672 92.4453C183.719 92.3516 183.742 92.2656 183.742 92.1875C183.742 92.1094 183.695 92.0547 183.601 92.0234C183.523 91.9922 183.484 91.9531 183.484 91.9062C183.484 91.875 183.492 91.8594 183.508 91.8594C183.539 91.8438 183.562 91.8438 183.578 91.8594C183.656 91.7188 183.703 91.5703 183.719 91.4141C183.734 91.2578 183.742 91.1016 183.742 90.9453C183.758 90.7891 183.781 90.6406 183.812 90.5C183.844 90.3438 183.906 90.2031 184 90.0781C183.984 89.9688 183.953 89.8672 183.906 89.7734C183.859 89.6797 183.836 89.5703 183.836 89.4453C183.82 89.4297 183.82 89.4141 183.836 89.3984C183.867 89.2578 183.883 89.1406 183.883 89.0469C183.898 88.9375 183.906 88.8125 183.906 88.6719C183.906 88.4844 183.992 88.3359 184.164 88.2266C184.086 87.9609 184.031 87.6719 184 87.3594C183.969 87.0469 183.953 86.7422 183.953 86.4453C183.953 86.0391 184.047 85.7031 184.234 85.4375C184.437 85.1562 184.765 85.0156 185.219 85.0156C185.453 85.0156 185.672 85.0625 185.875 85.1562C186.094 85.25 186.273 85.3828 186.414 85.5547C186.492 85.9141 186.531 86.25 186.531 86.5625C186.531 86.7812 186.515 86.9922 186.484 87.1953C186.469 87.3828 186.461 87.5859 186.461 87.8047C186.461 87.9766 186.476 88.1406 186.508 88.2969C186.539 88.4375 186.57 88.5859 186.601 88.7422C186.461 88.9609 186.359 89.2031 186.297 89.4688C186.234 89.7344 186.187 90.0078 186.156 90.2891C186.14 90.5703 186.125 90.8594 186.109 91.1562C186.109 91.4375 186.101 91.6953 186.086 91.9297C186.039 92.4453 185.961 92.9531 185.851 93.4531C185.758 93.9531 185.648 94.4531 185.523 94.9531C185.57 95.125 185.594 95.2812 185.594 95.4219C185.594 95.7031 185.554 95.9844 185.476 96.2656C185.398 96.5312 185.375 96.7969 185.406 97.0625C185.297 97.3438 185.226 97.6328 185.195 97.9297C185.164 98.2109 185.14 98.5078 185.125 98.8203L185.078 99.7344C185.062 100.031 185.008 100.32 184.914 100.602C184.945 100.68 185 100.727 185.078 100.742C185.172 100.742 185.203 100.805 185.172 100.93C185.531 100.82 185.914 100.773 186.32 100.789C186.726 100.789 187.109 100.789 187.469 100.789C187.703 100.789 187.937 100.789 188.172 100.789C188.406 100.773 188.64 100.742 188.875 100.695C189.109 100.633 189.344 100.562 189.578 100.484C189.828 100.391 190.07 100.344 190.304 100.344C190.633 100.344 190.883 100.461 191.054 100.695C191.086 100.867 191.109 101.039 191.125 101.211C191.14 101.383 191.148 101.555 191.148 101.727ZM215.195 96.8984C215.195 97.7891 215.133 98.6562 215.008 99.5C214.898 100.328 214.734 101.172 214.515 102.031C214.312 102.188 214.187 102.383 214.14 102.617C214.094 102.852 214.015 103.07 213.906 103.273C213.812 103.445 213.687 103.633 213.531 103.836C213.375 104.023 213.203 104.227 213.015 104.445C212.828 104.648 212.64 104.859 212.453 105.078C212.265 105.297 212.109 105.516 211.984 105.734C211.515 105.891 211.179 106.227 210.976 106.742C210.726 106.836 210.469 106.945 210.203 107.07C209.937 107.18 209.75 107.375 209.64 107.656C209.062 107.953 208.515 108.297 208 108.688C207.5 109.062 206.953 109.391 206.359 109.672C206.281 109.75 206.187 109.812 206.078 109.859C205.984 109.891 205.883 109.93 205.773 109.977C205.679 110.023 205.586 110.078 205.492 110.141C205.414 110.219 205.367 110.312 205.351 110.422C205.289 110.422 205.242 110.406 205.211 110.375C205.195 110.359 205.148 110.344 205.07 110.328C204.898 110.422 204.82 110.57 204.836 110.773C204.773 110.742 204.687 110.727 204.578 110.727C204.39 110.727 204.203 110.781 204.015 110.891C203.844 111.016 203.695 111.141 203.57 111.266C203.383 111.359 203.164 111.453 202.914 111.547C202.679 111.641 202.508 111.797 202.398 112.016C202.336 111.953 202.242 111.922 202.117 111.922C201.976 111.922 201.828 111.961 201.672 112.039C201.515 112.133 201.398 112.234 201.32 112.344C201.101 112.344 200.89 112.375 200.687 112.438C200.5 112.516 200.304 112.586 200.101 112.648C199.898 112.727 199.695 112.797 199.492 112.859C199.304 112.922 199.101 112.953 198.883 112.953C198.758 112.953 198.664 112.922 198.601 112.859C198.539 112.797 198.461 112.742 198.367 112.695C198.289 112.758 198.148 112.828 197.945 112.906C197.758 112.984 197.617 113.023 197.523 113.023C197.351 113.023 197.179 113 197.008 112.953C196.851 112.906 196.687 112.852 196.515 112.789L196.023 112.625C195.867 112.578 195.695 112.547 195.508 112.531C195.367 112.406 195.195 112.273 194.992 112.133C194.804 112.008 194.617 111.969 194.429 112.016C194.351 111.781 194.234 111.578 194.078 111.406C193.922 111.234 193.742 111.078 193.539 110.938C193.492 110.906 193.437 110.875 193.375 110.844C193.328 110.828 193.289 110.805 193.258 110.773C193.179 110.727 193.109 110.633 193.047 110.492C192.984 110.352 192.914 110.281 192.836 110.281C192.82 110.281 192.797 110.289 192.765 110.305C192.75 110.32 192.734 110.328 192.719 110.328C192.687 110.188 192.64 110.055 192.578 109.93C192.515 109.789 192.406 109.703 192.25 109.672C192.125 109.266 192.039 108.859 191.992 108.453C191.945 108.047 191.883 107.641 191.804 107.234C191.773 107.109 191.734 106.961 191.687 106.789C191.656 106.602 191.64 106.438 191.64 106.297C191.64 106.062 191.672 105.781 191.734 105.453C191.812 105.125 191.875 104.836 191.922 104.586C192.109 103.68 192.359 102.805 192.672 101.961C192.984 101.102 193.32 100.25 193.679 99.4062C194.054 98.5625 194.437 97.7266 194.828 96.8984C195.219 96.0703 195.586 95.2266 195.929 94.3672C195.992 94.3672 196.031 94.3516 196.047 94.3203L196.117 94.2031C196.148 94.1562 196.172 94.1172 196.187 94.0859C196.219 94.0547 196.273 94.0391 196.351 94.0391V93.9688C196.336 93.875 196.351 93.7969 196.398 93.7344C196.461 93.6719 196.476 93.5703 196.445 93.4297C196.695 93.1484 196.906 92.8359 197.078 92.4922C197.25 92.1328 197.422 91.7812 197.594 91.4375C197.781 91.0938 197.976 90.7578 198.179 90.4297C198.383 90.1016 198.64 89.8203 198.953 89.5859V89.4219C198.937 89.3438 198.937 89.2656 198.953 89.1875C198.984 89.0938 199.039 89.0312 199.117 89C199.398 88.7188 199.633 88.4375 199.82 88.1562C200.008 87.875 200.195 87.6016 200.383 87.3359C200.586 87.0547 200.804 86.7969 201.039 86.5625C201.289 86.3125 201.601 86.0859 201.976 85.8828C202.148 85.8047 202.273 85.6875 202.351 85.5312C202.429 85.375 202.531 85.2656 202.656 85.2031C202.719 85.1719 202.781 85.1562 202.844 85.1562C202.922 85.1406 202.992 85.1172 203.054 85.0859C203.32 85.0078 203.586 84.9141 203.851 84.8047C204.117 84.6797 204.398 84.6172 204.695 84.6172C205.07 84.6172 205.351 84.7266 205.539 84.9453C205.742 85.1484 205.898 85.3984 206.008 85.6953C206.133 85.9922 206.234 86.3047 206.312 86.6328C206.39 86.9609 206.515 87.2422 206.687 87.4766C207.156 87.5078 207.633 87.5625 208.117 87.6406C208.601 87.7031 209.023 87.8984 209.383 88.2266C209.414 88.2422 209.453 88.25 209.5 88.25C209.578 88.25 209.617 88.2188 209.617 88.1562C209.617 88.0938 209.656 88.0625 209.734 88.0625H209.804C210.273 88.3438 210.719 88.6562 211.14 89C211.578 89.3281 212.008 89.6719 212.429 90.0312C212.508 90.0938 212.586 90.1562 212.664 90.2188C212.758 90.2656 212.836 90.3281 212.898 90.4062C212.976 90.5 213.047 90.6094 213.109 90.7344C213.187 90.8594 213.258 90.9688 213.32 91.0625C214.101 92.4219 214.625 93.8828 214.89 95.4453C214.922 95.6172 214.945 95.7812 214.961 95.9375C214.992 96.0938 215.008 96.2422 215.008 96.3828C215.008 96.5234 215.039 96.6172 215.101 96.6641C215.164 96.6953 215.195 96.7734 215.195 96.8984ZM213.39 98.0938C213.39 97.4688 213.312 96.8672 213.156 96.2891C213.234 96.2578 213.281 96.2109 213.297 96.1484C213.328 96.0703 213.344 95.9922 213.344 95.9141V95.7969L213.062 95.2812C213.047 95.0625 213 94.8594 212.922 94.6719C212.859 94.4844 212.781 94.2969 212.687 94.1094C212.594 93.9219 212.5 93.7344 212.406 93.5469C212.328 93.3594 212.273 93.1562 212.242 92.9375C211.992 92.75 211.765 92.5391 211.562 92.3047C211.375 92.0547 211.203 91.7969 211.047 91.5312C210.937 91.4844 210.836 91.4531 210.742 91.4375C210.648 91.4219 210.617 91.3359 210.648 91.1797C210.367 91.1016 210.109 90.9922 209.875 90.8516C209.656 90.6953 209.437 90.5234 209.219 90.3359C208.859 90.2578 208.5 90.1641 208.14 90.0547C207.797 89.9297 207.445 89.8672 207.086 89.8672C206.836 89.8672 206.594 89.9141 206.359 90.0078C206.437 90.1328 206.476 90.2734 206.476 90.4297C206.476 90.5703 206.492 90.7109 206.523 90.8516C207.023 90.9766 207.328 91.2812 207.437 91.7656C207.359 91.8125 207.289 91.875 207.226 91.9531C207.164 92.0156 207.101 92.0781 207.039 92.1406C206.992 92.1875 206.929 92.2344 206.851 92.2812C206.773 92.3281 206.679 92.3516 206.57 92.3516C206.351 92.3516 206.179 92.3125 206.054 92.2344C205.945 92.1562 205.765 92.1406 205.515 92.1875C205.25 91.9531 204.992 91.7109 204.742 91.4609C204.492 91.1953 204.211 90.9609 203.898 90.7578C203.851 90.6016 203.773 90.4609 203.664 90.3359C203.57 90.2109 203.469 90.0938 203.359 89.9844C203.265 89.8594 203.172 89.7344 203.078 89.6094C203 89.4688 202.961 89.3125 202.961 89.1406C202.961 89.0312 202.969 88.9531 202.984 88.9062C202.89 88.875 202.82 88.8594 202.773 88.8594C202.648 88.8594 202.531 88.9062 202.422 89C202.312 89.0781 202.187 89.1328 202.047 89.1641C201.922 89.5391 201.742 89.8672 201.508 90.1484C201.273 90.4297 201.031 90.7031 200.781 90.9688C200.531 91.2344 200.297 91.5156 200.078 91.8125C199.875 92.0938 199.726 92.4453 199.633 92.8672C199.133 93.4922 198.672 94.2031 198.25 95C197.828 95.7812 197.508 96.5469 197.289 97.2969C196.929 97.7031 196.648 98.1328 196.445 98.5859C196.242 99.0391 196.125 99.5391 196.094 100.086C196.015 100.133 195.953 100.195 195.906 100.273L195.672 100.742C195.64 100.82 195.586 100.883 195.508 100.93V101.047C195.508 101.172 195.484 101.289 195.437 101.398C195.39 101.492 195.336 101.586 195.273 101.68C195.226 101.773 195.179 101.867 195.133 101.961C195.086 102.039 195.062 102.133 195.062 102.242C195.062 102.367 195.094 102.492 195.156 102.617C194.984 102.648 194.867 102.742 194.804 102.898C194.758 103.039 194.687 103.164 194.594 103.273C194.531 103.773 194.469 104.281 194.406 104.797C194.344 105.312 194.312 105.82 194.312 106.32C194.312 106.898 194.375 107.484 194.5 108.078C194.64 108.219 194.765 108.375 194.875 108.547C194.984 108.719 195.094 108.883 195.203 109.039C195.328 109.195 195.461 109.336 195.601 109.461C195.742 109.57 195.929 109.641 196.164 109.672C196.164 109.781 196.187 109.859 196.234 109.906C196.281 109.953 196.32 110.016 196.351 110.094C196.679 110.203 197.023 110.289 197.383 110.352C197.742 110.43 198.101 110.469 198.461 110.469C198.711 110.469 198.961 110.438 199.211 110.375C199.476 110.312 199.695 110.188 199.867 110C200.664 109.969 201.453 109.781 202.234 109.438C203.031 109.094 203.758 108.719 204.414 108.312H204.906C205.078 108.078 205.289 107.891 205.539 107.75C205.789 107.594 206.047 107.453 206.312 107.328C206.359 107.297 206.422 107.266 206.5 107.234C206.578 107.203 206.64 107.172 206.687 107.141C206.859 107.016 207.031 106.875 207.203 106.719C207.39 106.562 207.578 106.414 207.765 106.273C208.078 106.039 208.398 105.812 208.726 105.594C209.054 105.375 209.367 105.141 209.664 104.891C209.976 104.641 210.265 104.375 210.531 104.094C210.812 103.797 211.047 103.469 211.234 103.109C211.328 103.109 211.398 103.086 211.445 103.039C211.508 102.977 211.554 102.914 211.586 102.852C211.633 102.789 211.679 102.734 211.726 102.688C211.789 102.641 211.875 102.617 211.984 102.617C211.984 102.477 212.008 102.359 212.054 102.266C212.117 102.156 212.179 102.062 212.242 101.984C212.32 101.891 212.39 101.805 212.453 101.727C212.531 101.648 212.601 101.547 212.664 101.422V100.766C212.914 100.359 213.094 99.9297 213.203 99.4766C213.328 99.0234 213.39 98.5625 213.39 98.0938ZM234.953 86.4688C234.734 86.7812 234.5 87.0781 234.25 87.3594C234.015 87.625 233.719 87.8359 233.359 87.9922C233.172 89.0703 233.015 90.1562 232.89 91.25C232.781 92.3438 232.656 93.4375 232.515 94.5312C232.39 95.625 232.242 96.7188 232.07 97.8125C231.914 98.8906 231.695 99.9609 231.414 101.023L231.437 101.305C231.469 101.617 231.429 101.914 231.32 102.195C231.211 102.477 231.164 102.781 231.179 103.109C230.961 103.656 230.773 104.266 230.617 104.938C230.461 105.594 230.367 106.219 230.336 106.812C230.179 107.078 230.047 107.367 229.937 107.68C229.844 107.992 229.742 108.312 229.633 108.641C229.539 108.953 229.429 109.258 229.304 109.555C229.179 109.836 229.015 110.094 228.812 110.328C228.765 110.688 228.672 111.023 228.531 111.336C228.406 111.664 228.258 111.984 228.086 112.297C227.929 112.609 227.773 112.914 227.617 113.211C227.476 113.523 227.375 113.852 227.312 114.195C227.047 114.602 226.781 114.992 226.515 115.367C226.25 115.758 226.008 116.164 225.789 116.586C225.586 116.68 225.406 116.781 225.25 116.891C225.109 117.016 224.969 117.125 224.828 117.219C224.687 117.328 224.523 117.422 224.336 117.5C224.164 117.578 223.953 117.617 223.703 117.617C223.64 117.617 223.578 117.609 223.515 117.594C223.469 117.594 223.414 117.594 223.351 117.594C223.133 117.422 222.914 117.25 222.695 117.078C222.476 116.922 222.242 116.781 221.992 116.656C221.992 116.562 221.976 116.484 221.945 116.422C221.929 116.359 221.914 116.297 221.898 116.234C221.883 116.172 221.875 116.109 221.875 116.047C221.875 115.984 221.89 115.906 221.922 115.812C221.781 115.719 221.617 115.547 221.429 115.297C221.258 115.062 221.172 114.859 221.172 114.688C221.172 114.531 221.226 114.453 221.336 114.453C221.304 114.297 221.25 114.141 221.172 113.984C221.109 113.844 221.078 113.695 221.078 113.539C221.078 113.43 221.109 113.312 221.172 113.188C221 112.781 220.844 112.359 220.703 111.922C220.562 111.5 220.469 111.062 220.422 110.609C220.265 110.406 220.14 110.172 220.047 109.906C219.969 109.625 219.906 109.336 219.859 109.039C219.812 108.742 219.773 108.453 219.742 108.172C219.711 107.875 219.672 107.602 219.625 107.352C219.609 107.258 219.57 107.109 219.508 106.906C219.445 106.688 219.414 106.539 219.414 106.461C219.414 106.367 219.429 106.297 219.461 106.25C219.508 106.203 219.547 106.141 219.578 106.062C219.39 105.312 219.234 104.555 219.109 103.789C219 103.023 218.89 102.258 218.781 101.492C218.687 100.727 218.57 99.9688 218.429 99.2188C218.304 98.4531 218.125 97.7031 217.89 96.9688V96.7578C217.89 96.2578 217.695 95.8594 217.304 95.5625C217.383 95.3281 217.422 95.1328 217.422 94.9766C217.422 94.7734 217.39 94.5781 217.328 94.3906C217.281 94.2031 217.226 94.0156 217.164 93.8281C217.101 93.6406 217.054 93.4531 217.023 93.2656C217.008 93.0781 217.023 92.8906 217.07 92.7031C216.898 92.5156 216.758 92.3125 216.648 92.0938C216.539 91.875 216.398 91.6875 216.226 91.5312L216.203 91.3906C216.203 91.3125 216.226 91.2422 216.273 91.1797C216.304 91.1172 216.32 91.0469 216.32 90.9688C216.32 90.8594 216.297 90.7656 216.25 90.6875C216.187 90.6094 216.125 90.5391 216.062 90.4766C215.984 90.4141 215.922 90.3516 215.875 90.2891C215.812 90.2266 215.781 90.1562 215.781 90.0781C215.781 89.8906 215.844 89.7422 215.969 89.6328C216.094 89.5234 216.234 89.4297 216.39 89.3516C216.547 89.2578 216.695 89.1641 216.836 89.0703C216.992 88.9766 217.094 88.8438 217.14 88.6719C217.265 88.7031 217.39 88.7266 217.515 88.7422C217.64 88.7422 217.765 88.7734 217.89 88.8359C217.906 88.8203 217.914 88.7969 217.914 88.7656C217.914 88.7188 217.836 88.6797 217.679 88.6484C217.539 88.6016 217.445 88.5469 217.398 88.4844C217.523 88.4531 217.617 88.4375 217.679 88.4375C217.992 88.4375 218.289 88.5156 218.57 88.6719C218.867 88.8281 219.148 88.9922 219.414 89.1641C219.445 89.3047 219.453 89.4531 219.437 89.6094C219.422 89.75 219.469 89.8828 219.578 90.0078C219.562 90.0859 219.554 90.1562 219.554 90.2188C219.57 90.2812 219.578 90.3438 219.578 90.4062C219.578 90.4844 219.562 90.5547 219.531 90.6172C219.515 90.6641 219.476 90.6875 219.414 90.6875C219.523 90.875 219.594 91.1016 219.625 91.3672C219.672 91.6328 219.711 91.9062 219.742 92.1875C219.789 92.4688 219.844 92.7422 219.906 93.0078C219.969 93.2734 220.086 93.5078 220.258 93.7109C220.226 93.8047 220.203 93.8984 220.187 93.9922C220.187 94.0859 220.187 94.1875 220.187 94.2969C220.187 94.7969 220.25 95.2891 220.375 95.7734C220.5 96.2578 220.562 96.75 220.562 97.25C220.562 97.5469 220.515 97.8203 220.422 98.0703C220.422 98.2109 220.469 98.3281 220.562 98.4219C220.656 98.5 220.719 98.6094 220.75 98.75C220.672 98.9375 220.633 99.1172 220.633 99.2891C220.633 99.6484 220.703 99.9922 220.844 100.32C220.984 100.633 221.054 100.961 221.054 101.305C221.054 101.414 221.039 101.516 221.008 101.609C220.976 101.703 220.945 101.789 220.914 101.867C221.054 102.008 221.125 102.188 221.125 102.406C221.14 102.625 221.211 102.805 221.336 102.945C221.32 103.023 221.304 103.102 221.289 103.18C221.289 103.258 221.25 103.32 221.172 103.367C221.25 103.477 221.289 103.625 221.289 103.812C221.304 103.984 221.375 104.086 221.5 104.117C221.469 104.195 221.445 104.266 221.429 104.328C221.414 104.391 221.406 104.461 221.406 104.539C221.406 104.711 221.429 104.867 221.476 105.008L221.617 105.43C221.664 105.57 221.695 105.719 221.711 105.875C221.742 106.031 221.726 106.203 221.664 106.391C221.726 106.484 221.773 106.594 221.804 106.719C221.851 106.844 221.89 106.977 221.922 107.117C221.953 107.242 222 107.359 222.062 107.469C222.125 107.562 222.219 107.625 222.344 107.656C222.359 107.75 222.32 107.797 222.226 107.797C222.148 107.797 222.109 107.836 222.109 107.914C222.109 108.039 222.156 108.195 222.25 108.383C222.344 108.555 222.429 108.68 222.508 108.758C222.492 108.82 222.484 108.883 222.484 108.945V109.156C222.484 109.375 222.515 109.602 222.578 109.836C222.64 110.055 222.695 110.273 222.742 110.492C222.804 110.727 222.851 110.953 222.883 111.172C222.914 111.391 222.898 111.594 222.836 111.781C222.961 112 223.07 112.234 223.164 112.484C223.258 112.734 223.406 112.945 223.609 113.117C223.609 113.383 223.664 113.633 223.773 113.867C223.883 114.117 224.023 114.352 224.195 114.57C224.351 114.57 224.469 114.516 224.547 114.406C224.625 114.312 224.687 114.203 224.734 114.078C224.781 113.953 224.836 113.836 224.898 113.727C224.961 113.617 225.062 113.555 225.203 113.539C225.219 113.383 225.258 113.25 225.32 113.141C225.398 113.047 225.469 112.945 225.531 112.836C225.609 112.727 225.672 112.609 225.719 112.484C225.781 112.359 225.804 112.203 225.789 112.016L226.047 111.945C226.125 111.523 226.242 111.141 226.398 110.797C226.57 110.469 226.758 110.125 226.961 109.766V109.648C226.961 109.492 226.984 109.359 227.031 109.25C227.078 109.141 227.086 109 227.054 108.828C227.164 108.797 227.242 108.734 227.289 108.641C227.336 108.547 227.375 108.453 227.406 108.359C227.437 108.25 227.469 108.148 227.5 108.055C227.547 107.945 227.617 107.867 227.711 107.82V107.633C227.695 107.492 227.703 107.359 227.734 107.234C227.781 107.094 227.773 106.953 227.711 106.812C227.836 106.766 227.929 106.688 227.992 106.578C228.054 106.469 228.101 106.352 228.133 106.227C228.179 106.102 228.203 105.969 228.203 105.828C228.219 105.688 228.226 105.562 228.226 105.453C228.336 105.312 228.414 105.148 228.461 104.961C228.508 104.758 228.547 104.555 228.578 104.352C228.609 104.148 228.648 103.953 228.695 103.766C228.758 103.578 228.851 103.414 228.976 103.273C228.945 103.195 228.929 103.125 228.929 103.062V102.852C228.929 102.555 228.976 102.289 229.07 102.055C229.164 101.805 229.25 101.539 229.328 101.258C229.531 100.555 229.672 99.8359 229.75 99.1016C229.844 98.3516 229.976 97.6172 230.148 96.8984C230.164 96.8203 230.195 96.6953 230.242 96.5234C230.289 96.3516 230.336 96.1797 230.383 96.0078C230.429 95.8203 230.469 95.6562 230.5 95.5156C230.547 95.3594 230.57 95.2578 230.57 95.2109C230.57 95.0859 230.539 95 230.476 94.9531C230.429 94.9062 230.406 94.8281 230.406 94.7188C230.5 94.5781 230.562 94.3984 230.594 94.1797C230.625 93.9609 230.648 93.7344 230.664 93.5C230.679 93.25 230.679 93.0156 230.664 92.7969C230.664 92.5625 230.664 92.3594 230.664 92.1875C230.664 92.0156 230.703 91.7969 230.781 91.5312C230.859 91.2656 230.914 91.0312 230.945 90.8281C231.023 90.2969 231.07 89.7734 231.086 89.2578C231.117 88.7266 231.148 88.1953 231.179 87.6641C231.289 87.6016 231.367 87.5234 231.414 87.4297C231.461 87.3203 231.484 87.2109 231.484 87.1016C231.484 86.9297 231.461 86.7656 231.414 86.6094C231.383 86.4531 231.367 86.2891 231.367 86.1172C231.367 86.0391 231.375 85.9609 231.39 85.8828C231.406 85.7891 231.445 85.7109 231.508 85.6484C231.492 85.5391 231.476 85.4297 231.461 85.3203C231.461 85.2109 231.422 85.1172 231.344 85.0391C231.422 84.8359 231.461 84.6328 231.461 84.4297C231.461 84.2422 231.437 84.0547 231.39 83.8672C231.359 83.6797 231.344 83.4844 231.344 83.2812C231.344 82.8906 231.508 82.6094 231.836 82.4375H232.164C232.32 82.4375 232.476 82.4297 232.633 82.4141C232.789 82.3984 232.953 82.3516 233.125 82.2734C233.328 82.4922 233.539 82.7344 233.758 83C233.976 83.25 234.164 83.5234 234.32 83.8203C234.476 84.1172 234.594 84.4219 234.672 84.7344C234.75 85.0469 234.758 85.375 234.695 85.7188C234.758 85.8438 234.797 85.9688 234.812 86.0938C234.828 86.2188 234.875 86.3438 234.953 86.4688ZM230.172 99.2422C230.109 99.2266 230.062 99.2031 230.031 99.1719C230.015 99.125 229.969 99.0938 229.89 99.0781V99.3359H230.078L230.172 99.2422ZM260.523 84.3828C260.523 84.5234 260.515 84.6641 260.5 84.8047C260.5 84.9453 260.492 85.0781 260.476 85.2031C260.429 85.2812 260.336 85.3125 260.195 85.2969C260.07 85.2812 259.969 85.2734 259.89 85.2734C259.812 85.2734 259.742 85.2891 259.679 85.3203C259.633 85.3359 259.609 85.3828 259.609 85.4609C259.609 85.5547 259.617 85.6172 259.633 85.6484C259.508 85.6328 259.375 85.6172 259.234 85.6016C259.094 85.5859 258.969 85.5391 258.859 85.4609C258.64 85.5078 258.429 85.5703 258.226 85.6484C258.039 85.7266 257.851 85.8125 257.664 85.9062C257.476 86 257.281 86.0859 257.078 86.1641C256.875 86.2422 256.664 86.2891 256.445 86.3047C256.304 86.4609 256.125 86.5781 255.906 86.6562C255.687 86.7344 255.461 86.8047 255.226 86.8672C254.992 86.9297 254.773 87.0078 254.57 87.1016C254.367 87.1797 254.203 87.3047 254.078 87.4766C253.734 87.5078 253.406 87.5938 253.094 87.7344C252.781 87.875 252.469 88.0234 252.156 88.1797C251.859 88.3359 251.554 88.4844 251.242 88.625C250.929 88.7656 250.594 88.8594 250.234 88.9062C250.14 89 250.023 89.0781 249.883 89.1406C249.758 89.2031 249.625 89.2656 249.484 89.3281C249.344 89.375 249.211 89.4297 249.086 89.4922C248.961 89.5547 248.859 89.6406 248.781 89.75H248.734C248.672 89.75 248.625 89.7344 248.594 89.7031C248.562 89.6719 248.515 89.6562 248.453 89.6562C248.406 89.6562 248.375 89.6641 248.359 89.6797C247.984 89.8516 247.609 90.0312 247.234 90.2188C246.859 90.4062 246.469 90.5859 246.062 90.7578C245.265 91.0859 244.461 91.4062 243.648 91.7188C242.836 92.0312 242.054 92.4141 241.304 92.8672C241.133 93.4922 240.992 94.1328 240.883 94.7891C240.773 95.4297 240.578 96.0469 240.297 96.6406V97.7422C240.14 98.0391 240.039 98.3672 239.992 98.7266C239.945 99.0859 239.922 99.4297 239.922 99.7578C239.922 99.8828 239.922 100 239.922 100.109C239.937 100.203 239.945 100.305 239.945 100.414C240.398 100.289 240.836 100.148 241.258 99.9922C241.695 99.8359 242.133 99.6953 242.57 99.5703C242.789 99.4922 243.008 99.4375 243.226 99.4062C243.461 99.375 243.687 99.3203 243.906 99.2422C244.078 99.1953 244.258 99.1328 244.445 99.0547C244.633 98.9609 244.812 98.875 244.984 98.7969C245.453 98.5938 245.929 98.4141 246.414 98.2578C246.914 98.1016 247.422 97.9844 247.937 97.9062C248.094 97.7812 248.265 97.6641 248.453 97.5547C248.64 97.4453 248.828 97.3906 249.015 97.3906C249.156 97.3906 249.273 97.4141 249.367 97.4609C249.633 97.3047 249.945 97.1641 250.304 97.0391C250.664 96.9141 251 96.8672 251.312 96.8984C251.39 96.7891 251.484 96.7188 251.594 96.6875C251.703 96.6406 251.82 96.6172 251.945 96.6172C252.008 96.6172 252.062 96.625 252.109 96.6406C252.172 96.6406 252.242 96.6406 252.32 96.6406C252.476 96.5312 252.648 96.4531 252.836 96.4062C253.023 96.3594 253.211 96.3203 253.398 96.2891C253.586 96.2578 253.765 96.2188 253.937 96.1719C254.125 96.1094 254.289 96.0156 254.429 95.8906C254.648 95.9062 254.82 95.9688 254.945 96.0781C255.086 96.1875 255.203 96.3203 255.297 96.4766C255.39 96.6328 255.469 96.7969 255.531 96.9688C255.594 97.1406 255.672 97.3047 255.765 97.4609C255.734 97.5859 255.687 97.6875 255.625 97.7656C255.562 97.8281 255.492 97.8906 255.414 97.9531C255.336 98.0156 255.265 98.0781 255.203 98.1406C255.14 98.2031 255.101 98.2891 255.086 98.3984C254.539 98.3984 254.008 98.4766 253.492 98.6328C252.992 98.7891 252.492 98.9688 251.992 99.1719C251.508 99.375 251.008 99.5703 250.492 99.7578C249.992 99.9297 249.476 100.039 248.945 100.086C248.867 100.164 248.765 100.227 248.64 100.273L248.289 100.391C248.179 100.422 248.078 100.469 247.984 100.531C247.89 100.578 247.82 100.656 247.773 100.766C247.679 100.719 247.578 100.695 247.469 100.695C247.203 100.695 246.945 100.766 246.695 100.906C246.445 101.047 246.164 101.117 245.851 101.117C245.726 101.117 245.64 101.109 245.594 101.094C245.515 101.234 245.398 101.336 245.242 101.398C245.101 101.461 244.945 101.516 244.773 101.562C244.617 101.594 244.461 101.641 244.304 101.703C244.164 101.766 244.054 101.875 243.976 102.031C243.929 102.016 243.875 102.008 243.812 102.008H243.672C243.422 102.008 243.133 102.055 242.804 102.148C242.492 102.227 242.265 102.383 242.125 102.617C242 102.586 241.89 102.57 241.797 102.57C241.578 102.57 241.383 102.617 241.211 102.711C241.039 102.789 240.867 102.883 240.695 102.992L240.179 103.32C240.008 103.43 239.82 103.508 239.617 103.555C239.211 104.133 238.929 104.797 238.773 105.547C238.617 106.297 238.5 107.078 238.422 107.891C238.359 108.703 238.297 109.508 238.234 110.305C238.172 111.117 238.047 111.859 237.859 112.531C237.953 112.781 238.023 113.047 238.07 113.328C238.117 113.609 238.156 113.891 238.187 114.172C238.219 114.469 238.25 114.766 238.281 115.062C238.312 115.359 238.367 115.641 238.445 115.906C238.523 116.234 238.672 116.523 238.89 116.773C239.125 117.039 239.289 117.336 239.383 117.664C239.461 117.68 239.539 117.688 239.617 117.688C239.711 117.703 239.804 117.711 239.898 117.711C240.461 117.711 240.953 117.602 241.375 117.383C241.812 117.164 242.219 116.891 242.594 116.562C242.969 116.25 243.328 115.906 243.672 115.531C244.031 115.172 244.414 114.852 244.82 114.57H245.265C245.375 114.445 245.469 114.312 245.547 114.172C245.625 114.031 245.711 113.898 245.804 113.773C245.898 113.648 246.008 113.539 246.133 113.445C246.258 113.367 246.414 113.312 246.601 113.281C246.648 113.047 246.758 112.867 246.929 112.742C247.101 112.617 247.219 112.43 247.281 112.18C247.312 112.195 247.351 112.203 247.398 112.203C247.523 112.203 247.617 112.172 247.679 112.109L248.031 111.781C248.156 111.656 248.289 111.531 248.429 111.406C248.586 111.297 248.734 111.188 248.875 111.078C249.328 110.75 249.781 110.422 250.234 110.094C250.687 109.781 251.101 109.414 251.476 108.992C251.492 109.008 251.515 109.016 251.547 109.016C251.672 109.016 251.758 108.977 251.804 108.898C251.851 108.82 251.961 108.797 252.133 108.828C252.226 108.688 252.312 108.547 252.39 108.406C252.469 108.25 252.531 108.086 252.578 107.914L253.328 108.008C253.578 108.039 253.828 108.055 254.078 108.055C254.156 108.055 254.226 108.055 254.289 108.055C254.367 108.039 254.437 108.016 254.5 107.984C254.687 108.281 254.789 108.602 254.804 108.945C254.82 109.273 254.859 109.602 254.922 109.93C254.89 109.93 254.867 109.93 254.851 109.93C254.851 109.914 254.836 109.906 254.804 109.906C254.726 109.906 254.648 109.938 254.57 110C254.508 110.047 254.437 110.109 254.359 110.188L254.125 110.422C254.047 110.5 253.976 110.562 253.914 110.609C253.742 110.719 253.562 110.812 253.375 110.891C253.187 110.984 253.008 111.078 252.836 111.172C252.664 111.266 252.5 111.375 252.344 111.5C252.187 111.641 252.062 111.812 251.969 112.016C251.656 112.141 251.351 112.273 251.054 112.414C250.773 112.555 250.5 112.703 250.234 112.859C250.156 112.938 250.086 113.016 250.023 113.094C249.961 113.172 249.914 113.258 249.883 113.352C249.461 113.492 249.109 113.703 248.828 113.984C248.562 114.266 248.289 114.57 248.008 114.898L247.984 114.875C247.875 114.875 247.804 114.914 247.773 114.992C247.758 115.07 247.672 115.094 247.515 115.062C247.219 115.391 246.906 115.695 246.578 115.977C246.25 116.258 245.914 116.539 245.57 116.82C245.226 117.102 244.883 117.383 244.539 117.664C244.195 117.961 243.875 118.273 243.578 118.602C243.375 118.664 243.179 118.742 242.992 118.836C242.804 118.93 242.664 119.07 242.57 119.258H242.5C242.328 119.258 242.203 119.297 242.125 119.375C242.062 119.453 241.984 119.555 241.89 119.68C241.562 119.758 241.226 119.844 240.883 119.938C240.539 120.031 240.187 120.078 239.828 120.078C239.578 120.078 239.336 120.031 239.101 119.938C238.883 119.844 238.664 119.719 238.445 119.562C238.242 119.422 238.047 119.266 237.859 119.094C237.687 118.922 237.523 118.758 237.367 118.602C237.273 118.289 237.148 117.961 236.992 117.617C236.851 117.289 236.781 116.969 236.781 116.656C236.781 116.578 236.789 116.5 236.804 116.422C236.836 116.359 236.851 116.297 236.851 116.234C236.851 116.125 236.812 116.078 236.734 116.094C236.672 116.109 236.625 116.07 236.594 115.977C236.562 115.82 236.539 115.641 236.523 115.438C236.523 115.25 236.508 115.07 236.476 114.898C236.429 114.539 236.367 114.172 236.289 113.797C236.226 113.422 236.156 113.055 236.078 112.695C236.14 112.664 236.187 112.609 236.219 112.531C236.265 112.469 236.312 112.406 236.359 112.344C236.312 112.219 236.265 112.078 236.219 111.922C236.187 111.781 236.172 111.633 236.172 111.477C236.172 111.164 236.289 110.93 236.523 110.773C236.523 110.664 236.492 110.578 236.429 110.516C236.383 110.469 236.359 110.383 236.359 110.258C236.359 110.227 236.367 110.141 236.383 110C236.414 109.844 236.445 109.672 236.476 109.484C236.523 109.297 236.562 109.117 236.594 108.945C236.625 108.773 236.648 108.656 236.664 108.594C236.773 107.875 236.867 107.172 236.945 106.484C237.023 105.781 237.133 105.078 237.273 104.375C237.117 104.25 236.914 104.156 236.664 104.094C236.429 104.016 236.265 103.914 236.172 103.789C236.094 103.68 236.031 103.539 235.984 103.367C235.937 103.195 235.914 103.047 235.914 102.922C235.914 102.469 236.094 102.109 236.453 101.844C236.812 101.562 237.195 101.398 237.601 101.352C237.804 100.805 237.953 100.25 238.047 99.6875C238.156 99.1094 238.242 98.5312 238.304 97.9531L238.492 96.1953C238.554 95.6016 238.648 95.0156 238.773 94.4375H238.633C238.32 94.4375 238.015 94.4844 237.719 94.5781C237.422 94.6719 237.117 94.7188 236.804 94.7188H236.758C236.304 94.3594 236.078 93.9297 236.078 93.4297C236.078 93.1328 236.14 92.8359 236.265 92.5391C236.515 92.4453 236.742 92.3203 236.945 92.1641C237.148 92.0078 237.351 91.8516 237.554 91.6953C237.773 91.5234 237.992 91.375 238.211 91.25C238.429 91.125 238.672 91.0469 238.937 91.0156C238.969 90.5625 239.047 90.1094 239.172 89.6562C239.297 89.2031 239.359 88.75 239.359 88.2969C239.359 88.2031 239.351 88.1094 239.336 88.0156C239.336 87.9219 239.32 87.8281 239.289 87.7344C239.398 87.5938 239.469 87.4453 239.5 87.2891C239.547 87.1328 239.57 86.9688 239.57 86.7969C239.57 86.6094 239.554 86.4297 239.523 86.2578C239.508 86.0703 239.484 85.8906 239.453 85.7188C239.594 85.6562 239.703 85.5938 239.781 85.5312C239.859 85.4531 239.929 85.3828 239.992 85.3203C240.07 85.2578 240.164 85.2031 240.273 85.1562C240.383 85.1094 240.539 85.0859 240.742 85.0859C241.039 85.0859 241.289 85.1484 241.492 85.2734C241.711 85.3828 241.898 85.5312 242.054 85.7188C242.211 85.9062 242.344 86.1172 242.453 86.3516C242.578 86.5859 242.695 86.8203 242.804 87.0547C242.773 87.2266 242.703 87.3516 242.594 87.4297C242.484 87.5078 242.39 87.6094 242.312 87.7344C242.344 87.9844 242.375 88.2266 242.406 88.4609C242.437 88.6797 242.437 88.9141 242.406 89.1641C242.562 89.2422 242.711 89.2812 242.851 89.2812C243.086 89.2812 243.297 89.2188 243.484 89.0938C243.687 88.9688 243.828 88.7969 243.906 88.5781H243.953C244 88.5781 244.039 88.5938 244.07 88.625C244.117 88.6562 244.172 88.6719 244.234 88.6719H244.328C244.5 88.5156 244.687 88.3984 244.89 88.3203C245.094 88.2266 245.304 88.1406 245.523 88.0625C245.742 87.9844 245.953 87.9062 246.156 87.8281C246.375 87.7344 246.578 87.6172 246.765 87.4766C246.859 87.5234 246.961 87.5469 247.07 87.5469C247.226 87.5469 247.375 87.5156 247.515 87.4531C247.672 87.3906 247.82 87.3281 247.961 87.2656C248.101 87.1875 248.25 87.1172 248.406 87.0547C248.578 86.9922 248.758 86.9609 248.945 86.9609C248.976 86.9609 249.015 86.9688 249.062 86.9844C249.109 86.9844 249.148 86.9844 249.179 86.9844C249.289 86.9844 249.351 86.9453 249.367 86.8672C249.383 86.7891 249.383 86.7188 249.367 86.6562C249.867 86.5312 250.297 86.3906 250.656 86.2344C251.031 86.0625 251.445 85.8672 251.898 85.6484C251.898 85.6328 251.914 85.625 251.945 85.625C251.992 85.625 252.023 85.6484 252.039 85.6953C252.054 85.7422 252.062 85.7812 252.062 85.8125C252.156 85.7656 252.203 85.6875 252.203 85.5781C252.219 85.4688 252.258 85.375 252.32 85.2969C252.383 85.3125 252.469 85.3203 252.578 85.3203C252.719 85.3203 252.859 85.2891 253 85.2266C253.156 85.1641 253.304 85.0938 253.445 85.0156C253.586 84.9375 253.726 84.8672 253.867 84.8047C254.008 84.7422 254.148 84.7109 254.289 84.7109C254.414 84.7109 254.515 84.7422 254.594 84.8047C254.687 84.7578 254.781 84.6953 254.875 84.6172C254.969 84.5234 255.07 84.4766 255.179 84.4766C255.211 84.4766 255.234 84.4844 255.25 84.5C255.281 84.5156 255.312 84.5312 255.344 84.5469C255.422 84.4688 255.492 84.4062 255.554 84.3594C255.633 84.3125 255.672 84.2344 255.672 84.125C256.25 84.0625 256.781 83.9375 257.265 83.75C257.765 83.5469 258.242 83.2812 258.695 82.9531C258.867 82.9844 259.031 83.0234 259.187 83.0703C259.359 83.1016 259.531 83.1172 259.703 83.1172C259.797 83.2891 259.883 83.4609 259.961 83.6328C260.039 83.8047 260.211 83.8828 260.476 83.8672C260.492 83.9453 260.5 84.0312 260.5 84.125C260.515 84.2188 260.523 84.3047 260.523 84.3828ZM285.929 110.961C285.898 111.273 285.789 111.516 285.601 111.688C285.414 111.875 285.172 111.969 284.875 111.969C284.719 111.969 284.57 111.945 284.429 111.898C284.133 112.133 283.781 112.312 283.375 112.438C282.969 112.562 282.586 112.688 282.226 112.812C281.789 112.797 281.359 112.758 280.937 112.695C280.515 112.633 280.078 112.617 279.625 112.648C279.469 112.539 279.304 112.469 279.133 112.438C278.961 112.406 278.781 112.383 278.594 112.367C278.422 112.367 278.25 112.344 278.078 112.297C277.922 112.25 277.765 112.141 277.609 111.969H276.437C276.328 111.969 276.164 111.914 275.945 111.805C275.742 111.711 275.508 111.609 275.242 111.5C274.992 111.391 274.719 111.289 274.422 111.195C274.14 111.102 273.875 111.055 273.625 111.055H273.484C273.312 110.914 273.109 110.805 272.875 110.727C272.656 110.664 272.429 110.602 272.195 110.539C271.961 110.492 271.734 110.438 271.515 110.375C271.297 110.312 271.109 110.227 270.953 110.117C270.797 110.008 270.617 109.898 270.414 109.789C270.211 109.664 270 109.609 269.781 109.625C269.484 109.453 269.172 109.305 268.844 109.18C268.531 109.055 268.211 108.938 267.883 108.828L266.922 108.477C266.609 108.352 266.297 108.203 265.984 108.031C265.937 108.047 265.883 108.047 265.82 108.031C265.758 108.016 265.703 108.008 265.656 108.008C265.562 108.008 265.508 108.039 265.492 108.102C265.383 107.992 265.258 107.898 265.117 107.82C264.992 107.742 264.867 107.648 264.742 107.539C264.679 107.555 264.617 107.57 264.554 107.586C264.508 107.586 264.445 107.586 264.367 107.586C264.226 107.586 264.086 107.57 263.945 107.539C263.82 107.508 263.695 107.469 263.57 107.422C263.429 107.734 263.336 108.086 263.289 108.477C263.242 108.867 263.203 109.273 263.172 109.695C263.156 110.102 263.133 110.508 263.101 110.914C263.07 111.336 263 111.719 262.89 112.062C262.922 112.188 262.937 112.312 262.937 112.438V112.836C262.937 113.102 262.976 113.312 263.054 113.469C263.023 113.609 262.992 113.742 262.961 113.867C262.945 113.992 262.922 114.117 262.89 114.242C262.906 114.414 262.914 114.57 262.914 114.711C262.929 114.867 262.937 115.031 262.937 115.203V115.602C262.937 115.742 262.922 115.883 262.89 116.023C262.734 116.117 262.578 116.203 262.422 116.281C262.265 116.375 262.109 116.484 261.953 116.609C261.844 116.406 261.656 116.289 261.39 116.258C261.328 116.336 261.281 116.438 261.25 116.562C261.234 116.703 261.164 116.773 261.039 116.773C260.82 116.602 260.64 116.461 260.5 116.352C260.359 116.242 260.203 116.078 260.031 115.859C260.015 115.828 260.008 115.789 260.008 115.742C260.008 115.664 260.023 115.594 260.054 115.531C260.086 115.469 260.101 115.406 260.101 115.344C260.101 115.156 260.078 114.992 260.031 114.852C260 114.648 259.976 114.445 259.961 114.242C259.945 114.055 259.937 113.867 259.937 113.68C259.937 113.414 259.953 113.156 259.984 112.906C260.031 112.656 260.109 112.398 260.219 112.133C260.39 111.68 260.508 111.203 260.57 110.703C260.648 110.203 260.703 109.703 260.734 109.203C260.765 108.688 260.781 108.172 260.781 107.656C260.797 107.141 260.828 106.648 260.875 106.18C260.765 105.93 260.633 105.734 260.476 105.594C260.336 105.438 260.265 105.195 260.265 104.867C260.265 104.57 260.359 104.344 260.547 104.188C260.734 104.016 260.898 103.812 261.039 103.578C261.008 103.484 261.031 103.422 261.109 103.391L261.39 100.93C261.406 100.758 261.429 100.57 261.461 100.367C261.508 100.164 261.539 99.9766 261.554 99.8047C261.586 99.4453 261.601 99.0938 261.601 98.75C261.601 98.4062 261.617 98.0625 261.648 97.7188C261.726 96.9531 261.797 96.1953 261.859 95.4453C261.937 94.6953 261.976 93.9453 261.976 93.1953C261.976 92.8359 261.961 92.4766 261.929 92.1172C261.914 91.7578 261.867 91.3984 261.789 91.0391C261.523 91.1172 261.226 91.2031 260.898 91.2969C260.586 91.375 260.32 91.5156 260.101 91.7188H259.914C259.508 91.7188 259.125 91.7969 258.765 91.9531C258.422 92.1094 258.07 92.2578 257.711 92.3984C257.554 92.4766 257.398 92.5312 257.242 92.5625C257.086 92.5781 256.922 92.6094 256.75 92.6562C256.672 92.6719 256.586 92.7188 256.492 92.7969C256.398 92.875 256.312 92.9297 256.234 92.9609L255.836 93.0547C255.726 93.0859 255.679 93.1562 255.695 93.2656C255.711 93.375 255.672 93.4453 255.578 93.4766C255.5 93.5547 255.39 93.5938 255.25 93.5938C255.109 93.5781 255 93.5703 254.922 93.5703H254.828C254.437 93.8516 254.062 94.0938 253.703 94.2969C253.328 94.4844 252.89 94.6094 252.39 94.6719L251.875 95C251.703 95.1094 251.508 95.1641 251.289 95.1641C251.117 95.1641 250.976 95.1328 250.867 95.0703C250.742 94.8828 250.648 94.6719 250.586 94.4375C250.508 94.2031 250.383 94 250.211 93.8281C250.289 93.75 250.344 93.6484 250.375 93.5234C250.39 93.3828 250.414 93.2578 250.445 93.1484C250.914 92.9453 251.39 92.75 251.875 92.5625C252.344 92.375 252.797 92.1484 253.234 91.8828C253.281 91.8984 253.351 91.9062 253.445 91.9062C253.601 91.9062 253.742 91.8828 253.867 91.8359C253.992 91.7891 254.117 91.7344 254.242 91.6719C254.367 91.6094 254.492 91.5547 254.617 91.5078C254.742 91.4609 254.89 91.4453 255.062 91.4609C255.594 91.1641 256.156 90.9219 256.75 90.7344C257.344 90.5469 257.906 90.2891 258.437 89.9609C258.515 89.9609 258.578 89.9766 258.625 90.0078C258.687 90.0391 258.75 90.0547 258.812 90.0547C258.875 90.0547 258.914 90.0469 258.929 90.0312C259.023 89.9062 259.148 89.8203 259.304 89.7734C259.461 89.7109 259.617 89.6641 259.773 89.6328C259.945 89.5859 260.101 89.5312 260.242 89.4688C260.398 89.3906 260.5 89.2734 260.547 89.1172C260.625 89.1797 260.742 89.2109 260.898 89.2109C261.164 89.2109 261.406 89.1562 261.625 89.0469C261.859 88.9375 262.109 88.8828 262.375 88.8828C262.437 88.8828 262.492 88.8984 262.539 88.9297C262.601 88.9453 262.664 88.9531 262.726 88.9531C262.851 88.9531 262.914 88.9141 262.914 88.8359C262.929 88.7578 262.976 88.6875 263.054 88.625C264.008 88.4531 264.953 88.2969 265.89 88.1562C266.844 88.0156 267.804 87.9453 268.773 87.9453C268.914 87.8516 269.07 87.8047 269.242 87.8047C269.414 87.8047 269.57 87.8516 269.711 87.9453C269.976 87.9141 270.242 87.8906 270.508 87.875C270.773 87.8594 271.039 87.8516 271.304 87.8516C271.914 87.8516 272.539 87.8906 273.179 87.9688C273.82 88.0469 274.453 88.1719 275.078 88.3438C275.719 88.5 276.328 88.7188 276.906 89C277.484 89.2656 278.023 89.5859 278.523 89.9609C278.57 90.1016 278.633 90.2422 278.711 90.3828C278.789 90.5234 278.89 90.6328 279.015 90.7109C279.015 90.7422 279.008 90.7656 278.992 90.7812C278.992 90.7969 278.992 90.8203 278.992 90.8516C278.992 91.0234 279.039 91.1875 279.133 91.3438C279.242 91.5 279.297 91.6875 279.297 91.9062C279.297 92.125 279.258 92.3438 279.179 92.5625C279.117 92.7812 279.094 93 279.109 93.2188C278.937 93.4688 278.789 93.6953 278.664 93.8984C278.554 94.1016 278.484 94.3594 278.453 94.6719C278.172 94.9531 277.922 95.2656 277.703 95.6094C277.484 95.9375 277.258 96.2656 277.023 96.5938C276.804 96.9062 276.554 97.1953 276.273 97.4609C275.992 97.7266 275.656 97.9375 275.265 98.0938C275.25 98.25 275.187 98.4219 275.078 98.6094H274.586C274.539 98.7344 274.461 98.8281 274.351 98.8906L274.023 99.0781C273.914 99.1406 273.82 99.2188 273.742 99.3125C273.679 99.4062 273.648 99.5391 273.648 99.7109C273.617 99.6953 273.578 99.6875 273.531 99.6875C273.375 99.6875 273.187 99.7656 272.969 99.9219C272.765 100.078 272.601 100.203 272.476 100.297C272.211 100.484 271.937 100.656 271.656 100.812C271.39 100.969 271.156 101.188 270.953 101.469C270.328 101.734 269.734 102.047 269.172 102.406C268.609 102.75 268 103.023 267.344 103.227C267.094 103.492 266.797 103.703 266.453 103.859C266.125 104 265.804 104.156 265.492 104.328V104.398C265.492 104.523 265.539 104.648 265.633 104.773C265.726 104.883 265.836 104.984 265.961 105.078C266.086 105.156 266.219 105.211 266.359 105.242C266.515 105.273 266.648 105.273 266.758 105.242C267.07 105.523 267.429 105.75 267.836 105.922C268.242 106.094 268.664 106.25 269.101 106.391C269.539 106.531 269.969 106.68 270.39 106.836C270.812 106.992 271.203 107.188 271.562 107.422H272.125C272.484 107.734 272.906 107.969 273.39 108.125C273.89 108.281 274.367 108.422 274.82 108.547C275.008 108.719 275.242 108.852 275.523 108.945C275.82 109.023 276.101 109.062 276.367 109.062H276.508C276.57 109.062 276.625 109.055 276.672 109.039V109.086C276.672 109.164 276.695 109.219 276.742 109.25C276.789 109.266 276.836 109.281 276.883 109.297C276.945 109.297 277 109.312 277.047 109.344C277.109 109.359 277.156 109.391 277.187 109.438H277.422C277.75 109.438 278.062 109.508 278.359 109.648C278.656 109.773 278.969 109.836 279.297 109.836C279.437 109.836 279.547 109.82 279.625 109.789C279.719 109.82 279.789 109.883 279.836 109.977C279.883 110.07 279.945 110.148 280.023 110.211C280.133 110.195 280.234 110.18 280.328 110.164C280.422 110.164 280.515 110.164 280.609 110.164C280.953 110.164 281.273 110.203 281.57 110.281C281.867 110.359 282.172 110.477 282.484 110.633C282.984 110.414 283.476 110.234 283.961 110.094C284.445 109.953 284.961 109.883 285.508 109.883V109.93C285.508 110.117 285.554 110.289 285.648 110.445C285.758 110.617 285.851 110.789 285.929 110.961ZM276.953 92.2578C276.953 92.0703 276.914 91.9219 276.836 91.8125C276.773 91.7031 276.687 91.6094 276.578 91.5312C276.469 91.4375 276.351 91.3516 276.226 91.2734C276.117 91.1953 276.015 91.0938 275.922 90.9688C275.515 90.8438 275.117 90.7031 274.726 90.5469C274.336 90.3906 273.937 90.2578 273.531 90.1484C273.328 90.1016 273.125 90.0625 272.922 90.0312C272.719 89.9844 272.515 89.9609 272.312 89.9609H271.797C271.703 89.9453 271.601 89.9297 271.492 89.9141C271.398 89.8828 271.304 89.8594 271.211 89.8438C270.992 89.8125 270.773 89.7891 270.554 89.7734C270.351 89.7578 270.14 89.75 269.922 89.75C269.515 89.75 269.109 89.7656 268.703 89.7969L267.484 89.8906C267.312 89.9062 267.133 89.9141 266.945 89.9141C266.758 89.9141 266.586 89.9297 266.429 89.9609C266.351 89.9766 266.242 90.0156 266.101 90.0781C265.961 90.125 265.812 90.1797 265.656 90.2422C265.5 90.2891 265.344 90.3438 265.187 90.4062C265.047 90.4688 264.922 90.5156 264.812 90.5469C264.828 90.6562 264.836 90.7656 264.836 90.875V91.1797C264.836 91.4141 264.828 91.6484 264.812 91.8828C264.797 92.1172 264.765 92.3516 264.719 92.5859C264.703 92.6797 264.679 92.7734 264.648 92.8672C264.617 92.9609 264.594 93.0547 264.578 93.1484C264.547 93.2891 264.531 93.4453 264.531 93.6172V94.0625C264.5 94.4219 264.476 94.7734 264.461 95.1172C264.445 95.4609 264.422 95.8125 264.39 96.1719C264.297 97.2031 264.195 98.2266 264.086 99.2422C263.992 100.258 263.929 101.281 263.898 102.312C264.414 102.203 264.906 102.039 265.375 101.82C265.844 101.602 266.304 101.367 266.758 101.117C267.211 100.852 267.664 100.594 268.117 100.344C268.57 100.094 269.047 99.8828 269.547 99.7109C269.672 99.5391 269.82 99.3984 269.992 99.2891C270.179 99.1797 270.336 99.0391 270.461 98.8672C270.617 98.8672 270.734 98.8359 270.812 98.7734C270.89 98.6953 270.992 98.6406 271.117 98.6094C271.867 97.9531 272.633 97.3359 273.414 96.7578C274.195 96.1797 274.945 95.5625 275.664 94.9062C275.726 94.6875 275.828 94.4766 275.969 94.2734C276.125 94.0547 276.273 93.8359 276.414 93.6172C276.554 93.3984 276.679 93.1797 276.789 92.9609C276.898 92.7422 276.953 92.5078 276.953 92.2578Z" fill="#505050"/>
<path d="M144.647 111.834C110.476 116.685 39.2712 135.709 27.8181 173.007M27.8181 173.007L64.6826 168.656M27.8181 173.007L19.3509 138.464" stroke="white" stroke-opacity="0.5"/>
<path d="M140.413 92.7871C106.021 89.8908 33.8488 74.9518 20.2904 38.3665M20.2904 38.3665L57.3428 40.6118M20.2904 38.3665L13.8039 73.3357" stroke="white" stroke-opacity="0.5"/>
<path d="M303 100.979C334.027 85.8618 403.674 61.7504 434.049 86.2384M434.049 86.2384L401.069 103.277M434.049 86.2384L421.72 52.8779" stroke="white" stroke-opacity="0.5"/>
</svg>
