<svg width="192" height="158" viewBox="0 0 192 158" fill="none" xmlns="http://www.w3.org/2000/svg">
<path d="M34.8594 30.25C34.8594 30.4219 34.8203 30.5859 34.7422 30.7422C34.4297 30.9141 34.1016 31.0312 33.7578 31.0938C33.4297 31.1719 33.1016 31.2109 32.7734 31.2109C32.6172 31.2109 32.4453 31.2031 32.2578 31.1875C32.0859 31.1875 31.9297 31.1719 31.7891 31.1406C31.7422 31.125 31.6875 31.0938 31.625 31.0469C31.5625 31 31.5 30.9766 31.4375 30.9766C31.2812 30.9766 31.1328 31 30.9922 31.0469C30.8516 31.1094 30.7031 31.1406 30.5469 31.1406C30.4688 31.1406 30.3906 31.1172 30.3125 31.0703C30.25 31.0234 30.1797 30.9922 30.1016 30.9766C29.9922 30.9453 29.8828 30.9375 29.7734 30.9531C29.6641 30.9688 29.5469 30.9766 29.4219 30.9766C29.25 30.9766 29.0938 30.9531 28.9531 30.9062C28.8281 30.8594 28.7109 30.7734 28.6016 30.6484C28.2109 30.6016 27.8281 30.5234 27.4531 30.4141C27.0781 30.3203 26.7031 30.2109 26.3281 30.0859C25.9531 29.9766 25.5781 29.8672 25.2031 29.7578C24.8281 29.6641 24.4453 29.6016 24.0547 29.5703C23.9609 29.4609 23.8516 29.375 23.7266 29.3125C23.6016 29.2656 23.5078 29.1797 23.4453 29.0547C23.3672 29.0547 23.3125 29.0625 23.2812 29.0781C23.25 29.1094 23.1953 29.125 23.1172 29.125C22.8516 28.9062 22.5625 28.7188 22.25 28.5625C21.9531 28.4062 21.6406 28.2578 21.3125 28.1172C21 27.9766 20.6875 27.8281 20.375 27.6719C20.0781 27.5312 19.7969 27.3438 19.5312 27.1094H19.4141C19.2891 27.125 19.1797 27.0938 19.0859 27.0156C19.0078 26.9531 18.9062 26.9219 18.7812 26.9219C18.7031 26.9219 18.6406 26.9297 18.5938 26.9453C18.5469 26.8203 18.4766 26.7188 18.3828 26.6406C18.2891 26.5625 18.1875 26.4844 18.0781 26.4062C17.9844 26.3438 17.8906 26.2734 17.7969 26.1953C17.7031 26.1328 17.6328 26.0469 17.5859 25.9375C17.1953 25.7969 16.8125 25.625 16.4375 25.4219C16.0781 25.2344 15.7578 24.9844 15.4766 24.6719C15.1641 24.6406 14.9062 24.5469 14.7031 24.3906C14.5 24.2188 14.3125 24.0078 14.1406 23.7578C13.7656 23.6328 13.4219 23.4688 13.1094 23.2656C12.7969 23.0625 12.4844 22.8516 12.1719 22.6328C11.875 22.4141 11.5547 22.2188 11.2109 22.0469C10.8828 21.8594 10.5078 21.7266 10.0859 21.6484C10.0703 21.5391 10.0234 21.4609 9.94531 21.4141C9.86719 21.3516 9.77344 21.3047 9.66406 21.2734C9.57031 21.2266 9.47656 21.1875 9.38281 21.1562C9.28906 21.125 9.21875 21.0625 9.17188 20.9688C9.125 20.9688 9.07812 20.9688 9.03125 20.9688C8.98438 20.9531 8.9375 20.9453 8.89062 20.9453C8.84375 20.9453 8.78906 20.9531 8.72656 20.9688C8.67969 20.9688 8.63281 20.9688 8.58594 20.9688L8.60938 20.8984C8.60938 20.8359 8.58594 20.7969 8.53906 20.7812C8.50781 20.7656 8.46094 20.75 8.39844 20.7344C8.33594 20.7188 8.28125 20.6953 8.23438 20.6641C8.1875 20.6328 8.16406 20.5625 8.16406 20.4531H8.09375C7.92188 20.4531 7.76562 20.4219 7.625 20.3594C7.48438 20.2969 7.32812 20.25 7.15625 20.2188C7.125 20.3906 7.10938 20.5547 7.10938 20.7109V21.1328C7.10938 21.8359 7.1875 22.5781 7.34375 23.3594C7.5 24.125 7.74219 24.8125 8.07031 25.4219C8.39844 25.5469 8.67969 25.7109 8.91406 25.9141C9.14844 26.1172 9.375 26.3516 9.59375 26.6172C9.60938 27.0391 9.45312 27.3906 9.125 27.6719C8.8125 27.9688 8.44531 28.1172 8.02344 28.1172C7.78906 28.1172 7.57031 28.0547 7.36719 27.9297C7.17969 27.8203 7.02344 27.6562 6.89844 27.4375C6.80469 27.4375 6.71875 27.4531 6.64062 27.4844C6.5625 27.5312 6.46875 27.5547 6.35938 27.5547C6.3125 27.5547 6.26562 27.5469 6.21875 27.5312C6.0625 27.2656 5.90625 27.0312 5.75 26.8281C5.60938 26.625 5.51562 26.3516 5.46875 26.0078C5.29688 25.9297 5.1875 25.7891 5.14062 25.5859C5.10938 25.3828 5.02344 25.2188 4.88281 25.0938C4.82031 24.3906 4.73438 23.6875 4.625 22.9844C4.53125 22.2812 4.48438 21.5781 4.48438 20.875C4.48438 20.7188 4.49219 20.5625 4.50781 20.4062C4.52344 20.2344 4.53906 20.0625 4.55469 19.8906C4.52344 19.8125 4.47656 19.7422 4.41406 19.6797C4.36719 19.6016 4.32812 19.5234 4.29688 19.4453C3.98438 19.5234 3.65625 19.6016 3.3125 19.6797C2.98438 19.7422 2.64844 19.7734 2.30469 19.7734C2.08594 19.7734 1.82031 19.7422 1.50781 19.6797C1.19531 19.6016 0.953125 19.5 0.78125 19.375C0.65625 19.2969 0.570312 19.1562 0.523438 18.9531C0.460938 18.7344 0.429688 18.5469 0.429688 18.3906C0.429688 18.125 0.476562 17.8594 0.570312 17.5938C0.664062 17.3125 0.789062 17.0703 0.945312 16.8672C1.71094 16.5547 2.42188 16.1719 3.07812 15.7188C3.75 15.2656 4.40625 14.7734 5.04688 14.2422C5.0625 14.0859 5.08594 13.9297 5.11719 13.7734C5.16406 13.6172 5.1875 13.4531 5.1875 13.2812C5.1875 13.0938 5.14062 12.9141 5.04688 12.7422C5.14062 12.6484 5.1875 12.5312 5.1875 12.3906C5.1875 12.2344 5.22656 12.0938 5.30469 11.9688V11.8281C5.30469 11.7656 5.29688 11.7031 5.28125 11.6406C5.28125 11.5781 5.25781 11.5156 5.21094 11.4531C5.32031 10.8438 5.40625 10.2422 5.46875 9.64844C5.53125 9.03906 5.5625 8.41406 5.5625 7.77344C5.5625 7.72656 5.58594 7.60156 5.63281 7.39844C5.69531 7.17969 5.73438 7.03125 5.75 6.95312C5.8125 6.59375 5.85156 6.24219 5.86719 5.89844C5.89844 5.53906 5.9375 5.17969 5.98438 4.82031C6 4.69531 6.03125 4.53125 6.07812 4.32812C6.125 4.125 6.14844 3.98438 6.14844 3.90625C6.14844 3.79688 6.125 3.72656 6.07812 3.69531C6.04688 3.64844 6.01562 3.57812 5.98438 3.48438C6.07812 3.125 6.125 2.76563 6.125 2.40625C6.14062 2.03125 6.17188 1.66406 6.21875 1.30469C6.48438 1.19531 6.69531 1.08594 6.85156 0.976562C7.00781 0.867187 7.23438 0.8125 7.53125 0.8125H7.57812C7.60938 1 7.67969 1.17969 7.78906 1.35156C7.89844 1.50781 8.00781 1.67187 8.11719 1.84375C8.24219 2 8.35156 2.15625 8.44531 2.3125C8.53906 2.45312 8.58594 2.59375 8.58594 2.73438C8.58594 3 8.5625 3.28906 8.51562 3.60156C8.46875 3.91406 8.42969 4.20312 8.39844 4.46875C8.32031 5.17188 8.25 5.86719 8.1875 6.55469C8.125 7.22656 8.03125 7.91406 7.90625 8.61719C7.95312 8.83594 7.97656 9.03906 7.97656 9.22656C7.97656 9.50781 7.95312 9.78906 7.90625 10.0703C7.85938 10.3516 7.83594 10.6406 7.83594 10.9375C7.83594 11.0781 7.84375 11.2266 7.85938 11.3828C7.89062 11.5391 7.9375 11.6797 8 11.8047C8.53125 11.6641 9.00781 11.375 9.42969 10.9375C9.49219 10.875 9.55469 10.7969 9.61719 10.7031C9.69531 10.5938 9.77344 10.5078 9.85156 10.4453C10.0078 10.3203 10.1719 10.2109 10.3438 10.1172C10.5312 10.0078 10.7109 9.89844 10.8828 9.78906C11.2891 9.52344 11.6797 9.25 12.0547 8.96875C12.4453 8.67188 12.8359 8.38281 13.2266 8.10156C14.3828 7.25781 15.5 6.38281 16.5781 5.47656C17.6719 4.55469 18.7344 3.58594 19.7656 2.57031C19.8125 2.30469 19.9062 2.09375 20.0469 1.9375C20.1875 1.78125 20.3125 1.59375 20.4219 1.375C20.7188 1.26563 20.9766 1.10156 21.1953 0.882812C21.2891 0.914062 21.3828 0.9375 21.4766 0.953125C21.5859 0.953125 21.6875 0.953125 21.7812 0.953125C21.8906 0.953125 21.9922 0.960937 22.0859 0.976562C22.1953 0.976562 22.2891 1 22.3672 1.04688C22.3828 1.28125 22.4062 1.49219 22.4375 1.67969C22.4688 1.86719 22.5625 2.04687 22.7188 2.21875C22.7188 2.25 22.7188 2.28125 22.7188 2.3125C22.7344 2.34375 22.7422 2.375 22.7422 2.40625C22.7422 2.57813 22.6953 2.71875 22.6016 2.82812C22.5078 2.9375 22.4531 3.07031 22.4375 3.22656L21.2188 4.44531C20.8125 4.85156 20.4375 5.28906 20.0938 5.75781C19.9688 5.77344 19.8594 5.8125 19.7656 5.875C19.6719 5.9375 19.5781 6.00781 19.4844 6.08594C19.4062 6.14844 19.3203 6.21094 19.2266 6.27344C19.1328 6.33594 19.0312 6.38281 18.9219 6.41406C18.6406 6.78906 18.3203 7.13281 17.9609 7.44531C17.6016 7.74219 17.2344 8.03125 16.8594 8.3125C16.4844 8.59375 16.1094 8.88281 15.7344 9.17969C15.375 9.46094 15.0391 9.77344 14.7266 10.1172C14.3984 10.2734 14.0781 10.4609 13.7656 10.6797C13.4688 10.8828 13.2266 11.1406 13.0391 11.4531H12.9219C12.8438 11.4531 12.7812 11.4766 12.7344 11.5234C12.6875 11.5547 12.625 11.5703 12.5469 11.5703C11.7031 12.3047 10.8281 13 9.92188 13.6562C9.01562 14.2969 8.14844 15 7.32031 15.7656V16.3516C7.58594 16.5078 7.875 16.6562 8.1875 16.7969C8.5 16.9219 8.80469 17.0625 9.10156 17.2188C9.41406 17.375 9.70312 17.5469 9.96875 17.7344C10.25 17.9062 10.4922 18.1172 10.6953 18.3672C10.7266 18.3516 10.7656 18.3438 10.8125 18.3438C10.9531 18.3438 11.0625 18.3906 11.1406 18.4844C11.2188 18.5625 11.3516 18.5859 11.5391 18.5547C11.6016 18.8047 11.7422 18.9844 11.9609 19.0938C12.1797 19.2031 12.3984 19.2969 12.6172 19.375C12.8047 19.5625 12.9766 19.7422 13.1328 19.9141C13.2891 20.0703 13.5156 20.1719 13.8125 20.2188C13.8438 20.2812 13.8672 20.3516 13.8828 20.4297C13.8984 20.5078 13.9297 20.5781 13.9766 20.6406C14.2734 20.7344 14.5547 20.8672 14.8203 21.0391C15.1016 21.2109 15.375 21.3906 15.6406 21.5781C15.9062 21.75 16.1719 21.9219 16.4375 22.0938C16.7188 22.25 17.0156 22.375 17.3281 22.4688C17.375 22.625 17.4609 22.7344 17.5859 22.7969C17.7266 22.8594 17.8359 22.9531 17.9141 23.0781H18.3359C18.3828 23.1562 18.4453 23.2344 18.5234 23.3125C18.6016 23.375 18.6562 23.4688 18.6875 23.5938C18.8125 23.625 18.9531 23.6719 19.1094 23.7344C19.2656 23.7812 19.4062 23.8438 19.5312 23.9219C19.5781 23.9688 19.6094 24.0234 19.625 24.0859C19.6562 24.1484 19.7031 24.2031 19.7656 24.25C19.8594 24.3281 20 24.3906 20.1875 24.4375C20.3906 24.4688 20.5625 24.5234 20.7031 24.6016C20.9844 24.7578 21.2578 24.9297 21.5234 25.1172C21.7891 25.3203 22.0703 25.5078 22.3672 25.6797L23.2812 26.1719C23.4375 26.25 23.5781 26.3359 23.7031 26.4297C23.8438 26.5234 23.9844 26.6094 24.125 26.6875C24.4062 26.8125 24.7031 26.8906 25.0156 26.9219C25.3438 26.9688 25.6406 27.0547 25.9062 27.1797C25.9844 27.2266 26.0391 27.2812 26.0703 27.3438C26.1016 27.4219 26.1562 27.4844 26.2344 27.5312C26.3594 27.6094 26.5547 27.6641 26.8203 27.6953C27.0859 27.7266 27.3047 27.7812 27.4766 27.8594C27.6953 27.9531 27.9062 28.0391 28.1094 28.1172C28.3281 28.2109 28.5469 28.3203 28.7656 28.4453C29.2344 28.4766 29.6953 28.5312 30.1484 28.6094C30.6172 28.6875 31.0781 28.7656 31.5312 28.8438C31.9844 28.9219 32.4375 28.9922 32.8906 29.0547C33.3594 29.1172 33.8281 29.1406 34.2969 29.125C34.2969 29.1562 34.3125 29.1719 34.3438 29.1719C34.3906 29.1875 34.4297 29.1953 34.4609 29.1953C34.5703 29.3672 34.6641 29.5391 34.7422 29.7109C34.8203 29.8828 34.8594 30.0625 34.8594 30.25ZM43.6953 19.6328C43.6953 19.9453 43.6406 20.2031 43.5312 20.4062C43.4375 20.5938 43.3281 20.8125 43.2031 21.0625C43.1719 21.0469 43.1328 21.0391 43.0859 21.0391C42.9922 21.0391 42.9062 21.0625 42.8281 21.1094C42.75 21.1562 42.6719 21.1953 42.5938 21.2266C42.1406 21.7266 41.6719 22.2109 41.1875 22.6797C40.7188 23.1484 40.1953 23.5625 39.6172 23.9219C39.4609 24.0156 39.3047 24.1094 39.1484 24.2031C38.9922 24.2812 38.8281 24.3594 38.6562 24.4375C38.5938 24.4688 38.5312 24.5 38.4688 24.5312C38.4219 24.5469 38.375 24.5703 38.3281 24.6016C38.2188 24.6641 38.1016 24.7656 37.9766 24.9062C37.8672 25.0469 37.7344 25.1875 37.5781 25.3281C37.4375 25.4844 37.2812 25.6094 37.1094 25.7031C36.9375 25.8125 36.75 25.8594 36.5469 25.8438C36.4219 25.9219 36.3125 26.0234 36.2188 26.1484C36.125 26.2734 36.0156 26.3984 35.8906 26.5234C35.2188 26.7578 34.6016 27.0625 34.0391 27.4375C33.4922 27.8281 32.9219 28.2031 32.3281 28.5625C31.9688 28.7969 31.6094 28.9844 31.25 29.125C31.1719 29.1562 31.0781 29.1797 30.9688 29.1953C30.875 29.2109 30.7734 29.2344 30.6641 29.2656C30.1484 29.3906 29.625 29.4922 29.0938 29.5703C28.5781 29.6484 28.0547 29.6875 27.5234 29.6875C26.8672 29.6875 26.2344 29.6094 25.625 29.4531C25.625 29.4062 25.6094 29.375 25.5781 29.3594C25.5469 29.3438 25.5078 29.3281 25.4609 29.3125C25.4297 29.2969 25.3984 29.2734 25.3672 29.2422C25.3359 29.2266 25.3359 29.1875 25.3672 29.125C25.0234 29.0938 24.7188 29.0078 24.4531 28.8672C24.2031 28.7266 24.0391 28.4766 23.9609 28.1172C23.9141 28.1484 23.875 28.1875 23.8438 28.2344C23.8125 28.2812 23.7578 28.2969 23.6797 28.2812C23.4609 27.9688 23.2188 27.6797 22.9531 27.4141C22.6875 27.1484 22.4922 26.8281 22.3672 26.4531C22.3359 26.375 22.3125 26.2969 22.2969 26.2188C22.2969 26.1562 22.2891 26.0859 22.2734 26.0078C22.1953 25.7891 22.0547 25.6797 21.8516 25.6797C21.8828 25.6172 21.8984 25.5391 21.8984 25.4453C21.8984 25.3984 21.8906 25.3516 21.875 25.3047C21.875 25.2578 21.875 25.2109 21.875 25.1641C21.875 25.0859 21.8984 25.0078 21.9453 24.9297C21.7891 24.5703 21.6797 24.2188 21.6172 23.875C21.5547 23.5156 21.5234 23.1484 21.5234 22.7734C21.5234 22.2891 21.5469 21.8125 21.5938 21.3438C21.6406 20.8594 21.6641 20.375 21.6641 19.8906C21.7578 19.7031 21.8281 19.4844 21.875 19.2344C21.9375 18.9844 22.0391 18.7812 22.1797 18.625C22.1641 18.5312 22.1328 18.4844 22.0859 18.4844C22.0391 18.4688 22.0156 18.4219 22.0156 18.3438C22.0156 18.0625 22.0703 17.7578 22.1797 17.4297C22.2891 17.1016 22.3438 16.7656 22.3438 16.4219C22.4844 16.3438 22.5703 16.2266 22.6016 16.0703C22.6484 15.9141 22.7344 15.7891 22.8594 15.6953V15.5781C22.8594 15.3438 22.8828 15.1094 22.9297 14.875C22.9922 14.6406 23.0469 14.4141 23.0938 14.1953C23.1562 13.9609 23.2031 13.7344 23.2344 13.5156C23.2812 13.2812 23.2969 13.0547 23.2812 12.8359C23.3125 12.7891 23.3516 12.7031 23.3984 12.5781C23.4609 12.4375 23.5156 12.2969 23.5625 12.1562C23.625 12 23.6719 11.8516 23.7031 11.7109C23.75 11.5703 23.7734 11.4688 23.7734 11.4062C23.7734 11.3125 23.7578 11.2266 23.7266 11.1484C23.6953 11.0703 23.6797 10.9844 23.6797 10.8906C23.6797 10.8125 23.7031 10.7031 23.75 10.5625C23.7969 10.4062 23.8359 10.2812 23.8672 10.1875C23.9297 9.92188 23.9844 9.64844 24.0312 9.36719C24.0938 9.07031 24.1484 8.78906 24.1953 8.52344C24.3359 7.66406 24.4375 6.80469 24.5 5.94531C24.5625 5.07031 24.6016 4.19531 24.6172 3.32031C24.8359 3.19531 25.0625 3.07812 25.2969 2.96875C25.5469 2.85938 25.8047 2.80469 26.0703 2.80469C26.1484 2.80469 26.2266 2.8125 26.3047 2.82812C26.3828 2.84375 26.4609 2.86719 26.5391 2.89844C26.6172 3.21094 26.7422 3.46094 26.9141 3.64844C27.0859 3.83594 27.2422 4.0625 27.3828 4.32812C27.2891 4.57812 27.2266 4.83594 27.1953 5.10156L27.125 5.89844C27.1094 6.16406 27.0781 6.42969 27.0312 6.69531C26.9844 6.94531 26.9062 7.1875 26.7969 7.42188C26.8281 7.5 26.8438 7.57812 26.8438 7.65625V7.89062C26.8438 8.10938 26.8203 8.32031 26.7734 8.52344C26.7422 8.72656 26.7031 8.9375 26.6562 9.15625C26.6094 9.35938 26.5703 9.5625 26.5391 9.76562C26.5078 9.96875 26.5078 10.1719 26.5391 10.375C26.4922 10.4531 26.4453 10.5156 26.3984 10.5625C26.3516 10.5938 26.3203 10.6484 26.3047 10.7266L26.2578 11.1719C26.2266 11.3438 26.1953 11.5156 26.1641 11.6875C26.1484 11.8438 26.125 12.0078 26.0938 12.1797C25.9844 12.6484 25.8594 13.1172 25.7188 13.5859C25.5938 14.0547 25.5312 14.5391 25.5312 15.0391V15.1797C25.3906 15.3984 25.2812 15.6719 25.2031 16C25.125 16.3125 25.1016 16.6016 25.1328 16.8672C24.9609 17.3203 24.7969 17.7656 24.6406 18.2031C24.4844 18.6406 24.4062 19.0938 24.4062 19.5625C24.4062 19.6406 24.4062 19.7266 24.4062 19.8203C24.4219 19.8984 24.4375 19.9766 24.4531 20.0547C24.3281 20.3672 24.25 20.6875 24.2188 21.0156C24.1875 21.3281 24.1719 21.6406 24.1719 21.9531C24.1719 22.1719 24.1797 22.4297 24.1953 22.7266C24.2266 23.0078 24.2656 23.3047 24.3125 23.6172C24.375 23.9141 24.4453 24.2031 24.5234 24.4844C24.6016 24.7656 24.6875 24.9922 24.7812 25.1641C25.1406 25.7422 25.6094 26.1953 26.1875 26.5234C26.7812 26.8672 27.4062 27.0859 28.0625 27.1797C28.3281 27.0859 28.5391 27.0312 28.6953 27.0156C28.8672 27 29.1016 27 29.3984 27.0156C29.6484 26.8906 29.8984 26.7969 30.1484 26.7344C30.4141 26.6719 30.6797 26.6016 30.9453 26.5234C31.0234 26.4922 31.1016 26.4609 31.1797 26.4297C31.2734 26.3984 31.3516 26.3672 31.4141 26.3359C31.4922 26.3047 31.5781 26.2344 31.6719 26.125C31.7656 26.0156 31.8516 25.9219 31.9297 25.8438C32.2578 25.75 32.5703 25.6172 32.8672 25.4453C33.1641 25.2891 33.4531 25.125 33.7344 24.9531L34.6016 24.4375C34.8984 24.2656 35.2109 24.1172 35.5391 23.9922C35.6641 23.9453 35.7344 23.8828 35.75 23.8047C35.7812 23.7109 35.8281 23.6016 35.8906 23.4766C35.9219 23.5078 35.9688 23.5234 36.0312 23.5234C36.2188 23.5234 36.3516 23.4688 36.4297 23.3594C36.5078 23.2344 36.6016 23.1094 36.7109 22.9844C36.9141 22.9531 37.1094 22.8984 37.2969 22.8203C37.4844 22.7266 37.625 22.5859 37.7188 22.3984C38.1094 22.3203 38.4531 22.1797 38.75 21.9766C39.0469 21.7734 39.3359 21.5547 39.6172 21.3203C39.8984 21.0703 40.1797 20.8359 40.4609 20.6172C40.7422 20.3828 41.0625 20.1953 41.4219 20.0547C41.4688 19.9766 41.5 19.9062 41.5156 19.8438C41.5312 19.7812 41.5547 19.7109 41.5859 19.6328C41.8516 19.6016 42.0625 19.5312 42.2188 19.4219C42.375 19.2969 42.5547 19.1719 42.7578 19.0469C43.1953 19.0938 43.5078 19.2891 43.6953 19.6328ZM48.125 26.1719C48.125 26.4219 48.0391 26.6484 47.8672 26.8516C47.6953 27.0547 47.5469 27.25 47.4219 27.4375C47.2031 27.5469 46.9922 27.6094 46.7891 27.625C46.6016 27.6562 46.3984 27.7109 46.1797 27.7891C46.1016 27.8047 46.0156 27.8594 45.9219 27.9531C45.7969 27.9375 45.6719 27.8828 45.5469 27.7891C45.4219 27.7109 45.2969 27.6562 45.1719 27.625C45 27.5625 44.7734 27.5234 44.4922 27.5078C44.2266 27.4922 44.0312 27.4141 43.9062 27.2734C43.6875 27.0547 43.5 26.7656 43.3438 26.4062C43.2031 26.0469 43.0859 25.6641 42.9922 25.2578C42.9141 24.8516 42.8516 24.4531 42.8047 24.0625C42.7734 23.6562 42.7578 23.3047 42.7578 23.0078C42.7578 22.5078 42.7891 22.0078 42.8516 21.5078C42.9141 21.0078 43.0078 20.5234 43.1328 20.0547V19.9375C43.1328 19.8594 43.1328 19.7969 43.1328 19.75C43.1484 19.6875 43.1562 19.6172 43.1562 19.5391C43.1562 19.4922 43.1484 19.4453 43.1328 19.3984C43.1328 19.3516 43.1094 19.3125 43.0625 19.2812C43.2656 18.7656 43.4141 18.2344 43.5078 17.6875C43.6016 17.1406 43.6719 16.5938 43.7188 16.0469C43.7812 15.4844 43.8438 14.9297 43.9062 14.3828C43.9844 13.8203 44.0938 13.2734 44.2344 12.7422C44.2188 12.6484 44.2031 12.5469 44.1875 12.4375C44.1875 12.3281 44.1875 12.2266 44.1875 12.1328C44.1875 11.8516 44.2188 11.5781 44.2812 11.3125C44.3438 11.0312 44.3828 10.7422 44.3984 10.4453C44.4141 10.3516 44.4141 10.2578 44.3984 10.1641C44.3828 10.0547 44.375 9.94531 44.375 9.83594C44.375 9.14844 44.4062 8.47656 44.4688 7.82031C44.5469 7.16406 44.5859 6.5 44.5859 5.82812C44.5859 5.46875 44.5547 5.125 44.4922 4.79688C44.4453 4.45313 44.4219 4.10937 44.4219 3.76562C44.4219 3.60938 44.4297 3.46094 44.4453 3.32031C44.4609 3.16406 44.5078 3.02344 44.5859 2.89844C44.9297 2.66406 45.3359 2.54688 45.8047 2.54688C46.1484 2.54688 46.4453 2.64062 46.6953 2.82812C46.6797 2.85938 46.6719 2.90625 46.6719 2.96875C46.6719 3.04688 46.6797 3.11719 46.6953 3.17969C46.7109 3.24219 46.7188 3.3125 46.7188 3.39062V3.48438C46.7188 3.51563 46.7109 3.54687 46.6953 3.57812C46.8047 3.76562 46.875 3.96875 46.9062 4.1875C46.9531 4.39062 46.9766 4.60156 46.9766 4.82031C46.9766 5.02344 46.9688 5.22656 46.9531 5.42969C46.9375 5.61719 46.9297 5.8125 46.9297 6.01562C46.9297 6.29688 46.9297 6.57812 46.9297 6.85938C46.9453 7.14062 46.9531 7.42188 46.9531 7.70312C46.9531 8.45312 46.9141 9.19531 46.8359 9.92969C46.7734 10.6484 46.7266 11.3828 46.6953 12.1328C46.6641 12.7734 46.5781 13.3984 46.4375 14.0078C46.3125 14.6172 46.2266 15.2344 46.1797 15.8594C46.1641 15.9844 46.1562 16.1094 46.1562 16.2344C46.1719 16.3438 46.1797 16.4688 46.1797 16.6094C46.1797 16.9688 46.1094 17.3281 45.9688 17.6875C45.8281 18.0312 45.7578 18.3984 45.7578 18.7891C45.7578 18.9766 45.7891 19.1406 45.8516 19.2812C45.7578 19.5312 45.6719 19.8281 45.5938 20.1719C45.5312 20.5156 45.4688 20.875 45.4062 21.25C45.3594 21.6094 45.3203 21.9688 45.2891 22.3281C45.2578 22.6719 45.2422 22.9766 45.2422 23.2422C45.2422 23.6172 45.2891 24 45.3828 24.3906C45.4766 24.7656 45.6328 25.1094 45.8516 25.4219C46.0078 25.4688 46.1953 25.4922 46.4141 25.4922C46.6328 25.4922 46.8516 25.5 47.0703 25.5156C47.2891 25.5312 47.4922 25.5703 47.6797 25.6328C47.8672 25.6953 48.0078 25.8203 48.1016 26.0078C48.1172 26.0391 48.125 26.0703 48.125 26.1016V26.1719ZM82.9062 30.25C82.9062 30.4219 82.8672 30.5859 82.7891 30.7422C82.4766 30.9141 82.1484 31.0312 81.8047 31.0938C81.4766 31.1719 81.1484 31.2109 80.8203 31.2109C80.6641 31.2109 80.4922 31.2031 80.3047 31.1875C80.1328 31.1875 79.9766 31.1719 79.8359 31.1406C79.7891 31.125 79.7344 31.0938 79.6719 31.0469C79.6094 31 79.5469 30.9766 79.4844 30.9766C79.3281 30.9766 79.1797 31 79.0391 31.0469C78.8984 31.1094 78.75 31.1406 78.5938 31.1406C78.5156 31.1406 78.4375 31.1172 78.3594 31.0703C78.2969 31.0234 78.2266 30.9922 78.1484 30.9766C78.0391 30.9453 77.9297 30.9375 77.8203 30.9531C77.7109 30.9688 77.5938 30.9766 77.4688 30.9766C77.2969 30.9766 77.1406 30.9531 77 30.9062C76.875 30.8594 76.7578 30.7734 76.6484 30.6484C76.2578 30.6016 75.875 30.5234 75.5 30.4141C75.125 30.3203 74.75 30.2109 74.375 30.0859C74 29.9766 73.625 29.8672 73.25 29.7578C72.875 29.6641 72.4922 29.6016 72.1016 29.5703C72.0078 29.4609 71.8984 29.375 71.7734 29.3125C71.6484 29.2656 71.5547 29.1797 71.4922 29.0547C71.4141 29.0547 71.3594 29.0625 71.3281 29.0781C71.2969 29.1094 71.2422 29.125 71.1641 29.125C70.8984 28.9062 70.6094 28.7188 70.2969 28.5625C70 28.4062 69.6875 28.2578 69.3594 28.1172C69.0469 27.9766 68.7344 27.8281 68.4219 27.6719C68.125 27.5312 67.8438 27.3438 67.5781 27.1094H67.4609C67.3359 27.125 67.2266 27.0938 67.1328 27.0156C67.0547 26.9531 66.9531 26.9219 66.8281 26.9219C66.75 26.9219 66.6875 26.9297 66.6406 26.9453C66.5938 26.8203 66.5234 26.7188 66.4297 26.6406C66.3359 26.5625 66.2344 26.4844 66.125 26.4062C66.0312 26.3438 65.9375 26.2734 65.8438 26.1953C65.75 26.1328 65.6797 26.0469 65.6328 25.9375C65.2422 25.7969 64.8594 25.625 64.4844 25.4219C64.125 25.2344 63.8047 24.9844 63.5234 24.6719C63.2109 24.6406 62.9531 24.5469 62.75 24.3906C62.5469 24.2188 62.3594 24.0078 62.1875 23.7578C61.8125 23.6328 61.4688 23.4688 61.1562 23.2656C60.8438 23.0625 60.5312 22.8516 60.2188 22.6328C59.9219 22.4141 59.6016 22.2188 59.2578 22.0469C58.9297 21.8594 58.5547 21.7266 58.1328 21.6484C58.1172 21.5391 58.0703 21.4609 57.9922 21.4141C57.9141 21.3516 57.8203 21.3047 57.7109 21.2734C57.6172 21.2266 57.5234 21.1875 57.4297 21.1562C57.3359 21.125 57.2656 21.0625 57.2188 20.9688C57.1719 20.9688 57.125 20.9688 57.0781 20.9688C57.0312 20.9531 56.9844 20.9453 56.9375 20.9453C56.8906 20.9453 56.8359 20.9531 56.7734 20.9688C56.7266 20.9688 56.6797 20.9688 56.6328 20.9688L56.6562 20.8984C56.6562 20.8359 56.6328 20.7969 56.5859 20.7812C56.5547 20.7656 56.5078 20.75 56.4453 20.7344C56.3828 20.7188 56.3281 20.6953 56.2812 20.6641C56.2344 20.6328 56.2109 20.5625 56.2109 20.4531H56.1406C55.9688 20.4531 55.8125 20.4219 55.6719 20.3594C55.5312 20.2969 55.375 20.25 55.2031 20.2188C55.1719 20.3906 55.1562 20.5547 55.1562 20.7109V21.1328C55.1562 21.8359 55.2344 22.5781 55.3906 23.3594C55.5469 24.125 55.7891 24.8125 56.1172 25.4219C56.4453 25.5469 56.7266 25.7109 56.9609 25.9141C57.1953 26.1172 57.4219 26.3516 57.6406 26.6172C57.6562 27.0391 57.5 27.3906 57.1719 27.6719C56.8594 27.9688 56.4922 28.1172 56.0703 28.1172C55.8359 28.1172 55.6172 28.0547 55.4141 27.9297C55.2266 27.8203 55.0703 27.6562 54.9453 27.4375C54.8516 27.4375 54.7656 27.4531 54.6875 27.4844C54.6094 27.5312 54.5156 27.5547 54.4062 27.5547C54.3594 27.5547 54.3125 27.5469 54.2656 27.5312C54.1094 27.2656 53.9531 27.0312 53.7969 26.8281C53.6562 26.625 53.5625 26.3516 53.5156 26.0078C53.3438 25.9297 53.2344 25.7891 53.1875 25.5859C53.1562 25.3828 53.0703 25.2188 52.9297 25.0938C52.8672 24.3906 52.7812 23.6875 52.6719 22.9844C52.5781 22.2812 52.5312 21.5781 52.5312 20.875C52.5312 20.7188 52.5391 20.5625 52.5547 20.4062C52.5703 20.2344 52.5859 20.0625 52.6016 19.8906C52.5703 19.8125 52.5234 19.7422 52.4609 19.6797C52.4141 19.6016 52.375 19.5234 52.3438 19.4453C52.0312 19.5234 51.7031 19.6016 51.3594 19.6797C51.0312 19.7422 50.6953 19.7734 50.3516 19.7734C50.1328 19.7734 49.8672 19.7422 49.5547 19.6797C49.2422 19.6016 49 19.5 48.8281 19.375C48.7031 19.2969 48.6172 19.1562 48.5703 18.9531C48.5078 18.7344 48.4766 18.5469 48.4766 18.3906C48.4766 18.125 48.5234 17.8594 48.6172 17.5938C48.7109 17.3125 48.8359 17.0703 48.9922 16.8672C49.7578 16.5547 50.4688 16.1719 51.125 15.7188C51.7969 15.2656 52.4531 14.7734 53.0938 14.2422C53.1094 14.0859 53.1328 13.9297 53.1641 13.7734C53.2109 13.6172 53.2344 13.4531 53.2344 13.2812C53.2344 13.0938 53.1875 12.9141 53.0938 12.7422C53.1875 12.6484 53.2344 12.5312 53.2344 12.3906C53.2344 12.2344 53.2734 12.0938 53.3516 11.9688V11.8281C53.3516 11.7656 53.3438 11.7031 53.3281 11.6406C53.3281 11.5781 53.3047 11.5156 53.2578 11.4531C53.3672 10.8438 53.4531 10.2422 53.5156 9.64844C53.5781 9.03906 53.6094 8.41406 53.6094 7.77344C53.6094 7.72656 53.6328 7.60156 53.6797 7.39844C53.7422 7.17969 53.7812 7.03125 53.7969 6.95312C53.8594 6.59375 53.8984 6.24219 53.9141 5.89844C53.9453 5.53906 53.9844 5.17969 54.0312 4.82031C54.0469 4.69531 54.0781 4.53125 54.125 4.32812C54.1719 4.125 54.1953 3.98438 54.1953 3.90625C54.1953 3.79688 54.1719 3.72656 54.125 3.69531C54.0938 3.64844 54.0625 3.57812 54.0312 3.48438C54.125 3.125 54.1719 2.76563 54.1719 2.40625C54.1875 2.03125 54.2188 1.66406 54.2656 1.30469C54.5312 1.19531 54.7422 1.08594 54.8984 0.976562C55.0547 0.867187 55.2812 0.8125 55.5781 0.8125H55.625C55.6562 1 55.7266 1.17969 55.8359 1.35156C55.9453 1.50781 56.0547 1.67187 56.1641 1.84375C56.2891 2 56.3984 2.15625 56.4922 2.3125C56.5859 2.45312 56.6328 2.59375 56.6328 2.73438C56.6328 3 56.6094 3.28906 56.5625 3.60156C56.5156 3.91406 56.4766 4.20312 56.4453 4.46875C56.3672 5.17188 56.2969 5.86719 56.2344 6.55469C56.1719 7.22656 56.0781 7.91406 55.9531 8.61719C56 8.83594 56.0234 9.03906 56.0234 9.22656C56.0234 9.50781 56 9.78906 55.9531 10.0703C55.9062 10.3516 55.8828 10.6406 55.8828 10.9375C55.8828 11.0781 55.8906 11.2266 55.9062 11.3828C55.9375 11.5391 55.9844 11.6797 56.0469 11.8047C56.5781 11.6641 57.0547 11.375 57.4766 10.9375C57.5391 10.875 57.6016 10.7969 57.6641 10.7031C57.7422 10.5938 57.8203 10.5078 57.8984 10.4453C58.0547 10.3203 58.2188 10.2109 58.3906 10.1172C58.5781 10.0078 58.7578 9.89844 58.9297 9.78906C59.3359 9.52344 59.7266 9.25 60.1016 8.96875C60.4922 8.67188 60.8828 8.38281 61.2734 8.10156C62.4297 7.25781 63.5469 6.38281 64.625 5.47656C65.7188 4.55469 66.7812 3.58594 67.8125 2.57031C67.8594 2.30469 67.9531 2.09375 68.0938 1.9375C68.2344 1.78125 68.3594 1.59375 68.4688 1.375C68.7656 1.26563 69.0234 1.10156 69.2422 0.882812C69.3359 0.914062 69.4297 0.9375 69.5234 0.953125C69.6328 0.953125 69.7344 0.953125 69.8281 0.953125C69.9375 0.953125 70.0391 0.960937 70.1328 0.976562C70.2422 0.976562 70.3359 1 70.4141 1.04688C70.4297 1.28125 70.4531 1.49219 70.4844 1.67969C70.5156 1.86719 70.6094 2.04687 70.7656 2.21875C70.7656 2.25 70.7656 2.28125 70.7656 2.3125C70.7812 2.34375 70.7891 2.375 70.7891 2.40625C70.7891 2.57813 70.7422 2.71875 70.6484 2.82812C70.5547 2.9375 70.5 3.07031 70.4844 3.22656L69.2656 4.44531C68.8594 4.85156 68.4844 5.28906 68.1406 5.75781C68.0156 5.77344 67.9062 5.8125 67.8125 5.875C67.7188 5.9375 67.625 6.00781 67.5312 6.08594C67.4531 6.14844 67.3672 6.21094 67.2734 6.27344C67.1797 6.33594 67.0781 6.38281 66.9688 6.41406C66.6875 6.78906 66.3672 7.13281 66.0078 7.44531C65.6484 7.74219 65.2812 8.03125 64.9062 8.3125C64.5312 8.59375 64.1562 8.88281 63.7812 9.17969C63.4219 9.46094 63.0859 9.77344 62.7734 10.1172C62.4453 10.2734 62.125 10.4609 61.8125 10.6797C61.5156 10.8828 61.2734 11.1406 61.0859 11.4531H60.9688C60.8906 11.4531 60.8281 11.4766 60.7812 11.5234C60.7344 11.5547 60.6719 11.5703 60.5938 11.5703C59.75 12.3047 58.875 13 57.9688 13.6562C57.0625 14.2969 56.1953 15 55.3672 15.7656V16.3516C55.6328 16.5078 55.9219 16.6562 56.2344 16.7969C56.5469 16.9219 56.8516 17.0625 57.1484 17.2188C57.4609 17.375 57.75 17.5469 58.0156 17.7344C58.2969 17.9062 58.5391 18.1172 58.7422 18.3672C58.7734 18.3516 58.8125 18.3438 58.8594 18.3438C59 18.3438 59.1094 18.3906 59.1875 18.4844C59.2656 18.5625 59.3984 18.5859 59.5859 18.5547C59.6484 18.8047 59.7891 18.9844 60.0078 19.0938C60.2266 19.2031 60.4453 19.2969 60.6641 19.375C60.8516 19.5625 61.0234 19.7422 61.1797 19.9141C61.3359 20.0703 61.5625 20.1719 61.8594 20.2188C61.8906 20.2812 61.9141 20.3516 61.9297 20.4297C61.9453 20.5078 61.9766 20.5781 62.0234 20.6406C62.3203 20.7344 62.6016 20.8672 62.8672 21.0391C63.1484 21.2109 63.4219 21.3906 63.6875 21.5781C63.9531 21.75 64.2188 21.9219 64.4844 22.0938C64.7656 22.25 65.0625 22.375 65.375 22.4688C65.4219 22.625 65.5078 22.7344 65.6328 22.7969C65.7734 22.8594 65.8828 22.9531 65.9609 23.0781H66.3828C66.4297 23.1562 66.4922 23.2344 66.5703 23.3125C66.6484 23.375 66.7031 23.4688 66.7344 23.5938C66.8594 23.625 67 23.6719 67.1562 23.7344C67.3125 23.7812 67.4531 23.8438 67.5781 23.9219C67.625 23.9688 67.6562 24.0234 67.6719 24.0859C67.7031 24.1484 67.75 24.2031 67.8125 24.25C67.9062 24.3281 68.0469 24.3906 68.2344 24.4375C68.4375 24.4688 68.6094 24.5234 68.75 24.6016C69.0312 24.7578 69.3047 24.9297 69.5703 25.1172C69.8359 25.3203 70.1172 25.5078 70.4141 25.6797L71.3281 26.1719C71.4844 26.25 71.625 26.3359 71.75 26.4297C71.8906 26.5234 72.0312 26.6094 72.1719 26.6875C72.4531 26.8125 72.75 26.8906 73.0625 26.9219C73.3906 26.9688 73.6875 27.0547 73.9531 27.1797C74.0312 27.2266 74.0859 27.2812 74.1172 27.3438C74.1484 27.4219 74.2031 27.4844 74.2812 27.5312C74.4062 27.6094 74.6016 27.6641 74.8672 27.6953C75.1328 27.7266 75.3516 27.7812 75.5234 27.8594C75.7422 27.9531 75.9531 28.0391 76.1562 28.1172C76.375 28.2109 76.5938 28.3203 76.8125 28.4453C77.2812 28.4766 77.7422 28.5312 78.1953 28.6094C78.6641 28.6875 79.125 28.7656 79.5781 28.8438C80.0312 28.9219 80.4844 28.9922 80.9375 29.0547C81.4062 29.1172 81.875 29.1406 82.3438 29.125C82.3438 29.1562 82.3594 29.1719 82.3906 29.1719C82.4375 29.1875 82.4766 29.1953 82.5078 29.1953C82.6172 29.3672 82.7109 29.5391 82.7891 29.7109C82.8672 29.8828 82.9062 30.0625 82.9062 30.25Z" fill="#505050"/>
<path d="M94 67.4834C111.935 91.2289 156.007 136.969 188.81 129.967M188.81 129.967L170.123 103.981M188.81 129.967L166.408 150.843" stroke="white" stroke-opacity="0.5"/>
</svg>
