<svg width="300" height="222" viewBox="0 0 300 222" fill="none" xmlns="http://www.w3.org/2000/svg">
<path d="M251.859 34.25C251.859 34.4219 251.82 34.5859 251.742 34.7422C251.43 34.9141 251.102 35.0312 250.758 35.0938C250.43 35.1719 250.102 35.2109 249.773 35.2109C249.617 35.2109 249.445 35.2031 249.258 35.1875C249.086 35.1875 248.93 35.1719 248.789 35.1406C248.742 35.125 248.688 35.0938 248.625 35.0469C248.562 35 248.5 34.9766 248.438 34.9766C248.281 34.9766 248.133 35 247.992 35.0469C247.852 35.1094 247.703 35.1406 247.547 35.1406C247.469 35.1406 247.391 35.1172 247.312 35.0703C247.25 35.0234 247.18 34.9922 247.102 34.9766C246.992 34.9453 246.883 34.9375 246.773 34.9531C246.664 34.9688 246.547 34.9766 246.422 34.9766C246.25 34.9766 246.094 34.9531 245.953 34.9062C245.828 34.8594 245.711 34.7734 245.602 34.6484C245.211 34.6016 244.828 34.5234 244.453 34.4141C244.078 34.3203 243.703 34.2109 243.328 34.0859C242.953 33.9766 242.578 33.8672 242.203 33.7578C241.828 33.6641 241.445 33.6016 241.055 33.5703C240.961 33.4609 240.852 33.375 240.727 33.3125C240.602 33.2656 240.508 33.1797 240.445 33.0547C240.367 33.0547 240.312 33.0625 240.281 33.0781C240.25 33.1094 240.195 33.125 240.117 33.125C239.852 32.9062 239.562 32.7188 239.25 32.5625C238.953 32.4062 238.641 32.2578 238.312 32.1172C238 31.9766 237.688 31.8281 237.375 31.6719C237.078 31.5312 236.797 31.3438 236.531 31.1094H236.414C236.289 31.125 236.18 31.0938 236.086 31.0156C236.008 30.9531 235.906 30.9219 235.781 30.9219C235.703 30.9219 235.641 30.9297 235.594 30.9453C235.547 30.8203 235.477 30.7188 235.383 30.6406C235.289 30.5625 235.188 30.4844 235.078 30.4062C234.984 30.3438 234.891 30.2734 234.797 30.1953C234.703 30.1328 234.633 30.0469 234.586 29.9375C234.195 29.7969 233.812 29.625 233.438 29.4219C233.078 29.2344 232.758 28.9844 232.477 28.6719C232.164 28.6406 231.906 28.5469 231.703 28.3906C231.5 28.2188 231.312 28.0078 231.141 27.7578C230.766 27.6328 230.422 27.4688 230.109 27.2656C229.797 27.0625 229.484 26.8516 229.172 26.6328C228.875 26.4141 228.555 26.2188 228.211 26.0469C227.883 25.8594 227.508 25.7266 227.086 25.6484C227.07 25.5391 227.023 25.4609 226.945 25.4141C226.867 25.3516 226.773 25.3047 226.664 25.2734C226.57 25.2266 226.477 25.1875 226.383 25.1562C226.289 25.125 226.219 25.0625 226.172 24.9688C226.125 24.9688 226.078 24.9688 226.031 24.9688C225.984 24.9531 225.938 24.9453 225.891 24.9453C225.844 24.9453 225.789 24.9531 225.727 24.9688C225.68 24.9688 225.633 24.9688 225.586 24.9688L225.609 24.8984C225.609 24.8359 225.586 24.7969 225.539 24.7812C225.508 24.7656 225.461 24.75 225.398 24.7344C225.336 24.7188 225.281 24.6953 225.234 24.6641C225.188 24.6328 225.164 24.5625 225.164 24.4531H225.094C224.922 24.4531 224.766 24.4219 224.625 24.3594C224.484 24.2969 224.328 24.25 224.156 24.2188C224.125 24.3906 224.109 24.5547 224.109 24.7109V25.1328C224.109 25.8359 224.188 26.5781 224.344 27.3594C224.5 28.125 224.742 28.8125 225.07 29.4219C225.398 29.5469 225.68 29.7109 225.914 29.9141C226.148 30.1172 226.375 30.3516 226.594 30.6172C226.609 31.0391 226.453 31.3906 226.125 31.6719C225.812 31.9688 225.445 32.1172 225.023 32.1172C224.789 32.1172 224.57 32.0547 224.367 31.9297C224.18 31.8203 224.023 31.6562 223.898 31.4375C223.805 31.4375 223.719 31.4531 223.641 31.4844C223.562 31.5312 223.469 31.5547 223.359 31.5547C223.312 31.5547 223.266 31.5469 223.219 31.5312C223.062 31.2656 222.906 31.0312 222.75 30.8281C222.609 30.625 222.516 30.3516 222.469 30.0078C222.297 29.9297 222.188 29.7891 222.141 29.5859C222.109 29.3828 222.023 29.2188 221.883 29.0938C221.82 28.3906 221.734 27.6875 221.625 26.9844C221.531 26.2812 221.484 25.5781 221.484 24.875C221.484 24.7188 221.492 24.5625 221.508 24.4062C221.523 24.2344 221.539 24.0625 221.555 23.8906C221.523 23.8125 221.477 23.7422 221.414 23.6797C221.367 23.6016 221.328 23.5234 221.297 23.4453C220.984 23.5234 220.656 23.6016 220.312 23.6797C219.984 23.7422 219.648 23.7734 219.305 23.7734C219.086 23.7734 218.82 23.7422 218.508 23.6797C218.195 23.6016 217.953 23.5 217.781 23.375C217.656 23.2969 217.57 23.1562 217.523 22.9531C217.461 22.7344 217.43 22.5469 217.43 22.3906C217.43 22.125 217.477 21.8594 217.57 21.5938C217.664 21.3125 217.789 21.0703 217.945 20.8672C218.711 20.5547 219.422 20.1719 220.078 19.7188C220.75 19.2656 221.406 18.7734 222.047 18.2422C222.062 18.0859 222.086 17.9297 222.117 17.7734C222.164 17.6172 222.188 17.4531 222.188 17.2812C222.188 17.0938 222.141 16.9141 222.047 16.7422C222.141 16.6484 222.188 16.5312 222.188 16.3906C222.188 16.2344 222.227 16.0938 222.305 15.9688V15.8281C222.305 15.7656 222.297 15.7031 222.281 15.6406C222.281 15.5781 222.258 15.5156 222.211 15.4531C222.32 14.8438 222.406 14.2422 222.469 13.6484C222.531 13.0391 222.562 12.4141 222.562 11.7734C222.562 11.7266 222.586 11.6016 222.633 11.3984C222.695 11.1797 222.734 11.0312 222.75 10.9531C222.812 10.5938 222.852 10.2422 222.867 9.89844C222.898 9.53906 222.938 9.17969 222.984 8.82031C223 8.69531 223.031 8.53125 223.078 8.32812C223.125 8.125 223.148 7.98438 223.148 7.90625C223.148 7.79688 223.125 7.72656 223.078 7.69531C223.047 7.64844 223.016 7.57812 222.984 7.48438C223.078 7.125 223.125 6.76563 223.125 6.40625C223.141 6.03125 223.172 5.66406 223.219 5.30469C223.484 5.19531 223.695 5.08594 223.852 4.97656C224.008 4.86719 224.234 4.8125 224.531 4.8125H224.578C224.609 5 224.68 5.17969 224.789 5.35156C224.898 5.50781 225.008 5.67187 225.117 5.84375C225.242 6 225.352 6.15625 225.445 6.3125C225.539 6.45312 225.586 6.59375 225.586 6.73438C225.586 7 225.562 7.28906 225.516 7.60156C225.469 7.91406 225.43 8.20312 225.398 8.46875C225.32 9.17188 225.25 9.86719 225.188 10.5547C225.125 11.2266 225.031 11.9141 224.906 12.6172C224.953 12.8359 224.977 13.0391 224.977 13.2266C224.977 13.5078 224.953 13.7891 224.906 14.0703C224.859 14.3516 224.836 14.6406 224.836 14.9375C224.836 15.0781 224.844 15.2266 224.859 15.3828C224.891 15.5391 224.938 15.6797 225 15.8047C225.531 15.6641 226.008 15.375 226.43 14.9375C226.492 14.875 226.555 14.7969 226.617 14.7031C226.695 14.5938 226.773 14.5078 226.852 14.4453C227.008 14.3203 227.172 14.2109 227.344 14.1172C227.531 14.0078 227.711 13.8984 227.883 13.7891C228.289 13.5234 228.68 13.25 229.055 12.9688C229.445 12.6719 229.836 12.3828 230.227 12.1016C231.383 11.2578 232.5 10.3828 233.578 9.47656C234.672 8.55469 235.734 7.58594 236.766 6.57031C236.812 6.30469 236.906 6.09375 237.047 5.9375C237.188 5.78125 237.312 5.59375 237.422 5.375C237.719 5.26563 237.977 5.10156 238.195 4.88281C238.289 4.91406 238.383 4.9375 238.477 4.95312C238.586 4.95312 238.688 4.95312 238.781 4.95312C238.891 4.95312 238.992 4.96094 239.086 4.97656C239.195 4.97656 239.289 5 239.367 5.04688C239.383 5.28125 239.406 5.49219 239.438 5.67969C239.469 5.86719 239.562 6.04687 239.719 6.21875C239.719 6.25 239.719 6.28125 239.719 6.3125C239.734 6.34375 239.742 6.375 239.742 6.40625C239.742 6.57813 239.695 6.71875 239.602 6.82812C239.508 6.9375 239.453 7.07031 239.438 7.22656L238.219 8.44531C237.812 8.85156 237.438 9.28906 237.094 9.75781C236.969 9.77344 236.859 9.8125 236.766 9.875C236.672 9.9375 236.578 10.0078 236.484 10.0859C236.406 10.1484 236.32 10.2109 236.227 10.2734C236.133 10.3359 236.031 10.3828 235.922 10.4141C235.641 10.7891 235.32 11.1328 234.961 11.4453C234.602 11.7422 234.234 12.0312 233.859 12.3125C233.484 12.5938 233.109 12.8828 232.734 13.1797C232.375 13.4609 232.039 13.7734 231.727 14.1172C231.398 14.2734 231.078 14.4609 230.766 14.6797C230.469 14.8828 230.227 15.1406 230.039 15.4531H229.922C229.844 15.4531 229.781 15.4766 229.734 15.5234C229.688 15.5547 229.625 15.5703 229.547 15.5703C228.703 16.3047 227.828 17 226.922 17.6562C226.016 18.2969 225.148 19 224.32 19.7656V20.3516C224.586 20.5078 224.875 20.6562 225.188 20.7969C225.5 20.9219 225.805 21.0625 226.102 21.2188C226.414 21.375 226.703 21.5469 226.969 21.7344C227.25 21.9062 227.492 22.1172 227.695 22.3672C227.727 22.3516 227.766 22.3438 227.812 22.3438C227.953 22.3438 228.062 22.3906 228.141 22.4844C228.219 22.5625 228.352 22.5859 228.539 22.5547C228.602 22.8047 228.742 22.9844 228.961 23.0938C229.18 23.2031 229.398 23.2969 229.617 23.375C229.805 23.5625 229.977 23.7422 230.133 23.9141C230.289 24.0703 230.516 24.1719 230.812 24.2188C230.844 24.2812 230.867 24.3516 230.883 24.4297C230.898 24.5078 230.93 24.5781 230.977 24.6406C231.273 24.7344 231.555 24.8672 231.82 25.0391C232.102 25.2109 232.375 25.3906 232.641 25.5781C232.906 25.75 233.172 25.9219 233.438 26.0938C233.719 26.25 234.016 26.375 234.328 26.4688C234.375 26.625 234.461 26.7344 234.586 26.7969C234.727 26.8594 234.836 26.9531 234.914 27.0781H235.336C235.383 27.1562 235.445 27.2344 235.523 27.3125C235.602 27.375 235.656 27.4688 235.688 27.5938C235.812 27.625 235.953 27.6719 236.109 27.7344C236.266 27.7812 236.406 27.8438 236.531 27.9219C236.578 27.9688 236.609 28.0234 236.625 28.0859C236.656 28.1484 236.703 28.2031 236.766 28.25C236.859 28.3281 237 28.3906 237.188 28.4375C237.391 28.4688 237.562 28.5234 237.703 28.6016C237.984 28.7578 238.258 28.9297 238.523 29.1172C238.789 29.3203 239.07 29.5078 239.367 29.6797L240.281 30.1719C240.438 30.25 240.578 30.3359 240.703 30.4297C240.844 30.5234 240.984 30.6094 241.125 30.6875C241.406 30.8125 241.703 30.8906 242.016 30.9219C242.344 30.9688 242.641 31.0547 242.906 31.1797C242.984 31.2266 243.039 31.2812 243.07 31.3438C243.102 31.4219 243.156 31.4844 243.234 31.5312C243.359 31.6094 243.555 31.6641 243.82 31.6953C244.086 31.7266 244.305 31.7812 244.477 31.8594C244.695 31.9531 244.906 32.0391 245.109 32.1172C245.328 32.2109 245.547 32.3203 245.766 32.4453C246.234 32.4766 246.695 32.5312 247.148 32.6094C247.617 32.6875 248.078 32.7656 248.531 32.8438C248.984 32.9219 249.438 32.9922 249.891 33.0547C250.359 33.1172 250.828 33.1406 251.297 33.125C251.297 33.1562 251.312 33.1719 251.344 33.1719C251.391 33.1875 251.43 33.1953 251.461 33.1953C251.57 33.3672 251.664 33.5391 251.742 33.7109C251.82 33.8828 251.859 34.0625 251.859 34.25ZM260.695 23.6328C260.695 23.9453 260.641 24.2031 260.531 24.4062C260.438 24.5938 260.328 24.8125 260.203 25.0625C260.172 25.0469 260.133 25.0391 260.086 25.0391C259.992 25.0391 259.906 25.0625 259.828 25.1094C259.75 25.1562 259.672 25.1953 259.594 25.2266C259.141 25.7266 258.672 26.2109 258.188 26.6797C257.719 27.1484 257.195 27.5625 256.617 27.9219C256.461 28.0156 256.305 28.1094 256.148 28.2031C255.992 28.2812 255.828 28.3594 255.656 28.4375C255.594 28.4688 255.531 28.5 255.469 28.5312C255.422 28.5469 255.375 28.5703 255.328 28.6016C255.219 28.6641 255.102 28.7656 254.977 28.9062C254.867 29.0469 254.734 29.1875 254.578 29.3281C254.438 29.4844 254.281 29.6094 254.109 29.7031C253.938 29.8125 253.75 29.8594 253.547 29.8438C253.422 29.9219 253.312 30.0234 253.219 30.1484C253.125 30.2734 253.016 30.3984 252.891 30.5234C252.219 30.7578 251.602 31.0625 251.039 31.4375C250.492 31.8281 249.922 32.2031 249.328 32.5625C248.969 32.7969 248.609 32.9844 248.25 33.125C248.172 33.1562 248.078 33.1797 247.969 33.1953C247.875 33.2109 247.773 33.2344 247.664 33.2656C247.148 33.3906 246.625 33.4922 246.094 33.5703C245.578 33.6484 245.055 33.6875 244.523 33.6875C243.867 33.6875 243.234 33.6094 242.625 33.4531C242.625 33.4062 242.609 33.375 242.578 33.3594C242.547 33.3438 242.508 33.3281 242.461 33.3125C242.43 33.2969 242.398 33.2734 242.367 33.2422C242.336 33.2266 242.336 33.1875 242.367 33.125C242.023 33.0938 241.719 33.0078 241.453 32.8672C241.203 32.7266 241.039 32.4766 240.961 32.1172C240.914 32.1484 240.875 32.1875 240.844 32.2344C240.812 32.2812 240.758 32.2969 240.68 32.2812C240.461 31.9688 240.219 31.6797 239.953 31.4141C239.688 31.1484 239.492 30.8281 239.367 30.4531C239.336 30.375 239.312 30.2969 239.297 30.2188C239.297 30.1562 239.289 30.0859 239.273 30.0078C239.195 29.7891 239.055 29.6797 238.852 29.6797C238.883 29.6172 238.898 29.5391 238.898 29.4453C238.898 29.3984 238.891 29.3516 238.875 29.3047C238.875 29.2578 238.875 29.2109 238.875 29.1641C238.875 29.0859 238.898 29.0078 238.945 28.9297C238.789 28.5703 238.68 28.2188 238.617 27.875C238.555 27.5156 238.523 27.1484 238.523 26.7734C238.523 26.2891 238.547 25.8125 238.594 25.3438C238.641 24.8594 238.664 24.375 238.664 23.8906C238.758 23.7031 238.828 23.4844 238.875 23.2344C238.938 22.9844 239.039 22.7812 239.18 22.625C239.164 22.5312 239.133 22.4844 239.086 22.4844C239.039 22.4688 239.016 22.4219 239.016 22.3438C239.016 22.0625 239.07 21.7578 239.18 21.4297C239.289 21.1016 239.344 20.7656 239.344 20.4219C239.484 20.3438 239.57 20.2266 239.602 20.0703C239.648 19.9141 239.734 19.7891 239.859 19.6953V19.5781C239.859 19.3438 239.883 19.1094 239.93 18.875C239.992 18.6406 240.047 18.4141 240.094 18.1953C240.156 17.9609 240.203 17.7344 240.234 17.5156C240.281 17.2812 240.297 17.0547 240.281 16.8359C240.312 16.7891 240.352 16.7031 240.398 16.5781C240.461 16.4375 240.516 16.2969 240.562 16.1562C240.625 16 240.672 15.8516 240.703 15.7109C240.75 15.5703 240.773 15.4688 240.773 15.4062C240.773 15.3125 240.758 15.2266 240.727 15.1484C240.695 15.0703 240.68 14.9844 240.68 14.8906C240.68 14.8125 240.703 14.7031 240.75 14.5625C240.797 14.4062 240.836 14.2812 240.867 14.1875C240.93 13.9219 240.984 13.6484 241.031 13.3672C241.094 13.0703 241.148 12.7891 241.195 12.5234C241.336 11.6641 241.438 10.8047 241.5 9.94531C241.562 9.07031 241.602 8.19531 241.617 7.32031C241.836 7.19531 242.062 7.07812 242.297 6.96875C242.547 6.85938 242.805 6.80469 243.07 6.80469C243.148 6.80469 243.227 6.8125 243.305 6.82812C243.383 6.84375 243.461 6.86719 243.539 6.89844C243.617 7.21094 243.742 7.46094 243.914 7.64844C244.086 7.83594 244.242 8.0625 244.383 8.32812C244.289 8.57812 244.227 8.83594 244.195 9.10156L244.125 9.89844C244.109 10.1641 244.078 10.4297 244.031 10.6953C243.984 10.9453 243.906 11.1875 243.797 11.4219C243.828 11.5 243.844 11.5781 243.844 11.6562V11.8906C243.844 12.1094 243.82 12.3203 243.773 12.5234C243.742 12.7266 243.703 12.9375 243.656 13.1562C243.609 13.3594 243.57 13.5625 243.539 13.7656C243.508 13.9688 243.508 14.1719 243.539 14.375C243.492 14.4531 243.445 14.5156 243.398 14.5625C243.352 14.5938 243.32 14.6484 243.305 14.7266L243.258 15.1719C243.227 15.3438 243.195 15.5156 243.164 15.6875C243.148 15.8438 243.125 16.0078 243.094 16.1797C242.984 16.6484 242.859 17.1172 242.719 17.5859C242.594 18.0547 242.531 18.5391 242.531 19.0391V19.1797C242.391 19.3984 242.281 19.6719 242.203 20C242.125 20.3125 242.102 20.6016 242.133 20.8672C241.961 21.3203 241.797 21.7656 241.641 22.2031C241.484 22.6406 241.406 23.0938 241.406 23.5625C241.406 23.6406 241.406 23.7266 241.406 23.8203C241.422 23.8984 241.438 23.9766 241.453 24.0547C241.328 24.3672 241.25 24.6875 241.219 25.0156C241.188 25.3281 241.172 25.6406 241.172 25.9531C241.172 26.1719 241.18 26.4297 241.195 26.7266C241.227 27.0078 241.266 27.3047 241.312 27.6172C241.375 27.9141 241.445 28.2031 241.523 28.4844C241.602 28.7656 241.688 28.9922 241.781 29.1641C242.141 29.7422 242.609 30.1953 243.188 30.5234C243.781 30.8672 244.406 31.0859 245.062 31.1797C245.328 31.0859 245.539 31.0312 245.695 31.0156C245.867 31 246.102 31 246.398 31.0156C246.648 30.8906 246.898 30.7969 247.148 30.7344C247.414 30.6719 247.68 30.6016 247.945 30.5234C248.023 30.4922 248.102 30.4609 248.18 30.4297C248.273 30.3984 248.352 30.3672 248.414 30.3359C248.492 30.3047 248.578 30.2344 248.672 30.125C248.766 30.0156 248.852 29.9219 248.93 29.8438C249.258 29.75 249.57 29.6172 249.867 29.4453C250.164 29.2891 250.453 29.125 250.734 28.9531L251.602 28.4375C251.898 28.2656 252.211 28.1172 252.539 27.9922C252.664 27.9453 252.734 27.8828 252.75 27.8047C252.781 27.7109 252.828 27.6016 252.891 27.4766C252.922 27.5078 252.969 27.5234 253.031 27.5234C253.219 27.5234 253.352 27.4688 253.43 27.3594C253.508 27.2344 253.602 27.1094 253.711 26.9844C253.914 26.9531 254.109 26.8984 254.297 26.8203C254.484 26.7266 254.625 26.5859 254.719 26.3984C255.109 26.3203 255.453 26.1797 255.75 25.9766C256.047 25.7734 256.336 25.5547 256.617 25.3203C256.898 25.0703 257.18 24.8359 257.461 24.6172C257.742 24.3828 258.062 24.1953 258.422 24.0547C258.469 23.9766 258.5 23.9062 258.516 23.8438C258.531 23.7812 258.555 23.7109 258.586 23.6328C258.852 23.6016 259.062 23.5312 259.219 23.4219C259.375 23.2969 259.555 23.1719 259.758 23.0469C260.195 23.0938 260.508 23.2891 260.695 23.6328ZM265.125 30.1719C265.125 30.4219 265.039 30.6484 264.867 30.8516C264.695 31.0547 264.547 31.25 264.422 31.4375C264.203 31.5469 263.992 31.6094 263.789 31.625C263.602 31.6562 263.398 31.7109 263.18 31.7891C263.102 31.8047 263.016 31.8594 262.922 31.9531C262.797 31.9375 262.672 31.8828 262.547 31.7891C262.422 31.7109 262.297 31.6562 262.172 31.625C262 31.5625 261.773 31.5234 261.492 31.5078C261.227 31.4922 261.031 31.4141 260.906 31.2734C260.688 31.0547 260.5 30.7656 260.344 30.4062C260.203 30.0469 260.086 29.6641 259.992 29.2578C259.914 28.8516 259.852 28.4531 259.805 28.0625C259.773 27.6562 259.758 27.3047 259.758 27.0078C259.758 26.5078 259.789 26.0078 259.852 25.5078C259.914 25.0078 260.008 24.5234 260.133 24.0547V23.9375C260.133 23.8594 260.133 23.7969 260.133 23.75C260.148 23.6875 260.156 23.6172 260.156 23.5391C260.156 23.4922 260.148 23.4453 260.133 23.3984C260.133 23.3516 260.109 23.3125 260.062 23.2812C260.266 22.7656 260.414 22.2344 260.508 21.6875C260.602 21.1406 260.672 20.5938 260.719 20.0469C260.781 19.4844 260.844 18.9297 260.906 18.3828C260.984 17.8203 261.094 17.2734 261.234 16.7422C261.219 16.6484 261.203 16.5469 261.188 16.4375C261.188 16.3281 261.188 16.2266 261.188 16.1328C261.188 15.8516 261.219 15.5781 261.281 15.3125C261.344 15.0312 261.383 14.7422 261.398 14.4453C261.414 14.3516 261.414 14.2578 261.398 14.1641C261.383 14.0547 261.375 13.9453 261.375 13.8359C261.375 13.1484 261.406 12.4766 261.469 11.8203C261.547 11.1641 261.586 10.5 261.586 9.82812C261.586 9.46875 261.555 9.125 261.492 8.79688C261.445 8.45312 261.422 8.10938 261.422 7.76562C261.422 7.60938 261.43 7.46094 261.445 7.32031C261.461 7.16406 261.508 7.02344 261.586 6.89844C261.93 6.66406 262.336 6.54688 262.805 6.54688C263.148 6.54688 263.445 6.64062 263.695 6.82812C263.68 6.85938 263.672 6.90625 263.672 6.96875C263.672 7.04688 263.68 7.11719 263.695 7.17969C263.711 7.24219 263.719 7.3125 263.719 7.39062V7.48438C263.719 7.51563 263.711 7.54687 263.695 7.57812C263.805 7.76562 263.875 7.96875 263.906 8.1875C263.953 8.39062 263.977 8.60156 263.977 8.82031C263.977 9.02344 263.969 9.22656 263.953 9.42969C263.938 9.61719 263.93 9.8125 263.93 10.0156C263.93 10.2969 263.93 10.5781 263.93 10.8594C263.945 11.1406 263.953 11.4219 263.953 11.7031C263.953 12.4531 263.914 13.1953 263.836 13.9297C263.773 14.6484 263.727 15.3828 263.695 16.1328C263.664 16.7734 263.578 17.3984 263.438 18.0078C263.312 18.6172 263.227 19.2344 263.18 19.8594C263.164 19.9844 263.156 20.1094 263.156 20.2344C263.172 20.3438 263.18 20.4688 263.18 20.6094C263.18 20.9688 263.109 21.3281 262.969 21.6875C262.828 22.0312 262.758 22.3984 262.758 22.7891C262.758 22.9766 262.789 23.1406 262.852 23.2812C262.758 23.5312 262.672 23.8281 262.594 24.1719C262.531 24.5156 262.469 24.875 262.406 25.25C262.359 25.6094 262.32 25.9688 262.289 26.3281C262.258 26.6719 262.242 26.9766 262.242 27.2422C262.242 27.6172 262.289 28 262.383 28.3906C262.477 28.7656 262.633 29.1094 262.852 29.4219C263.008 29.4688 263.195 29.4922 263.414 29.4922C263.633 29.4922 263.852 29.5 264.07 29.5156C264.289 29.5312 264.492 29.5703 264.68 29.6328C264.867 29.6953 265.008 29.8203 265.102 30.0078C265.117 30.0391 265.125 30.0703 265.125 30.1016V30.1719ZM299.906 34.25C299.906 34.4219 299.867 34.5859 299.789 34.7422C299.477 34.9141 299.148 35.0312 298.805 35.0938C298.477 35.1719 298.148 35.2109 297.82 35.2109C297.664 35.2109 297.492 35.2031 297.305 35.1875C297.133 35.1875 296.977 35.1719 296.836 35.1406C296.789 35.125 296.734 35.0938 296.672 35.0469C296.609 35 296.547 34.9766 296.484 34.9766C296.328 34.9766 296.18 35 296.039 35.0469C295.898 35.1094 295.75 35.1406 295.594 35.1406C295.516 35.1406 295.438 35.1172 295.359 35.0703C295.297 35.0234 295.227 34.9922 295.148 34.9766C295.039 34.9453 294.93 34.9375 294.82 34.9531C294.711 34.9688 294.594 34.9766 294.469 34.9766C294.297 34.9766 294.141 34.9531 294 34.9062C293.875 34.8594 293.758 34.7734 293.648 34.6484C293.258 34.6016 292.875 34.5234 292.5 34.4141C292.125 34.3203 291.75 34.2109 291.375 34.0859C291 33.9766 290.625 33.8672 290.25 33.7578C289.875 33.6641 289.492 33.6016 289.102 33.5703C289.008 33.4609 288.898 33.375 288.773 33.3125C288.648 33.2656 288.555 33.1797 288.492 33.0547C288.414 33.0547 288.359 33.0625 288.328 33.0781C288.297 33.1094 288.242 33.125 288.164 33.125C287.898 32.9062 287.609 32.7188 287.297 32.5625C287 32.4062 286.688 32.2578 286.359 32.1172C286.047 31.9766 285.734 31.8281 285.422 31.6719C285.125 31.5312 284.844 31.3438 284.578 31.1094H284.461C284.336 31.125 284.227 31.0938 284.133 31.0156C284.055 30.9531 283.953 30.9219 283.828 30.9219C283.75 30.9219 283.688 30.9297 283.641 30.9453C283.594 30.8203 283.523 30.7188 283.43 30.6406C283.336 30.5625 283.234 30.4844 283.125 30.4062C283.031 30.3438 282.938 30.2734 282.844 30.1953C282.75 30.1328 282.68 30.0469 282.633 29.9375C282.242 29.7969 281.859 29.625 281.484 29.4219C281.125 29.2344 280.805 28.9844 280.523 28.6719C280.211 28.6406 279.953 28.5469 279.75 28.3906C279.547 28.2188 279.359 28.0078 279.188 27.7578C278.812 27.6328 278.469 27.4688 278.156 27.2656C277.844 27.0625 277.531 26.8516 277.219 26.6328C276.922 26.4141 276.602 26.2188 276.258 26.0469C275.93 25.8594 275.555 25.7266 275.133 25.6484C275.117 25.5391 275.07 25.4609 274.992 25.4141C274.914 25.3516 274.82 25.3047 274.711 25.2734C274.617 25.2266 274.523 25.1875 274.43 25.1562C274.336 25.125 274.266 25.0625 274.219 24.9688C274.172 24.9688 274.125 24.9688 274.078 24.9688C274.031 24.9531 273.984 24.9453 273.938 24.9453C273.891 24.9453 273.836 24.9531 273.773 24.9688C273.727 24.9688 273.68 24.9688 273.633 24.9688L273.656 24.8984C273.656 24.8359 273.633 24.7969 273.586 24.7812C273.555 24.7656 273.508 24.75 273.445 24.7344C273.383 24.7188 273.328 24.6953 273.281 24.6641C273.234 24.6328 273.211 24.5625 273.211 24.4531H273.141C272.969 24.4531 272.812 24.4219 272.672 24.3594C272.531 24.2969 272.375 24.25 272.203 24.2188C272.172 24.3906 272.156 24.5547 272.156 24.7109V25.1328C272.156 25.8359 272.234 26.5781 272.391 27.3594C272.547 28.125 272.789 28.8125 273.117 29.4219C273.445 29.5469 273.727 29.7109 273.961 29.9141C274.195 30.1172 274.422 30.3516 274.641 30.6172C274.656 31.0391 274.5 31.3906 274.172 31.6719C273.859 31.9688 273.492 32.1172 273.07 32.1172C272.836 32.1172 272.617 32.0547 272.414 31.9297C272.227 31.8203 272.07 31.6562 271.945 31.4375C271.852 31.4375 271.766 31.4531 271.688 31.4844C271.609 31.5312 271.516 31.5547 271.406 31.5547C271.359 31.5547 271.312 31.5469 271.266 31.5312C271.109 31.2656 270.953 31.0312 270.797 30.8281C270.656 30.625 270.562 30.3516 270.516 30.0078C270.344 29.9297 270.234 29.7891 270.188 29.5859C270.156 29.3828 270.07 29.2188 269.93 29.0938C269.867 28.3906 269.781 27.6875 269.672 26.9844C269.578 26.2812 269.531 25.5781 269.531 24.875C269.531 24.7188 269.539 24.5625 269.555 24.4062C269.57 24.2344 269.586 24.0625 269.602 23.8906C269.57 23.8125 269.523 23.7422 269.461 23.6797C269.414 23.6016 269.375 23.5234 269.344 23.4453C269.031 23.5234 268.703 23.6016 268.359 23.6797C268.031 23.7422 267.695 23.7734 267.352 23.7734C267.133 23.7734 266.867 23.7422 266.555 23.6797C266.242 23.6016 266 23.5 265.828 23.375C265.703 23.2969 265.617 23.1562 265.57 22.9531C265.508 22.7344 265.477 22.5469 265.477 22.3906C265.477 22.125 265.523 21.8594 265.617 21.5938C265.711 21.3125 265.836 21.0703 265.992 20.8672C266.758 20.5547 267.469 20.1719 268.125 19.7188C268.797 19.2656 269.453 18.7734 270.094 18.2422C270.109 18.0859 270.133 17.9297 270.164 17.7734C270.211 17.6172 270.234 17.4531 270.234 17.2812C270.234 17.0938 270.188 16.9141 270.094 16.7422C270.188 16.6484 270.234 16.5312 270.234 16.3906C270.234 16.2344 270.273 16.0938 270.352 15.9688V15.8281C270.352 15.7656 270.344 15.7031 270.328 15.6406C270.328 15.5781 270.305 15.5156 270.258 15.4531C270.367 14.8438 270.453 14.2422 270.516 13.6484C270.578 13.0391 270.609 12.4141 270.609 11.7734C270.609 11.7266 270.633 11.6016 270.68 11.3984C270.742 11.1797 270.781 11.0312 270.797 10.9531C270.859 10.5938 270.898 10.2422 270.914 9.89844C270.945 9.53906 270.984 9.17969 271.031 8.82031C271.047 8.69531 271.078 8.53125 271.125 8.32812C271.172 8.125 271.195 7.98438 271.195 7.90625C271.195 7.79688 271.172 7.72656 271.125 7.69531C271.094 7.64844 271.062 7.57812 271.031 7.48438C271.125 7.125 271.172 6.76563 271.172 6.40625C271.188 6.03125 271.219 5.66406 271.266 5.30469C271.531 5.19531 271.742 5.08594 271.898 4.97656C272.055 4.86719 272.281 4.8125 272.578 4.8125H272.625C272.656 5 272.727 5.17969 272.836 5.35156C272.945 5.50781 273.055 5.67187 273.164 5.84375C273.289 6 273.398 6.15625 273.492 6.3125C273.586 6.45312 273.633 6.59375 273.633 6.73438C273.633 7 273.609 7.28906 273.562 7.60156C273.516 7.91406 273.477 8.20312 273.445 8.46875C273.367 9.17188 273.297 9.86719 273.234 10.5547C273.172 11.2266 273.078 11.9141 272.953 12.6172C273 12.8359 273.023 13.0391 273.023 13.2266C273.023 13.5078 273 13.7891 272.953 14.0703C272.906 14.3516 272.883 14.6406 272.883 14.9375C272.883 15.0781 272.891 15.2266 272.906 15.3828C272.938 15.5391 272.984 15.6797 273.047 15.8047C273.578 15.6641 274.055 15.375 274.477 14.9375C274.539 14.875 274.602 14.7969 274.664 14.7031C274.742 14.5938 274.82 14.5078 274.898 14.4453C275.055 14.3203 275.219 14.2109 275.391 14.1172C275.578 14.0078 275.758 13.8984 275.93 13.7891C276.336 13.5234 276.727 13.25 277.102 12.9688C277.492 12.6719 277.883 12.3828 278.273 12.1016C279.43 11.2578 280.547 10.3828 281.625 9.47656C282.719 8.55469 283.781 7.58594 284.812 6.57031C284.859 6.30469 284.953 6.09375 285.094 5.9375C285.234 5.78125 285.359 5.59375 285.469 5.375C285.766 5.26563 286.023 5.10156 286.242 4.88281C286.336 4.91406 286.43 4.9375 286.523 4.95312C286.633 4.95312 286.734 4.95312 286.828 4.95312C286.938 4.95312 287.039 4.96094 287.133 4.97656C287.242 4.97656 287.336 5 287.414 5.04688C287.43 5.28125 287.453 5.49219 287.484 5.67969C287.516 5.86719 287.609 6.04687 287.766 6.21875C287.766 6.25 287.766 6.28125 287.766 6.3125C287.781 6.34375 287.789 6.375 287.789 6.40625C287.789 6.57813 287.742 6.71875 287.648 6.82812C287.555 6.9375 287.5 7.07031 287.484 7.22656L286.266 8.44531C285.859 8.85156 285.484 9.28906 285.141 9.75781C285.016 9.77344 284.906 9.8125 284.812 9.875C284.719 9.9375 284.625 10.0078 284.531 10.0859C284.453 10.1484 284.367 10.2109 284.273 10.2734C284.18 10.3359 284.078 10.3828 283.969 10.4141C283.688 10.7891 283.367 11.1328 283.008 11.4453C282.648 11.7422 282.281 12.0312 281.906 12.3125C281.531 12.5938 281.156 12.8828 280.781 13.1797C280.422 13.4609 280.086 13.7734 279.773 14.1172C279.445 14.2734 279.125 14.4609 278.812 14.6797C278.516 14.8828 278.273 15.1406 278.086 15.4531H277.969C277.891 15.4531 277.828 15.4766 277.781 15.5234C277.734 15.5547 277.672 15.5703 277.594 15.5703C276.75 16.3047 275.875 17 274.969 17.6562C274.062 18.2969 273.195 19 272.367 19.7656V20.3516C272.633 20.5078 272.922 20.6562 273.234 20.7969C273.547 20.9219 273.852 21.0625 274.148 21.2188C274.461 21.375 274.75 21.5469 275.016 21.7344C275.297 21.9062 275.539 22.1172 275.742 22.3672C275.773 22.3516 275.812 22.3438 275.859 22.3438C276 22.3438 276.109 22.3906 276.188 22.4844C276.266 22.5625 276.398 22.5859 276.586 22.5547C276.648 22.8047 276.789 22.9844 277.008 23.0938C277.227 23.2031 277.445 23.2969 277.664 23.375C277.852 23.5625 278.023 23.7422 278.18 23.9141C278.336 24.0703 278.562 24.1719 278.859 24.2188C278.891 24.2812 278.914 24.3516 278.93 24.4297C278.945 24.5078 278.977 24.5781 279.023 24.6406C279.32 24.7344 279.602 24.8672 279.867 25.0391C280.148 25.2109 280.422 25.3906 280.688 25.5781C280.953 25.75 281.219 25.9219 281.484 26.0938C281.766 26.25 282.062 26.375 282.375 26.4688C282.422 26.625 282.508 26.7344 282.633 26.7969C282.773 26.8594 282.883 26.9531 282.961 27.0781H283.383C283.43 27.1562 283.492 27.2344 283.57 27.3125C283.648 27.375 283.703 27.4688 283.734 27.5938C283.859 27.625 284 27.6719 284.156 27.7344C284.312 27.7812 284.453 27.8438 284.578 27.9219C284.625 27.9688 284.656 28.0234 284.672 28.0859C284.703 28.1484 284.75 28.2031 284.812 28.25C284.906 28.3281 285.047 28.3906 285.234 28.4375C285.438 28.4688 285.609 28.5234 285.75 28.6016C286.031 28.7578 286.305 28.9297 286.57 29.1172C286.836 29.3203 287.117 29.5078 287.414 29.6797L288.328 30.1719C288.484 30.25 288.625 30.3359 288.75 30.4297C288.891 30.5234 289.031 30.6094 289.172 30.6875C289.453 30.8125 289.75 30.8906 290.062 30.9219C290.391 30.9688 290.688 31.0547 290.953 31.1797C291.031 31.2266 291.086 31.2812 291.117 31.3438C291.148 31.4219 291.203 31.4844 291.281 31.5312C291.406 31.6094 291.602 31.6641 291.867 31.6953C292.133 31.7266 292.352 31.7812 292.523 31.8594C292.742 31.9531 292.953 32.0391 293.156 32.1172C293.375 32.2109 293.594 32.3203 293.812 32.4453C294.281 32.4766 294.742 32.5312 295.195 32.6094C295.664 32.6875 296.125 32.7656 296.578 32.8438C297.031 32.9219 297.484 32.9922 297.938 33.0547C298.406 33.1172 298.875 33.1406 299.344 33.125C299.344 33.1562 299.359 33.1719 299.391 33.1719C299.438 33.1875 299.477 33.1953 299.508 33.1953C299.617 33.3672 299.711 33.5391 299.789 33.7109C299.867 33.8828 299.906 34.0625 299.906 34.25Z" fill="#505050"/>
<path d="M143.415 57.3884C109.129 56.6135 36.2529 63.7362 19.0363 98.427M19.0363 98.427L55.8835 100.126M19.0363 98.427L16.2772 63.2134" stroke="white" stroke-opacity="0.5"/>
<path d="M211.039 97C208.197 127.607 194.348 191.758 161.687 203.514M161.687 203.514L163.97 170.531M161.687 203.514L192.756 209.598" stroke="white" stroke-opacity="0.5"/>
<path d="M193.665 77.0765L83.3351 154.424M83.3351 154.424L89.813 122.066M83.3351 154.424L110.79 159.92" stroke="white" stroke-opacity="0.5"/>
</svg>
