<svg width="407" height="360" viewBox="0 0 407 360" fill="none" xmlns="http://www.w3.org/2000/svg">
<path d="M19.6094 76.3438H48.25V89H3.15625V20.75H19.6094V76.3438ZM94.8906 76.25H72.3438L68.4062 89H50.8281L75.8594 20.75H91.3281L116.547 89H98.875L94.8906 76.25ZM76.2812 63.5469H90.9531L83.5938 39.875L76.2812 63.5469ZM178.562 89H162.203L138.016 46.5312V89H121.562V20.75H138.016L162.156 63.2188V20.75H178.562V89ZM244.844 80.5625C242.312 83.375 238.609 85.6406 233.734 87.3594C228.859 89.0781 223.516 89.9375 217.703 89.9375C208.766 89.9375 201.625 87.2031 196.281 81.7344C190.938 76.2656 188.078 68.6562 187.703 58.9062L187.656 53C187.656 46.2812 188.844 40.4219 191.219 35.4219C193.594 30.3906 196.984 26.5312 201.391 23.8438C205.828 21.125 210.953 19.7656 216.766 19.7656C225.266 19.7656 231.859 21.7188 236.547 25.625C241.266 29.5 244.016 35.2969 244.797 43.0156H228.953C228.391 39.2031 227.172 36.4844 225.297 34.8594C223.422 33.2344 220.766 32.4219 217.328 32.4219C213.203 32.4219 210.016 34.1719 207.766 37.6719C205.516 41.1719 204.375 46.1719 204.344 52.6719V56.7969C204.344 63.6094 205.5 68.7344 207.812 72.1719C210.156 75.5781 213.828 77.2812 218.828 77.2812C223.109 77.2812 226.297 76.3281 228.391 74.4219V63.8281H216.953V52.5312H244.844V80.5625Z" fill="#801336" fill-opacity="0.6"/>
<path d="M19.6094 83.3438H48.25V96H3.15625V27.75H19.6094V83.3438ZM94.8906 83.25H72.3438L68.4062 96H50.8281L75.8594 27.75H91.3281L116.547 96H98.875L94.8906 83.25ZM76.2812 70.5469H90.9531L83.5938 46.875L76.2812 70.5469ZM178.562 96H162.203L138.016 53.5312V96H121.562V27.75H138.016L162.156 70.2188V27.75H178.562V96ZM244.844 87.5625C242.312 90.375 238.609 92.6406 233.734 94.3594C228.859 96.0781 223.516 96.9375 217.703 96.9375C208.766 96.9375 201.625 94.2031 196.281 88.7344C190.938 83.2656 188.078 75.6562 187.703 65.9062L187.656 60C187.656 53.2812 188.844 47.4219 191.219 42.4219C193.594 37.3906 196.984 33.5312 201.391 30.8438C205.828 28.125 210.953 26.7656 216.766 26.7656C225.266 26.7656 231.859 28.7188 236.547 32.625C241.266 36.5 244.016 42.2969 244.797 50.0156H228.953C228.391 46.2031 227.172 43.4844 225.297 41.8594C223.422 40.2344 220.766 39.4219 217.328 39.4219C213.203 39.4219 210.016 41.1719 207.766 44.6719C205.516 48.1719 204.375 53.1719 204.344 59.6719V63.7969C204.344 70.6094 205.5 75.7344 207.812 79.1719C210.156 82.5781 213.828 84.2812 218.828 84.2812C223.109 84.2812 226.297 83.3281 228.391 81.4219V70.8281H216.953V59.5312H244.844V87.5625Z" fill="#801336" fill-opacity="0.7"/>
<path d="M19.6094 89.3438H48.25V102H3.15625V33.75H19.6094V89.3438ZM94.8906 89.25H72.3438L68.4062 102H50.8281L75.8594 33.75H91.3281L116.547 102H98.875L94.8906 89.25ZM76.2812 76.5469H90.9531L83.5938 52.875L76.2812 76.5469ZM178.562 102H162.203L138.016 59.5312V102H121.562V33.75H138.016L162.156 76.2188V33.75H178.562V102ZM244.844 93.5625C242.312 96.375 238.609 98.6406 233.734 100.359C228.859 102.078 223.516 102.938 217.703 102.938C208.766 102.938 201.625 100.203 196.281 94.7344C190.938 89.2656 188.078 81.6562 187.703 71.9062L187.656 66C187.656 59.2812 188.844 53.4219 191.219 48.4219C193.594 43.3906 196.984 39.5312 201.391 36.8438C205.828 34.125 210.953 32.7656 216.766 32.7656C225.266 32.7656 231.859 34.7188 236.547 38.625C241.266 42.5 244.016 48.2969 244.797 56.0156H228.953C228.391 52.2031 227.172 49.4844 225.297 47.8594C223.422 46.2344 220.766 45.4219 217.328 45.4219C213.203 45.4219 210.016 47.1719 207.766 50.6719C205.516 54.1719 204.375 59.1719 204.344 65.6719V69.7969C204.344 76.6094 205.5 81.7344 207.812 85.1719C210.156 88.5781 213.828 90.2812 218.828 90.2812C223.109 90.2812 226.297 89.3281 228.391 87.4219V76.8281H216.953V65.5312H244.844V93.5625Z" fill="#801336" fill-opacity="0.8"/>
<path d="M19.6094 109.344H48.25V122H3.15625V53.75H19.6094V109.344ZM94.8906 109.25H72.3438L68.4062 122H50.8281L75.8594 53.75H91.3281L116.547 122H98.875L94.8906 109.25ZM76.2812 96.5469H90.9531L83.5938 72.875L76.2812 96.5469ZM178.562 122H162.203L138.016 79.5312V122H121.562V53.75H138.016L162.156 96.2188V53.75H178.562V122ZM244.844 113.562C242.312 116.375 238.609 118.641 233.734 120.359C228.859 122.078 223.516 122.938 217.703 122.938C208.766 122.938 201.625 120.203 196.281 114.734C190.938 109.266 188.078 101.656 187.703 91.9062L187.656 86C187.656 79.2812 188.844 73.4219 191.219 68.4219C193.594 63.3906 196.984 59.5312 201.391 56.8438C205.828 54.125 210.953 52.7656 216.766 52.7656C225.266 52.7656 231.859 54.7188 236.547 58.625C241.266 62.5 244.016 68.2969 244.797 76.0156H228.953C228.391 72.2031 227.172 69.4844 225.297 67.8594C223.422 66.2344 220.766 65.4219 217.328 65.4219C213.203 65.4219 210.016 67.1719 207.766 70.6719C205.516 74.1719 204.375 79.1719 204.344 85.6719V89.7969C204.344 96.6094 205.5 101.734 207.812 105.172C210.156 108.578 213.828 110.281 218.828 110.281C223.109 110.281 226.297 109.328 228.391 107.422V96.8281H216.953V85.5312H244.844V113.562Z" fill="#801336" fill-opacity="0.7"/>
<path d="M20.6094 118.344H49.25V131H4.15625V62.75H20.6094V118.344ZM95.8906 118.25H73.3438L69.4062 131H51.8281L76.8594 62.75H92.3281L117.547 131H99.875L95.8906 118.25ZM77.2812 105.547H91.9531L84.5938 81.875L77.2812 105.547ZM179.562 131H163.203L139.016 88.5312V131H122.562V62.75H139.016L163.156 105.219V62.75H179.562V131ZM245.844 122.562C243.312 125.375 239.609 127.641 234.734 129.359C229.859 131.078 224.516 131.938 218.703 131.938C209.766 131.938 202.625 129.203 197.281 123.734C191.938 118.266 189.078 110.656 188.703 100.906L188.656 95C188.656 88.2812 189.844 82.4219 192.219 77.4219C194.594 72.3906 197.984 68.5312 202.391 65.8438C206.828 63.125 211.953 61.7656 217.766 61.7656C226.266 61.7656 232.859 63.7188 237.547 67.625C242.266 71.5 245.016 77.2969 245.797 85.0156H229.953C229.391 81.2031 228.172 78.4844 226.297 76.8594C224.422 75.2344 221.766 74.4219 218.328 74.4219C214.203 74.4219 211.016 76.1719 208.766 79.6719C206.516 83.1719 205.375 88.1719 205.344 94.6719V98.7969C205.344 105.609 206.5 110.734 208.812 114.172C211.156 117.578 214.828 119.281 219.828 119.281C224.109 119.281 227.297 118.328 229.391 116.422V105.828H217.953V94.5312H245.844V122.562Z" fill="#801336" fill-opacity="0.7"/>
<path d="M20.6094 126.344H49.25V139H4.15625V70.75H20.6094V126.344ZM95.8906 126.25H73.3438L69.4062 139H51.8281L76.8594 70.75H92.3281L117.547 139H99.875L95.8906 126.25ZM77.2812 113.547H91.9531L84.5938 89.875L77.2812 113.547ZM179.562 139H163.203L139.016 96.5312V139H122.562V70.75H139.016L163.156 113.219V70.75H179.562V139ZM245.844 130.562C243.312 133.375 239.609 135.641 234.734 137.359C229.859 139.078 224.516 139.938 218.703 139.938C209.766 139.938 202.625 137.203 197.281 131.734C191.938 126.266 189.078 118.656 188.703 108.906L188.656 103C188.656 96.2812 189.844 90.4219 192.219 85.4219C194.594 80.3906 197.984 76.5312 202.391 73.8438C206.828 71.125 211.953 69.7656 217.766 69.7656C226.266 69.7656 232.859 71.7188 237.547 75.625C242.266 79.5 245.016 85.2969 245.797 93.0156H229.953C229.391 89.2031 228.172 86.4844 226.297 84.8594C224.422 83.2344 221.766 82.4219 218.328 82.4219C214.203 82.4219 211.016 84.1719 208.766 87.6719C206.516 91.1719 205.375 96.1719 205.344 102.672V106.797C205.344 113.609 206.5 118.734 208.812 122.172C211.156 125.578 214.828 127.281 219.828 127.281C224.109 127.281 227.297 126.328 229.391 124.422V113.828H217.953V102.531H245.844V130.562Z" fill="#801336" fill-opacity="0.3"/>
<path d="M20.6094 135.344H49.25V148H4.15625V79.75H20.6094V135.344ZM95.8906 135.25H73.3438L69.4062 148H51.8281L76.8594 79.75H92.3281L117.547 148H99.875L95.8906 135.25ZM77.2812 122.547H91.9531L84.5938 98.875L77.2812 122.547ZM179.562 148H163.203L139.016 105.531V148H122.562V79.75H139.016L163.156 122.219V79.75H179.562V148ZM245.844 139.562C243.312 142.375 239.609 144.641 234.734 146.359C229.859 148.078 224.516 148.938 218.703 148.938C209.766 148.938 202.625 146.203 197.281 140.734C191.938 135.266 189.078 127.656 188.703 117.906L188.656 112C188.656 105.281 189.844 99.4219 192.219 94.4219C194.594 89.3906 197.984 85.5312 202.391 82.8438C206.828 80.125 211.953 78.7656 217.766 78.7656C226.266 78.7656 232.859 80.7188 237.547 84.625C242.266 88.5 245.016 94.2969 245.797 102.016H229.953C229.391 98.2031 228.172 95.4844 226.297 93.8594C224.422 92.2344 221.766 91.4219 218.328 91.4219C214.203 91.4219 211.016 93.1719 208.766 96.6719C206.516 100.172 205.375 105.172 205.344 111.672V115.797C205.344 122.609 206.5 127.734 208.812 131.172C211.156 134.578 214.828 136.281 219.828 136.281C224.109 136.281 227.297 135.328 229.391 133.422V122.828H217.953V111.531H245.844V139.562Z" fill="#801336" fill-opacity="0.3"/>
<path d="M20.6094 146.344H49.25V159H4.15625V90.75H20.6094V146.344ZM95.8906 146.25H73.3438L69.4062 159H51.8281L76.8594 90.75H92.3281L117.547 159H99.875L95.8906 146.25ZM77.2812 133.547H91.9531L84.5938 109.875L77.2812 133.547ZM179.562 159H163.203L139.016 116.531V159H122.562V90.75H139.016L163.156 133.219V90.75H179.562V159ZM245.844 150.562C243.312 153.375 239.609 155.641 234.734 157.359C229.859 159.078 224.516 159.938 218.703 159.938C209.766 159.938 202.625 157.203 197.281 151.734C191.938 146.266 189.078 138.656 188.703 128.906L188.656 123C188.656 116.281 189.844 110.422 192.219 105.422C194.594 100.391 197.984 96.5312 202.391 93.8438C206.828 91.125 211.953 89.7656 217.766 89.7656C226.266 89.7656 232.859 91.7188 237.547 95.625C242.266 99.5 245.016 105.297 245.797 113.016H229.953C229.391 109.203 228.172 106.484 226.297 104.859C224.422 103.234 221.766 102.422 218.328 102.422C214.203 102.422 211.016 104.172 208.766 107.672C206.516 111.172 205.375 116.172 205.344 122.672V126.797C205.344 133.609 206.5 138.734 208.812 142.172C211.156 145.578 214.828 147.281 219.828 147.281C224.109 147.281 227.297 146.328 229.391 144.422V133.828H217.953V122.531H245.844V150.562Z" fill="#801336" fill-opacity="0.3"/>
<path d="M20.6094 152.344H49.25V165H4.15625V96.75H20.6094V152.344ZM95.8906 152.25H73.3438L69.4062 165H51.8281L76.8594 96.75H92.3281L117.547 165H99.875L95.8906 152.25ZM77.2812 139.547H91.9531L84.5938 115.875L77.2812 139.547ZM179.562 165H163.203L139.016 122.531V165H122.562V96.75H139.016L163.156 139.219V96.75H179.562V165ZM245.844 156.562C243.312 159.375 239.609 161.641 234.734 163.359C229.859 165.078 224.516 165.938 218.703 165.938C209.766 165.938 202.625 163.203 197.281 157.734C191.938 152.266 189.078 144.656 188.703 134.906L188.656 129C188.656 122.281 189.844 116.422 192.219 111.422C194.594 106.391 197.984 102.531 202.391 99.8438C206.828 97.125 211.953 95.7656 217.766 95.7656C226.266 95.7656 232.859 97.7188 237.547 101.625C242.266 105.5 245.016 111.297 245.797 119.016H229.953C229.391 115.203 228.172 112.484 226.297 110.859C224.422 109.234 221.766 108.422 218.328 108.422C214.203 108.422 211.016 110.172 208.766 113.672C206.516 117.172 205.375 122.172 205.344 128.672V132.797C205.344 139.609 206.5 144.734 208.812 148.172C211.156 151.578 214.828 153.281 219.828 153.281C224.109 153.281 227.297 152.328 229.391 150.422V139.828H217.953V128.531H245.844V156.562Z" fill="#801336" fill-opacity="0.3"/>
<path d="M20.6094 165.344H49.25V178H4.15625V109.75H20.6094V165.344ZM95.8906 165.25H73.3438L69.4062 178H51.8281L76.8594 109.75H92.3281L117.547 178H99.875L95.8906 165.25ZM77.2812 152.547H91.9531L84.5938 128.875L77.2812 152.547ZM179.562 178H163.203L139.016 135.531V178H122.562V109.75H139.016L163.156 152.219V109.75H179.562V178ZM245.844 169.562C243.312 172.375 239.609 174.641 234.734 176.359C229.859 178.078 224.516 178.938 218.703 178.938C209.766 178.938 202.625 176.203 197.281 170.734C191.938 165.266 189.078 157.656 188.703 147.906L188.656 142C188.656 135.281 189.844 129.422 192.219 124.422C194.594 119.391 197.984 115.531 202.391 112.844C206.828 110.125 211.953 108.766 217.766 108.766C226.266 108.766 232.859 110.719 237.547 114.625C242.266 118.5 245.016 124.297 245.797 132.016H229.953C229.391 128.203 228.172 125.484 226.297 123.859C224.422 122.234 221.766 121.422 218.328 121.422C214.203 121.422 211.016 123.172 208.766 126.672C206.516 130.172 205.375 135.172 205.344 141.672V145.797C205.344 152.609 206.5 157.734 208.812 161.172C211.156 164.578 214.828 166.281 219.828 166.281C224.109 166.281 227.297 165.328 229.391 163.422V152.828H217.953V141.531H245.844V169.562Z" fill="#801336" fill-opacity="0.3"/>
<path d="M20.6094 179.344H49.25V192H4.15625V123.75H20.6094V179.344ZM95.8906 179.25H73.3438L69.4062 192H51.8281L76.8594 123.75H92.3281L117.547 192H99.875L95.8906 179.25ZM77.2812 166.547H91.9531L84.5938 142.875L77.2812 166.547ZM179.562 192H163.203L139.016 149.531V192H122.562V123.75H139.016L163.156 166.219V123.75H179.562V192ZM245.844 183.562C243.312 186.375 239.609 188.641 234.734 190.359C229.859 192.078 224.516 192.938 218.703 192.938C209.766 192.938 202.625 190.203 197.281 184.734C191.938 179.266 189.078 171.656 188.703 161.906L188.656 156C188.656 149.281 189.844 143.422 192.219 138.422C194.594 133.391 197.984 129.531 202.391 126.844C206.828 124.125 211.953 122.766 217.766 122.766C226.266 122.766 232.859 124.719 237.547 128.625C242.266 132.5 245.016 138.297 245.797 146.016H229.953C229.391 142.203 228.172 139.484 226.297 137.859C224.422 136.234 221.766 135.422 218.328 135.422C214.203 135.422 211.016 137.172 208.766 140.672C206.516 144.172 205.375 149.172 205.344 155.672V159.797C205.344 166.609 206.5 171.734 208.812 175.172C211.156 178.578 214.828 180.281 219.828 180.281C224.109 180.281 227.297 179.328 229.391 177.422V166.828H217.953V155.531H245.844V183.562Z" fill="#801336" fill-opacity="0.3"/>
<path d="M20.6094 194.344H49.25V207H4.15625V138.75H20.6094V194.344ZM95.8906 194.25H73.3438L69.4062 207H51.8281L76.8594 138.75H92.3281L117.547 207H99.875L95.8906 194.25ZM77.2812 181.547H91.9531L84.5938 157.875L77.2812 181.547ZM179.562 207H163.203L139.016 164.531V207H122.562V138.75H139.016L163.156 181.219V138.75H179.562V207ZM245.844 198.562C243.312 201.375 239.609 203.641 234.734 205.359C229.859 207.078 224.516 207.938 218.703 207.938C209.766 207.938 202.625 205.203 197.281 199.734C191.938 194.266 189.078 186.656 188.703 176.906L188.656 171C188.656 164.281 189.844 158.422 192.219 153.422C194.594 148.391 197.984 144.531 202.391 141.844C206.828 139.125 211.953 137.766 217.766 137.766C226.266 137.766 232.859 139.719 237.547 143.625C242.266 147.5 245.016 153.297 245.797 161.016H229.953C229.391 157.203 228.172 154.484 226.297 152.859C224.422 151.234 221.766 150.422 218.328 150.422C214.203 150.422 211.016 152.172 208.766 155.672C206.516 159.172 205.375 164.172 205.344 170.672V174.797C205.344 181.609 206.5 186.734 208.812 190.172C211.156 193.578 214.828 195.281 219.828 195.281C224.109 195.281 227.297 194.328 229.391 192.422V181.828H217.953V170.531H245.844V198.562Z" fill="#801336" fill-opacity="0.3"/>
<path d="M20.6094 210.344H49.25V223H4.15625V154.75H20.6094V210.344ZM95.8906 210.25H73.3438L69.4062 223H51.8281L76.8594 154.75H92.3281L117.547 223H99.875L95.8906 210.25ZM77.2812 197.547H91.9531L84.5938 173.875L77.2812 197.547ZM179.562 223H163.203L139.016 180.531V223H122.562V154.75H139.016L163.156 197.219V154.75H179.562V223ZM245.844 214.562C243.312 217.375 239.609 219.641 234.734 221.359C229.859 223.078 224.516 223.938 218.703 223.938C209.766 223.938 202.625 221.203 197.281 215.734C191.938 210.266 189.078 202.656 188.703 192.906L188.656 187C188.656 180.281 189.844 174.422 192.219 169.422C194.594 164.391 197.984 160.531 202.391 157.844C206.828 155.125 211.953 153.766 217.766 153.766C226.266 153.766 232.859 155.719 237.547 159.625C242.266 163.5 245.016 169.297 245.797 177.016H229.953C229.391 173.203 228.172 170.484 226.297 168.859C224.422 167.234 221.766 166.422 218.328 166.422C214.203 166.422 211.016 168.172 208.766 171.672C206.516 175.172 205.375 180.172 205.344 186.672V190.797C205.344 197.609 206.5 202.734 208.812 206.172C211.156 209.578 214.828 211.281 219.828 211.281C224.109 211.281 227.297 210.328 229.391 208.422V197.828H217.953V186.531H245.844V214.562Z" fill="#801336" fill-opacity="0.3"/>
<path d="M20.6094 225.344H49.25V238H4.15625V169.75H20.6094V225.344ZM95.8906 225.25H73.3438L69.4062 238H51.8281L76.8594 169.75H92.3281L117.547 238H99.875L95.8906 225.25ZM77.2812 212.547H91.9531L84.5938 188.875L77.2812 212.547ZM179.562 238H163.203L139.016 195.531V238H122.562V169.75H139.016L163.156 212.219V169.75H179.562V238ZM245.844 229.562C243.312 232.375 239.609 234.641 234.734 236.359C229.859 238.078 224.516 238.938 218.703 238.938C209.766 238.938 202.625 236.203 197.281 230.734C191.938 225.266 189.078 217.656 188.703 207.906L188.656 202C188.656 195.281 189.844 189.422 192.219 184.422C194.594 179.391 197.984 175.531 202.391 172.844C206.828 170.125 211.953 168.766 217.766 168.766C226.266 168.766 232.859 170.719 237.547 174.625C242.266 178.5 245.016 184.297 245.797 192.016H229.953C229.391 188.203 228.172 185.484 226.297 183.859C224.422 182.234 221.766 181.422 218.328 181.422C214.203 181.422 211.016 183.172 208.766 186.672C206.516 190.172 205.375 195.172 205.344 201.672V205.797C205.344 212.609 206.5 217.734 208.812 221.172C211.156 224.578 214.828 226.281 219.828 226.281C224.109 226.281 227.297 225.328 229.391 223.422V212.828H217.953V201.531H245.844V229.562Z" fill="#801336" fill-opacity="0.3"/>
<path d="M20.6094 241.344H49.25V254H4.15625V185.75H20.6094V241.344ZM95.8906 241.25H73.3438L69.4062 254H51.8281L76.8594 185.75H92.3281L117.547 254H99.875L95.8906 241.25ZM77.2812 228.547H91.9531L84.5938 204.875L77.2812 228.547ZM179.562 254H163.203L139.016 211.531V254H122.562V185.75H139.016L163.156 228.219V185.75H179.562V254ZM245.844 245.562C243.312 248.375 239.609 250.641 234.734 252.359C229.859 254.078 224.516 254.938 218.703 254.938C209.766 254.938 202.625 252.203 197.281 246.734C191.938 241.266 189.078 233.656 188.703 223.906L188.656 218C188.656 211.281 189.844 205.422 192.219 200.422C194.594 195.391 197.984 191.531 202.391 188.844C206.828 186.125 211.953 184.766 217.766 184.766C226.266 184.766 232.859 186.719 237.547 190.625C242.266 194.5 245.016 200.297 245.797 208.016H229.953C229.391 204.203 228.172 201.484 226.297 199.859C224.422 198.234 221.766 197.422 218.328 197.422C214.203 197.422 211.016 199.172 208.766 202.672C206.516 206.172 205.375 211.172 205.344 217.672V221.797C205.344 228.609 206.5 233.734 208.812 237.172C211.156 240.578 214.828 242.281 219.828 242.281C224.109 242.281 227.297 241.328 229.391 239.422V228.828H217.953V217.531H245.844V245.562Z" fill="#801336" fill-opacity="0.3"/>
<path d="M20.6094 256.344H49.25V269H4.15625V200.75H20.6094V256.344ZM95.8906 256.25H73.3438L69.4062 269H51.8281L76.8594 200.75H92.3281L117.547 269H99.875L95.8906 256.25ZM77.2812 243.547H91.9531L84.5938 219.875L77.2812 243.547ZM179.562 269H163.203L139.016 226.531V269H122.562V200.75H139.016L163.156 243.219V200.75H179.562V269ZM245.844 260.562C243.312 263.375 239.609 265.641 234.734 267.359C229.859 269.078 224.516 269.938 218.703 269.938C209.766 269.938 202.625 267.203 197.281 261.734C191.938 256.266 189.078 248.656 188.703 238.906L188.656 233C188.656 226.281 189.844 220.422 192.219 215.422C194.594 210.391 197.984 206.531 202.391 203.844C206.828 201.125 211.953 199.766 217.766 199.766C226.266 199.766 232.859 201.719 237.547 205.625C242.266 209.5 245.016 215.297 245.797 223.016H229.953C229.391 219.203 228.172 216.484 226.297 214.859C224.422 213.234 221.766 212.422 218.328 212.422C214.203 212.422 211.016 214.172 208.766 217.672C206.516 221.172 205.375 226.172 205.344 232.672V236.797C205.344 243.609 206.5 248.734 208.812 252.172C211.156 255.578 214.828 257.281 219.828 257.281C224.109 257.281 227.297 256.328 229.391 254.422V243.828H217.953V232.531H245.844V260.562Z" fill="#801336" fill-opacity="0.3"/>
<path d="M20.6094 272.344H49.25V285H4.15625V216.75H20.6094V272.344ZM95.8906 272.25H73.3438L69.4062 285H51.8281L76.8594 216.75H92.3281L117.547 285H99.875L95.8906 272.25ZM77.2812 259.547H91.9531L84.5938 235.875L77.2812 259.547ZM179.562 285H163.203L139.016 242.531V285H122.562V216.75H139.016L163.156 259.219V216.75H179.562V285ZM245.844 276.562C243.312 279.375 239.609 281.641 234.734 283.359C229.859 285.078 224.516 285.938 218.703 285.938C209.766 285.938 202.625 283.203 197.281 277.734C191.938 272.266 189.078 264.656 188.703 254.906L188.656 249C188.656 242.281 189.844 236.422 192.219 231.422C194.594 226.391 197.984 222.531 202.391 219.844C206.828 217.125 211.953 215.766 217.766 215.766C226.266 215.766 232.859 217.719 237.547 221.625C242.266 225.5 245.016 231.297 245.797 239.016H229.953C229.391 235.203 228.172 232.484 226.297 230.859C224.422 229.234 221.766 228.422 218.328 228.422C214.203 228.422 211.016 230.172 208.766 233.672C206.516 237.172 205.375 242.172 205.344 248.672V252.797C205.344 259.609 206.5 264.734 208.812 268.172C211.156 271.578 214.828 273.281 219.828 273.281C224.109 273.281 227.297 272.328 229.391 270.422V259.828H217.953V248.531H245.844V276.562Z" fill="#801336" fill-opacity="0.3"/>
<path d="M20.6094 286.344H49.25V299H4.15625V230.75H20.6094V286.344ZM95.8906 286.25H73.3438L69.4062 299H51.8281L76.8594 230.75H92.3281L117.547 299H99.875L95.8906 286.25ZM77.2812 273.547H91.9531L84.5938 249.875L77.2812 273.547ZM179.562 299H163.203L139.016 256.531V299H122.562V230.75H139.016L163.156 273.219V230.75H179.562V299ZM245.844 290.562C243.312 293.375 239.609 295.641 234.734 297.359C229.859 299.078 224.516 299.938 218.703 299.938C209.766 299.938 202.625 297.203 197.281 291.734C191.938 286.266 189.078 278.656 188.703 268.906L188.656 263C188.656 256.281 189.844 250.422 192.219 245.422C194.594 240.391 197.984 236.531 202.391 233.844C206.828 231.125 211.953 229.766 217.766 229.766C226.266 229.766 232.859 231.719 237.547 235.625C242.266 239.5 245.016 245.297 245.797 253.016H229.953C229.391 249.203 228.172 246.484 226.297 244.859C224.422 243.234 221.766 242.422 218.328 242.422C214.203 242.422 211.016 244.172 208.766 247.672C206.516 251.172 205.375 256.172 205.344 262.672V266.797C205.344 273.609 206.5 278.734 208.812 282.172C211.156 285.578 214.828 287.281 219.828 287.281C224.109 287.281 227.297 286.328 229.391 284.422V273.828H217.953V262.531H245.844V290.562Z" fill="#801336" fill-opacity="0.3"/>
<path d="M20.6094 299.344H49.25V312H4.15625V243.75H20.6094V299.344ZM95.8906 299.25H73.3438L69.4062 312H51.8281L76.8594 243.75H92.3281L117.547 312H99.875L95.8906 299.25ZM77.2812 286.547H91.9531L84.5938 262.875L77.2812 286.547ZM179.562 312H163.203L139.016 269.531V312H122.562V243.75H139.016L163.156 286.219V243.75H179.562V312ZM245.844 303.562C243.312 306.375 239.609 308.641 234.734 310.359C229.859 312.078 224.516 312.938 218.703 312.938C209.766 312.938 202.625 310.203 197.281 304.734C191.938 299.266 189.078 291.656 188.703 281.906L188.656 276C188.656 269.281 189.844 263.422 192.219 258.422C194.594 253.391 197.984 249.531 202.391 246.844C206.828 244.125 211.953 242.766 217.766 242.766C226.266 242.766 232.859 244.719 237.547 248.625C242.266 252.5 245.016 258.297 245.797 266.016H229.953C229.391 262.203 228.172 259.484 226.297 257.859C224.422 256.234 221.766 255.422 218.328 255.422C214.203 255.422 211.016 257.172 208.766 260.672C206.516 264.172 205.375 269.172 205.344 275.672V279.797C205.344 286.609 206.5 291.734 208.812 295.172C211.156 298.578 214.828 300.281 219.828 300.281C224.109 300.281 227.297 299.328 229.391 297.422V286.828H217.953V275.531H245.844V303.562Z" fill="#801336" fill-opacity="0.3"/>
<path d="M20.6094 314.344H49.25V327H4.15625V258.75H20.6094V314.344ZM95.8906 314.25H73.3438L69.4062 327H51.8281L76.8594 258.75H92.3281L117.547 327H99.875L95.8906 314.25ZM77.2812 301.547H91.9531L84.5938 277.875L77.2812 301.547ZM179.562 327H163.203L139.016 284.531V327H122.562V258.75H139.016L163.156 301.219V258.75H179.562V327ZM245.844 318.562C243.312 321.375 239.609 323.641 234.734 325.359C229.859 327.078 224.516 327.938 218.703 327.938C209.766 327.938 202.625 325.203 197.281 319.734C191.938 314.266 189.078 306.656 188.703 296.906L188.656 291C188.656 284.281 189.844 278.422 192.219 273.422C194.594 268.391 197.984 264.531 202.391 261.844C206.828 259.125 211.953 257.766 217.766 257.766C226.266 257.766 232.859 259.719 237.547 263.625C242.266 267.5 245.016 273.297 245.797 281.016H229.953C229.391 277.203 228.172 274.484 226.297 272.859C224.422 271.234 221.766 270.422 218.328 270.422C214.203 270.422 211.016 272.172 208.766 275.672C206.516 279.172 205.375 284.172 205.344 290.672V294.797C205.344 301.609 206.5 306.734 208.812 310.172C211.156 313.578 214.828 315.281 219.828 315.281C224.109 315.281 227.297 314.328 229.391 312.422V301.828H217.953V290.531H245.844V318.562Z" fill="#801336" fill-opacity="0.3"/>
<path d="M20.6094 329.344H49.25V342H4.15625V273.75H20.6094V329.344ZM95.8906 329.25H73.3438L69.4062 342H51.8281L76.8594 273.75H92.3281L117.547 342H99.875L95.8906 329.25ZM77.2812 316.547H91.9531L84.5938 292.875L77.2812 316.547ZM179.562 342H163.203L139.016 299.531V342H122.562V273.75H139.016L163.156 316.219V273.75H179.562V342ZM245.844 333.562C243.312 336.375 239.609 338.641 234.734 340.359C229.859 342.078 224.516 342.938 218.703 342.938C209.766 342.938 202.625 340.203 197.281 334.734C191.938 329.266 189.078 321.656 188.703 311.906L188.656 306C188.656 299.281 189.844 293.422 192.219 288.422C194.594 283.391 197.984 279.531 202.391 276.844C206.828 274.125 211.953 272.766 217.766 272.766C226.266 272.766 232.859 274.719 237.547 278.625C242.266 282.5 245.016 288.297 245.797 296.016H229.953C229.391 292.203 228.172 289.484 226.297 287.859C224.422 286.234 221.766 285.422 218.328 285.422C214.203 285.422 211.016 287.172 208.766 290.672C206.516 294.172 205.375 299.172 205.344 305.672V309.797C205.344 316.609 206.5 321.734 208.812 325.172C211.156 328.578 214.828 330.281 219.828 330.281C224.109 330.281 227.297 329.328 229.391 327.422V316.828H217.953V305.531H245.844V333.562Z" fill="#801336" fill-opacity="0.1"/>
<path d="M20.6094 329.344H49.25V342H4.15625V273.75H20.6094V329.344ZM95.8906 329.25H73.3438L69.4062 342H51.8281L76.8594 273.75H92.3281L117.547 342H99.875L95.8906 329.25ZM77.2812 316.547H91.9531L84.5938 292.875L77.2812 316.547ZM179.562 342H163.203L139.016 299.531V342H122.562V273.75H139.016L163.156 316.219V273.75H179.562V342ZM245.844 333.562C243.312 336.375 239.609 338.641 234.734 340.359C229.859 342.078 224.516 342.938 218.703 342.938C209.766 342.938 202.625 340.203 197.281 334.734C191.938 329.266 189.078 321.656 188.703 311.906L188.656 306C188.656 299.281 189.844 293.422 192.219 288.422C194.594 283.391 197.984 279.531 202.391 276.844C206.828 274.125 211.953 272.766 217.766 272.766C226.266 272.766 232.859 274.719 237.547 278.625C242.266 282.5 245.016 288.297 245.797 296.016H229.953C229.391 292.203 228.172 289.484 226.297 287.859C224.422 286.234 221.766 285.422 218.328 285.422C214.203 285.422 211.016 287.172 208.766 290.672C206.516 294.172 205.375 299.172 205.344 305.672V309.797C205.344 316.609 206.5 321.734 208.812 325.172C211.156 328.578 214.828 330.281 219.828 330.281C224.109 330.281 227.297 329.328 229.391 327.422V316.828H217.953V305.531H245.844V333.562Z" fill="#801336" fill-opacity="0.1"/>
<path d="M20.6094 329.344H49.25V342H4.15625V273.75H20.6094V329.344ZM95.8906 329.25H73.3438L69.4062 342H51.8281L76.8594 273.75H92.3281L117.547 342H99.875L95.8906 329.25ZM77.2812 316.547H91.9531L84.5938 292.875L77.2812 316.547ZM179.562 342H163.203L139.016 299.531V342H122.562V273.75H139.016L163.156 316.219V273.75H179.562V342ZM245.844 333.562C243.312 336.375 239.609 338.641 234.734 340.359C229.859 342.078 224.516 342.938 218.703 342.938C209.766 342.938 202.625 340.203 197.281 334.734C191.938 329.266 189.078 321.656 188.703 311.906L188.656 306C188.656 299.281 189.844 293.422 192.219 288.422C194.594 283.391 197.984 279.531 202.391 276.844C206.828 274.125 211.953 272.766 217.766 272.766C226.266 272.766 232.859 274.719 237.547 278.625C242.266 282.5 245.016 288.297 245.797 296.016H229.953C229.391 292.203 228.172 289.484 226.297 287.859C224.422 286.234 221.766 285.422 218.328 285.422C214.203 285.422 211.016 287.172 208.766 290.672C206.516 294.172 205.375 299.172 205.344 305.672V309.797C205.344 316.609 206.5 321.734 208.812 325.172C211.156 328.578 214.828 330.281 219.828 330.281C224.109 330.281 227.297 329.328 229.391 327.422V316.828H217.953V305.531H245.844V333.562Z" fill="#801336" fill-opacity="0.1"/>
<path d="M20.6094 329.344H49.25V342H4.15625V273.75H20.6094V329.344ZM95.8906 329.25H73.3438L69.4062 342H51.8281L76.8594 273.75H92.3281L117.547 342H99.875L95.8906 329.25ZM77.2812 316.547H91.9531L84.5938 292.875L77.2812 316.547ZM179.562 342H163.203L139.016 299.531V342H122.562V273.75H139.016L163.156 316.219V273.75H179.562V342ZM245.844 333.562C243.312 336.375 239.609 338.641 234.734 340.359C229.859 342.078 224.516 342.938 218.703 342.938C209.766 342.938 202.625 340.203 197.281 334.734C191.938 329.266 189.078 321.656 188.703 311.906L188.656 306C188.656 299.281 189.844 293.422 192.219 288.422C194.594 283.391 197.984 279.531 202.391 276.844C206.828 274.125 211.953 272.766 217.766 272.766C226.266 272.766 232.859 274.719 237.547 278.625C242.266 282.5 245.016 288.297 245.797 296.016H229.953C229.391 292.203 228.172 289.484 226.297 287.859C224.422 286.234 221.766 285.422 218.328 285.422C214.203 285.422 211.016 287.172 208.766 290.672C206.516 294.172 205.375 299.172 205.344 305.672V309.797C205.344 316.609 206.5 321.734 208.812 325.172C211.156 328.578 214.828 330.281 219.828 330.281C224.109 330.281 227.297 329.328 229.391 327.422V316.828H217.953V305.531H245.844V333.562Z" fill="#801336" fill-opacity="0.1"/>
<path d="M20.6094 329.344H49.25V342H4.15625V273.75H20.6094V329.344ZM95.8906 329.25H73.3438L69.4062 342H51.8281L76.8594 273.75H92.3281L117.547 342H99.875L95.8906 329.25ZM77.2812 316.547H91.9531L84.5938 292.875L77.2812 316.547ZM179.562 342H163.203L139.016 299.531V342H122.562V273.75H139.016L163.156 316.219V273.75H179.562V342ZM245.844 333.562C243.312 336.375 239.609 338.641 234.734 340.359C229.859 342.078 224.516 342.938 218.703 342.938C209.766 342.938 202.625 340.203 197.281 334.734C191.938 329.266 189.078 321.656 188.703 311.906L188.656 306C188.656 299.281 189.844 293.422 192.219 288.422C194.594 283.391 197.984 279.531 202.391 276.844C206.828 274.125 211.953 272.766 217.766 272.766C226.266 272.766 232.859 274.719 237.547 278.625C242.266 282.5 245.016 288.297 245.797 296.016H229.953C229.391 292.203 228.172 289.484 226.297 287.859C224.422 286.234 221.766 285.422 218.328 285.422C214.203 285.422 211.016 287.172 208.766 290.672C206.516 294.172 205.375 299.172 205.344 305.672V309.797C205.344 316.609 206.5 321.734 208.812 325.172C211.156 328.578 214.828 330.281 219.828 330.281C224.109 330.281 227.297 329.328 229.391 327.422V316.828H217.953V305.531H245.844V333.562Z" fill="#801336" fill-opacity="0.1"/>
<path d="M20.6094 329.344H49.25V342H4.15625V273.75H20.6094V329.344ZM95.8906 329.25H73.3438L69.4062 342H51.8281L76.8594 273.75H92.3281L117.547 342H99.875L95.8906 329.25ZM77.2812 316.547H91.9531L84.5938 292.875L77.2812 316.547ZM179.562 342H163.203L139.016 299.531V342H122.562V273.75H139.016L163.156 316.219V273.75H179.562V342ZM245.844 333.562C243.312 336.375 239.609 338.641 234.734 340.359C229.859 342.078 224.516 342.938 218.703 342.938C209.766 342.938 202.625 340.203 197.281 334.734C191.938 329.266 189.078 321.656 188.703 311.906L188.656 306C188.656 299.281 189.844 293.422 192.219 288.422C194.594 283.391 197.984 279.531 202.391 276.844C206.828 274.125 211.953 272.766 217.766 272.766C226.266 272.766 232.859 274.719 237.547 278.625C242.266 282.5 245.016 288.297 245.797 296.016H229.953C229.391 292.203 228.172 289.484 226.297 287.859C224.422 286.234 221.766 285.422 218.328 285.422C214.203 285.422 211.016 287.172 208.766 290.672C206.516 294.172 205.375 299.172 205.344 305.672V309.797C205.344 316.609 206.5 321.734 208.812 325.172C211.156 328.578 214.828 330.281 219.828 330.281C224.109 330.281 227.297 329.328 229.391 327.422V316.828H217.953V305.531H245.844V333.562Z" fill="#801336" fill-opacity="0.1"/>
<path d="M19.6094 98.3438H48.25V111H3.15625V42.75H19.6094V98.3438ZM94.8906 98.25H72.3438L68.4062 111H50.8281L75.8594 42.75H91.3281L116.547 111H98.875L94.8906 98.25ZM76.2812 85.5469H90.9531L83.5938 61.875L76.2812 85.5469ZM178.562 111H162.203L138.016 68.5312V111H121.562V42.75H138.016L162.156 85.2188V42.75H178.562V111ZM244.844 102.562C242.312 105.375 238.609 107.641 233.734 109.359C228.859 111.078 223.516 111.938 217.703 111.938C208.766 111.938 201.625 109.203 196.281 103.734C190.938 98.2656 188.078 90.6562 187.703 80.9062L187.656 75C187.656 68.2812 188.844 62.4219 191.219 57.4219C193.594 52.3906 196.984 48.5312 201.391 45.8438C205.828 43.125 210.953 41.7656 216.766 41.7656C225.266 41.7656 231.859 43.7188 236.547 47.625C241.266 51.5 244.016 57.2969 244.797 65.0156H228.953C228.391 61.2031 227.172 58.4844 225.297 56.8594C223.422 55.2344 220.766 54.4219 217.328 54.4219C213.203 54.4219 210.016 56.1719 207.766 59.6719C205.516 63.1719 204.375 68.1719 204.344 74.6719V78.7969C204.344 85.6094 205.5 90.7344 207.812 94.1719C210.156 97.5781 213.828 99.2812 218.828 99.2812C223.109 99.2812 226.297 98.3281 228.391 96.4219V85.8281H216.953V74.5312H244.844V102.562Z" fill="#801336"/>
</svg>
