<svg width="942" height="170" viewBox="0 0 942 170" fill="none" xmlns="http://www.w3.org/2000/svg">
<path d="M61.3125 121C60.5625 118.656 59.3438 117.391 57.6562 117.203H48.0938V40.4219H52.3125C59.1562 40.4219 64.0312 43.8906 66.9375 50.8281C67.4062 51.9531 67.8281 53.125 68.2031 54.3438L71.8594 66.0156H75.9375L75.375 36.625H3.65625L2.95312 66.0156H7.17188L10.8281 54.3438C13.0781 47.0312 16.6875 42.625 21.6562 41.125C23.1562 40.6562 24.8438 40.4219 26.7188 40.4219H30.7969V117.203H17.4375V121H61.3125ZM154.884 121C154.322 118.656 153.056 117.391 151.088 117.203H143.634V79.6562H181.744V117.203H170.494V121H210.15C209.4 118.656 208.181 117.391 206.494 117.203H199.041V40.4219H210.15V36.625H170.494V40.4219H181.744V75.4375H143.634V40.4219H154.884V36.625H115.088V40.4219H126.338V117.203H115.088V121H154.884ZM319.191 63.0625L318.628 36.625H250.003V40.4219H261.253V117.203H250.003V121H318.628L319.191 94.5625H315.534L312.722 103.281C310.284 110.594 306.628 115 301.753 116.5C300.159 116.969 298.425 117.203 296.55 117.203H278.55V79.6562H306.253V75.4375H278.55V40.4219H296.55C303.769 40.4219 308.878 44.1719 311.878 51.6719C312.253 52.5156 312.581 53.4062 312.863 54.3438L315.534 63.0625H319.191ZM461.475 121V117.203H450.225V82.4688H459.225L480.6 121.141L504.225 121C504.225 118.938 503.616 117.766 502.397 117.484C501.834 117.391 501.272 117.344 500.709 117.344H497.756L475.678 80.9219C485.241 78.3906 491.334 73.3281 493.959 65.7344C494.709 63.3906 495.084 61.0469 495.084 58.7031C495.084 51.6719 491.991 46.0469 485.803 41.8281C480.647 38.3594 474.366 36.625 466.959 36.625H421.678V40.4219H432.928V117.203H421.678V121H461.475ZM459.928 40.4219C467.522 40.4219 472.631 43.9375 475.256 50.9688C476.194 53.5 476.663 56.2188 476.663 59.125C476.663 66.625 474.272 72.1094 469.491 75.5781C466.959 77.3594 464.053 78.25 460.772 78.25H450.225V40.4219H459.928ZM586.547 35.2188C574.453 35.2188 564.188 39.0625 555.75 46.75C546.844 54.9062 542.391 65.4531 542.391 78.3906C542.391 93.2969 547.688 104.875 558.281 113.125C566.25 119.312 575.531 122.406 586.125 122.406C598.125 122.406 608.297 118.516 616.641 110.734C625.453 102.484 629.859 91.8906 629.859 78.9531C629.859 63.5781 624.422 51.8594 613.547 43.7969C605.859 38.0781 596.859 35.2188 586.547 35.2188ZM586.547 118.328C574.922 118.328 567.469 112.188 564.188 99.9062C562.688 94.1875 561.938 87.2031 561.938 78.9531C561.938 53.9219 569.109 40.75 583.453 39.4375C584.391 39.3438 585.281 39.2969 586.125 39.2969C598.688 39.2969 606.328 46.9375 609.047 62.2188C609.891 66.9062 610.312 72.2969 610.312 78.3906C610.312 101.453 604.5 114.531 592.875 117.625C590.906 118.094 588.797 118.328 586.547 118.328ZM757.463 121C757.463 118.844 756.806 117.625 755.494 117.344C755.119 117.25 754.603 117.203 753.947 117.203H749.588L716.681 36.625H707.963L677.025 117.203H668.025V121H693.619C693.619 118.844 692.963 117.625 691.65 117.344C691.181 117.25 690.666 117.203 690.103 117.203H682.65L692.916 90.2031H721.322L731.869 117.203H722.166V121H757.463ZM719.634 85.9844H694.463L706.978 53.0781L719.634 85.9844ZM793.519 36.625V40.4219H804.769V117.203H793.519V121H834.441C847.284 121 857.878 117.062 866.222 109.188C874.472 101.406 878.597 91.3281 878.597 78.9531C878.597 63.2031 872.737 51.5312 861.019 43.9375C853.425 39.0625 844.519 36.625 834.3 36.625H793.519ZM834.441 40.4219C845.878 40.4219 853.331 45.9531 856.8 57.0156C858.487 62.6406 859.331 69.7656 859.331 78.3906C859.331 99.8594 853.847 112.375 842.878 115.938C840.347 116.781 837.534 117.203 834.441 117.203H822.066V40.4219H834.441Z" fill="white" fill-opacity="0.1"/>
<path d="M81.3125 121C80.5625 118.656 79.3438 117.391 77.6562 117.203H68.0938V40.4219H72.3125C79.1562 40.4219 84.0312 43.8906 86.9375 50.8281C87.4062 51.9531 87.8281 53.125 88.2031 54.3438L91.8594 66.0156H95.9375L95.375 36.625H23.6562L22.9531 66.0156H27.1719L30.8281 54.3438C33.0781 47.0312 36.6875 42.625 41.6562 41.125C43.1562 40.6562 44.8438 40.4219 46.7188 40.4219H50.7969V117.203H37.4375V121H81.3125ZM174.884 121C174.322 118.656 173.056 117.391 171.088 117.203H163.634V79.6562H201.744V117.203H190.494V121H230.15C229.4 118.656 228.181 117.391 226.494 117.203H219.041V40.4219H230.15V36.625H190.494V40.4219H201.744V75.4375H163.634V40.4219H174.884V36.625H135.088V40.4219H146.338V117.203H135.088V121H174.884ZM339.191 63.0625L338.628 36.625H270.003V40.4219H281.253V117.203H270.003V121H338.628L339.191 94.5625H335.534L332.722 103.281C330.284 110.594 326.628 115 321.753 116.5C320.159 116.969 318.425 117.203 316.55 117.203H298.55V79.6562H326.253V75.4375H298.55V40.4219H316.55C323.769 40.4219 328.878 44.1719 331.878 51.6719C332.253 52.5156 332.581 53.4062 332.863 54.3438L335.534 63.0625H339.191ZM481.475 121V117.203H470.225V82.4688H479.225L500.6 121.141L524.225 121C524.225 118.938 523.616 117.766 522.397 117.484C521.834 117.391 521.272 117.344 520.709 117.344H517.756L495.678 80.9219C505.241 78.3906 511.334 73.3281 513.959 65.7344C514.709 63.3906 515.084 61.0469 515.084 58.7031C515.084 51.6719 511.991 46.0469 505.803 41.8281C500.647 38.3594 494.366 36.625 486.959 36.625H441.678V40.4219H452.928V117.203H441.678V121H481.475ZM479.928 40.4219C487.522 40.4219 492.631 43.9375 495.256 50.9688C496.194 53.5 496.663 56.2188 496.663 59.125C496.663 66.625 494.272 72.1094 489.491 75.5781C486.959 77.3594 484.053 78.25 480.772 78.25H470.225V40.4219H479.928ZM606.547 35.2188C594.453 35.2188 584.188 39.0625 575.75 46.75C566.844 54.9062 562.391 65.4531 562.391 78.3906C562.391 93.2969 567.688 104.875 578.281 113.125C586.25 119.312 595.531 122.406 606.125 122.406C618.125 122.406 628.297 118.516 636.641 110.734C645.453 102.484 649.859 91.8906 649.859 78.9531C649.859 63.5781 644.422 51.8594 633.547 43.7969C625.859 38.0781 616.859 35.2188 606.547 35.2188ZM606.547 118.328C594.922 118.328 587.469 112.188 584.188 99.9062C582.688 94.1875 581.938 87.2031 581.938 78.9531C581.938 53.9219 589.109 40.75 603.453 39.4375C604.391 39.3438 605.281 39.2969 606.125 39.2969C618.688 39.2969 626.328 46.9375 629.047 62.2188C629.891 66.9062 630.312 72.2969 630.312 78.3906C630.312 101.453 624.5 114.531 612.875 117.625C610.906 118.094 608.797 118.328 606.547 118.328ZM777.463 121C777.463 118.844 776.806 117.625 775.494 117.344C775.119 117.25 774.603 117.203 773.947 117.203H769.588L736.681 36.625H727.963L697.025 117.203H688.025V121H713.619C713.619 118.844 712.963 117.625 711.65 117.344C711.181 117.25 710.666 117.203 710.103 117.203H702.65L712.916 90.2031H741.322L751.869 117.203H742.166V121H777.463ZM739.634 85.9844H714.463L726.978 53.0781L739.634 85.9844ZM813.519 36.625V40.4219H824.769V117.203H813.519V121H854.441C867.284 121 877.878 117.062 886.222 109.188C894.472 101.406 898.597 91.3281 898.597 78.9531C898.597 63.2031 892.737 51.5312 881.019 43.9375C873.425 39.0625 864.519 36.625 854.3 36.625H813.519ZM854.441 40.4219C865.878 40.4219 873.331 45.9531 876.8 57.0156C878.487 62.6406 879.331 69.7656 879.331 78.3906C879.331 99.8594 873.847 112.375 862.878 115.938C860.347 116.781 857.534 117.203 854.441 117.203H842.066V40.4219H854.441Z" fill="white" fill-opacity="0.2"/>
<path d="M102.312 121C101.562 118.656 100.344 117.391 98.6562 117.203H89.0938V40.4219H93.3125C100.156 40.4219 105.031 43.8906 107.938 50.8281C108.406 51.9531 108.828 53.125 109.203 54.3438L112.859 66.0156H116.938L116.375 36.625H44.6562L43.9531 66.0156H48.1719L51.8281 54.3438C54.0781 47.0312 57.6875 42.625 62.6562 41.125C64.1562 40.6562 65.8438 40.4219 67.7188 40.4219H71.7969V117.203H58.4375V121H102.312ZM195.884 121C195.322 118.656 194.056 117.391 192.088 117.203H184.634V79.6562H222.744V117.203H211.494V121H251.15C250.4 118.656 249.181 117.391 247.494 117.203H240.041V40.4219H251.15V36.625H211.494V40.4219H222.744V75.4375H184.634V40.4219H195.884V36.625H156.088V40.4219H167.338V117.203H156.088V121H195.884ZM360.191 63.0625L359.628 36.625H291.003V40.4219H302.253V117.203H291.003V121H359.628L360.191 94.5625H356.534L353.722 103.281C351.284 110.594 347.628 115 342.753 116.5C341.159 116.969 339.425 117.203 337.55 117.203H319.55V79.6562H347.253V75.4375H319.55V40.4219H337.55C344.769 40.4219 349.878 44.1719 352.878 51.6719C353.253 52.5156 353.581 53.4062 353.863 54.3438L356.534 63.0625H360.191ZM502.475 121V117.203H491.225V82.4688H500.225L521.6 121.141L545.225 121C545.225 118.938 544.616 117.766 543.397 117.484C542.834 117.391 542.272 117.344 541.709 117.344H538.756L516.678 80.9219C526.241 78.3906 532.334 73.3281 534.959 65.7344C535.709 63.3906 536.084 61.0469 536.084 58.7031C536.084 51.6719 532.991 46.0469 526.803 41.8281C521.647 38.3594 515.366 36.625 507.959 36.625H462.678V40.4219H473.928V117.203H462.678V121H502.475ZM500.928 40.4219C508.522 40.4219 513.631 43.9375 516.256 50.9688C517.194 53.5 517.663 56.2188 517.663 59.125C517.663 66.625 515.272 72.1094 510.491 75.5781C507.959 77.3594 505.053 78.25 501.772 78.25H491.225V40.4219H500.928ZM627.547 35.2188C615.453 35.2188 605.188 39.0625 596.75 46.75C587.844 54.9062 583.391 65.4531 583.391 78.3906C583.391 93.2969 588.688 104.875 599.281 113.125C607.25 119.312 616.531 122.406 627.125 122.406C639.125 122.406 649.297 118.516 657.641 110.734C666.453 102.484 670.859 91.8906 670.859 78.9531C670.859 63.5781 665.422 51.8594 654.547 43.7969C646.859 38.0781 637.859 35.2188 627.547 35.2188ZM627.547 118.328C615.922 118.328 608.469 112.188 605.188 99.9062C603.688 94.1875 602.938 87.2031 602.938 78.9531C602.938 53.9219 610.109 40.75 624.453 39.4375C625.391 39.3438 626.281 39.2969 627.125 39.2969C639.688 39.2969 647.328 46.9375 650.047 62.2188C650.891 66.9062 651.312 72.2969 651.312 78.3906C651.312 101.453 645.5 114.531 633.875 117.625C631.906 118.094 629.797 118.328 627.547 118.328ZM798.463 121C798.463 118.844 797.806 117.625 796.494 117.344C796.119 117.25 795.603 117.203 794.947 117.203H790.588L757.681 36.625H748.963L718.025 117.203H709.025V121H734.619C734.619 118.844 733.963 117.625 732.65 117.344C732.181 117.25 731.666 117.203 731.103 117.203H723.65L733.916 90.2031H762.322L772.869 117.203H763.166V121H798.463ZM760.634 85.9844H735.463L747.978 53.0781L760.634 85.9844ZM834.519 36.625V40.4219H845.769V117.203H834.519V121H875.441C888.284 121 898.878 117.062 907.222 109.188C915.472 101.406 919.597 91.3281 919.597 78.9531C919.597 63.2031 913.737 51.5312 902.019 43.9375C894.425 39.0625 885.519 36.625 875.3 36.625H834.519ZM875.441 40.4219C886.878 40.4219 894.331 45.9531 897.8 57.0156C899.487 62.6406 900.331 69.7656 900.331 78.3906C900.331 99.8594 894.847 112.375 883.878 115.938C881.347 116.781 878.534 117.203 875.441 117.203H863.066V40.4219H875.441Z" fill="white" fill-opacity="0.3"/>
<path d="M118.312 121C117.562 118.656 116.344 117.391 114.656 117.203H105.094V40.4219H109.312C116.156 40.4219 121.031 43.8906 123.938 50.8281C124.406 51.9531 124.828 53.125 125.203 54.3438L128.859 66.0156H132.938L132.375 36.625H60.6562L59.9531 66.0156H64.1719L67.8281 54.3438C70.0781 47.0312 73.6875 42.625 78.6562 41.125C80.1562 40.6562 81.8438 40.4219 83.7188 40.4219H87.7969V117.203H74.4375V121H118.312ZM211.884 121C211.322 118.656 210.056 117.391 208.088 117.203H200.634V79.6562H238.744V117.203H227.494V121H267.15C266.4 118.656 265.181 117.391 263.494 117.203H256.041V40.4219H267.15V36.625H227.494V40.4219H238.744V75.4375H200.634V40.4219H211.884V36.625H172.088V40.4219H183.338V117.203H172.088V121H211.884ZM376.191 63.0625L375.628 36.625H307.003V40.4219H318.253V117.203H307.003V121H375.628L376.191 94.5625H372.534L369.722 103.281C367.284 110.594 363.628 115 358.753 116.5C357.159 116.969 355.425 117.203 353.55 117.203H335.55V79.6562H363.253V75.4375H335.55V40.4219H353.55C360.769 40.4219 365.878 44.1719 368.878 51.6719C369.253 52.5156 369.581 53.4062 369.863 54.3438L372.534 63.0625H376.191ZM518.475 121V117.203H507.225V82.4688H516.225L537.6 121.141L561.225 121C561.225 118.938 560.616 117.766 559.397 117.484C558.834 117.391 558.272 117.344 557.709 117.344H554.756L532.678 80.9219C542.241 78.3906 548.334 73.3281 550.959 65.7344C551.709 63.3906 552.084 61.0469 552.084 58.7031C552.084 51.6719 548.991 46.0469 542.803 41.8281C537.647 38.3594 531.366 36.625 523.959 36.625H478.678V40.4219H489.928V117.203H478.678V121H518.475ZM516.928 40.4219C524.522 40.4219 529.631 43.9375 532.256 50.9688C533.194 53.5 533.663 56.2188 533.663 59.125C533.663 66.625 531.272 72.1094 526.491 75.5781C523.959 77.3594 521.053 78.25 517.772 78.25H507.225V40.4219H516.928ZM643.547 35.2188C631.453 35.2188 621.188 39.0625 612.75 46.75C603.844 54.9062 599.391 65.4531 599.391 78.3906C599.391 93.2969 604.688 104.875 615.281 113.125C623.25 119.312 632.531 122.406 643.125 122.406C655.125 122.406 665.297 118.516 673.641 110.734C682.453 102.484 686.859 91.8906 686.859 78.9531C686.859 63.5781 681.422 51.8594 670.547 43.7969C662.859 38.0781 653.859 35.2188 643.547 35.2188ZM643.547 118.328C631.922 118.328 624.469 112.188 621.188 99.9062C619.688 94.1875 618.938 87.2031 618.938 78.9531C618.938 53.9219 626.109 40.75 640.453 39.4375C641.391 39.3438 642.281 39.2969 643.125 39.2969C655.688 39.2969 663.328 46.9375 666.047 62.2188C666.891 66.9062 667.312 72.2969 667.312 78.3906C667.312 101.453 661.5 114.531 649.875 117.625C647.906 118.094 645.797 118.328 643.547 118.328ZM814.463 121C814.463 118.844 813.806 117.625 812.494 117.344C812.119 117.25 811.603 117.203 810.947 117.203H806.588L773.681 36.625H764.963L734.025 117.203H725.025V121H750.619C750.619 118.844 749.963 117.625 748.65 117.344C748.181 117.25 747.666 117.203 747.103 117.203H739.65L749.916 90.2031H778.322L788.869 117.203H779.166V121H814.463ZM776.634 85.9844H751.463L763.978 53.0781L776.634 85.9844ZM850.519 36.625V40.4219H861.769V117.203H850.519V121H891.441C904.284 121 914.878 117.062 923.222 109.188C931.472 101.406 935.597 91.3281 935.597 78.9531C935.597 63.2031 929.737 51.5312 918.019 43.9375C910.425 39.0625 901.519 36.625 891.3 36.625H850.519ZM891.441 40.4219C902.878 40.4219 910.331 45.9531 913.8 57.0156C915.487 62.6406 916.331 69.7656 916.331 78.3906C916.331 99.8594 910.847 112.375 899.878 115.938C897.347 116.781 894.534 117.203 891.441 117.203H879.066V40.4219H891.441Z" fill="white"/>
</svg>
